0
SECTION
2
HEADER
9
$INSUNITS
70
4
0
ENDSEC
0
SECTION
2
TABLES
0
TABLE
2
LTYPE
0
LTYPE
72
65
70
0
2
CONTINUOUS
3
______
73
0
40
0
0
LTYPE
72
65
70
0
2
DASHED
3
_ _ _ 
73
2
40
7.5
49
5
49
-2.5
0
LTYPE
72
65
70
0
2
DOTTED
3
. . . 
73
2
40
1.5
49
0.5
49
-1
0
ENDTAB
0
TABLE
2
LAYER
0
ENDTAB
0
ENDSEC
0
SECTION
2
ENTITIES
0
LINE
8
0
6
CONTINUOUS
10
-9.5013312
20
-11.873277
11
11.4187575
21
-10.0430064
0
ARC
8
0
6
CONTINUOUS
10
11.3316018
20
-9.0468117
40
1
50
275
51
5
0
LINE
8
0
6
CONTINUOUS
10
12.3277965
20
-8.9596559
11
12.1099071
21
-6.4691692
0
ARC
8
0
6
CONTINUOUS
10
-11.3316018
20
9.0468117
40
1
50
184.9743752
51
185
0
LINE
8
0
6
CONTINUOUS
10
-12.3277965
20
8.9596559
11
-10.5846816
21
-10.964238
0
ARC
8
0
6
CONTINUOUS
10
-9.5884869
20
-10.8770823
40
1
50
185
51
275
0
ARC
8
0
6
CONTINUOUS
10
-12.8132494
20
25.9821216
40
1
50
184.9743752
51
185
0
LINE
8
0
6
CONTINUOUS
10
-13.8094441
20
25.8949658
11
-12.3278354
21
8.9601015
0
LINE
8
0
6
CONTINUOUS
10
-12.3278354
20
8.9601015
11
-12.3277965
21
8.959656
0
ARC
8
0
6
CONTINUOUS
10
-14.294897
20
42.9174315
40
1
50
184.9743752
51
185
0
LINE
8
0
6
CONTINUOUS
10
-15.2910917
20
42.8302757
11
-13.809483
21
25.8954114
0
LINE
8
0
6
CONTINUOUS
10
1.0716096
20
62.3305837
11
-15.8637003
21
60.8489361
0
ARC
8
0
6
CONTINUOUS
10
-15.7765446
20
59.8527414
40
1
50
95
51
185
0
LINE
8
0
6
CONTINUOUS
10
-16.7727393
20
59.7655856
11
-15.2911306
21
42.8307213
0
LINE
8
0
6
CONTINUOUS
10
-15.2911306
20
42.8307213
11
-15.2910917
21
42.8302758
0
LINE
8
0
6
CONTINUOUS
10
12.1099071
20
-6.4691692
11
29.045217
21
-4.9875216
0
ARC
8
0
6
CONTINUOUS
10
28.9580613
20
-3.9913269
40
1
50
275
51
5
0
LINE
8
0
6
CONTINUOUS
10
29.954256
20
-3.9041711
11
29.7160723
21
-1.1817189
0
LINE
8
0
6
CONTINUOUS
10
21.0848071
20
67.594881
11
1.7627592
21
65.9044209
0
ARC
8
0
6
CONTINUOUS
10
1.8499149
20
64.9082262
40
1
50
95
51
185
0
LINE
8
0
6
CONTINUOUS
10
0.8537202
20
64.8210704
11
1.0716096
21
62.3305837
0
LINE
8
0
6
CONTINUOUS
10
29.7160723
20
-1.1817189
11
46.6728546
21
-0.2930516
0
ARC
8
0
6
CONTINUOUS
10
46.6205187
20
0.7055779
40
1
50
273
51
3
0
LINE
8
0
6
CONTINUOUS
10
47.6191482
20
0.7579138
11
47.4959569
21
3.108543
0
LINE
8
0
6
CONTINUOUS
10
42.4691327
20
72.5868219
11
21.8811095
21
71.5078493
0
ARC
8
0
6
CONTINUOUS
10
21.9334454
20
70.5092198
40
1
50
93
51
183
0
LINE
8
0
6
CONTINUOUS
10
20.9348159
20
70.4568839
11
21.0848071
21
67.594881
0
LINE
8
0
6
CONTINUOUS
10
47.4959569
20
3.108543
11
60.5602173
21
3.108543
0
LINE
8
0
6
CONTINUOUS
10
65.4691327
20
72.8858913
11
65.4691327
21
75.108543
0
ARC
8
0
6
CONTINUOUS
10
64.4691327
20
75.108543
40
1
50
0
51
90
0
LINE
8
0
6
CONTINUOUS
10
64.4691327
20
76.108543
11
43.4691327
21
76.108543
0
ARC
8
0
6
CONTINUOUS
10
43.4691327
20
75.108543
40
1
50
90
51
180
0
LINE
8
0
6
CONTINUOUS
10
42.4691327
20
75.108543
11
42.4691327
21
72.5868219
0
LINE
8
0
6
CONTINUOUS
10
61.4516347
20
-0.0183114
11
78.4471418
21
-0.6118076
0
LINE
8
0
6
CONTINUOUS
10
84.0887021
20
17.8409047
11
84.1711223
21
20.2011071
0
ARC
8
0
6
CONTINUOUS
10
83.1717315
20
20.2360066
40
1
50
358
51
358.0256206
0
LINE
8
0
6
CONTINUOUS
10
60.5602173
20
3.108543
11
60.4871433
21
1.0159789
0
ARC
8
0
6
CONTINUOUS
10
61.4865341
20
0.9810794
40
1
50
178
51
268
0
LINE
8
0
6
CONTINUOUS
10
84.1711378
20
20.201554
11
84.2100132
21
21.3148001
0
LINE
8
0
6
CONTINUOUS
10
85.5713008
20
60.2969794
11
85.9509965
21
71.1700394
0
ARC
8
0
6
CONTINUOUS
10
84.9516057
20
71.2049389
40
1
50
358
51
88
0
LINE
8
0
6
CONTINUOUS
10
84.9865051
20
72.2043297
11
65.4691327
21
72.8858913
0
LINE
8
0
6
CONTINUOUS
10
84.2100132
20
21.3148001
11
85.1428266
21
21.2659134
0
LINE
8
0
6
CONTINUOUS
10
88.7940898
20
21.0745588
11
101.292291
21
20.4195558
0
ARC
8
0
6
CONTINUOUS
10
101.344627
20
21.4181853
40
1
50
267
51
357
0
LINE
8
0
6
CONTINUOUS
10
102.3432565
20
21.3658494
11
103.2329443
21
38.3421048
0
LINE
8
0
6
CONTINUOUS
10
103.2329678
20
38.3425514
11
103.3899756
21
41.3384401
0
ARC
8
0
6
CONTINUOUS
10
102.2343383
20
38.3948874
40
1
50
356.9743737
51
357
0
LINE
8
0
6
CONTINUOUS
10
103.3899756
20
41.3384401
11
104.2796869
21
58.3151422
0
ARC
8
0
6
CONTINUOUS
10
103.2810574
20
58.3674781
40
1
50
357
51
87
0
LINE
8
0
6
CONTINUOUS
10
103.3333933
20
59.3661076
11
85.5713008
21
60.2969794
0
LINE
8
0
6
CONTINUOUS
10
74.3641074
20
-17.3871149
11
94.4465073
21
-23.5269207
0
ARC
8
0
6
CONTINUOUS
10
94.738879
20
-22.570616
40
1
50
253
51
295.8101445
0
LINE
8
0
6
CONTINUOUS
10
78.4471418
20
-0.6118076
11
73.7001744
21
-16.1384385
0
ARC
8
0
6
CONTINUOUS
10
74.6564791
20
-16.4308102
40
1
50
163
51
253
0
LINE
8
0
6
CONTINUOUS
10
104.7693885
20
16.1904198
11
88.7940898
21
21.0745588
0
ARC
8
0
6
CONTINUOUS
10
86.0589756
20
20.8650754
40
1
50
156.3694248
51
163
0
LINE
8
0
6
CONTINUOUS
10
85.1026709
20
21.1574471
11
84.0887021
21
17.8409047
0
LINE
8
0
6
CONTINUOUS
10
95.1742695
20
-23.4708577
11
112.1378818
21
-29.3118979
0
ARC
8
0
6
CONTINUOUS
10
112.46345
20
-28.3663793
40
1
50
251
51
293.8101505
0
LINE
8
0
6
CONTINUOUS
10
123.8405897
20
10.0209846
11
105.6302861
21
16.291295
0
ARC
8
0
6
CONTINUOUS
10
105.3047179
20
15.3457764
40
1
50
71
51
122.3662525
0
LINE
8
0
6
CONTINUOUS
10
112.8671574
20
-29.2812675
11
129.6165864
21
-35.710771
0
ARC
8
0
6
CONTINUOUS
10
129.9749544
20
-34.7771905
40
1
50
249
51
339
0
LINE
8
0
6
CONTINUOUS
10
130.9085348
20
-35.1355585
11
138.0758938
21
-16.46395
0
ARC
8
0
6
CONTINUOUS
10
137.1423134
20
-16.105582
40
1
50
339
51
339.0256237
0
LINE
8
0
6
CONTINUOUS
10
138.0758938
20
-16.46395
11
138.076054
21
-16.4635324
0
LINE
8
0
6
CONTINUOUS
10
138.076054
20
-16.4635324
11
144.8848848
21
1.2740781
0
ARC
8
0
6
CONTINUOUS
10
143.9513044
20
1.6324461
40
1
50
339
51
69
0
LINE
8
0
6
CONTINUOUS
10
144.3096723
20
2.5660265
11
124.7044834
21
10.0917535
0
ARC
8
0
6
CONTINUOUS
10
124.3461154
20
9.158173
40
1
50
69
51
120.3662542
0
ENDSEC
0
EOF