0
SECTION
2
ENTITIES
0
LWPOLYLINE
8
0
90
5
70
1
10
106.32673
20
32.34268
10
109.76942
20
31.29014
10
108.86307
20
28.32560
10
105.42037
20
29.37814
10
106.32673
20
32.34268
0
LWPOLYLINE
8
0
90
5
70
1
10
90.53429
20
86.67402
10
94.13210
20
86.54838
10
94.02391
20
83.45027
10
90.42610
20
83.57590
10
90.53429
20
86.67402
0
LWPOLYLINE
8
0
90
5
70
1
10
13.29826
20
75.71706
10
16.88456
20
76.03082
10
17.15474
20
72.94262
10
13.56844
20
72.62886
10
13.29826
20
75.71706
0
LWPOLYLINE
8
0
90
5
70
1
10
16.26156
20
41.84646
10
19.84786
20
42.16022
10
20.11804
20
39.07202
10
16.53174
20
38.75826
10
16.26156
20
41.84646
0
LWPOLYLINE
8
0
90
5
70
1
10
32.40636
20
63.83726
10
35.99266
20
64.15102
10
36.26284
20
61.06282
10
32.67654
20
60.74906
10
32.40636
20
63.83726
0
LWPOLYLINE
8
0
90
5
70
1
10
51.19665
20
69.04341
10
54.79171
20
69.23182
10
54.95395
20
66.13607
10
51.35889
20
65.94766
10
51.19665
20
69.04341
0
LWPOLYLINE
8
0
90
5
70
1
10
52.08635
20
52.06671
10
55.68141
20
52.25512
10
55.84365
20
49.15937
10
52.24859
20
48.97096
10
52.08635
20
52.06671
0
LWPOLYLINE
8
0
90
5
70
1
10
70.76850
20
56.13574
10
74.36850
20
56.13574
10
74.36850
20
53.03574
10
70.76850
20
53.03574
10
70.76850
20
56.13574
0
LWPOLYLINE
8
0
90
5
70
1
10
130.90930
20
44.74482
10
134.31316
20
43.57277
10
133.30390
20
40.64167
10
129.90004
20
41.81371
10
130.90930
20
44.74482
0
LWPOLYLINE
8
0
90
5
70
1
10
91.12759
20
103.66362
10
94.72540
20
103.53798
10
94.61721
20
100.43987
10
91.01940
20
100.56550
10
91.12759
20
103.66362
0
LWPOLYLINE
8
0
90
5
70
1
10
142.91483
20
20.57855
10
146.27571
20
19.28843
10
145.16477
20
16.39433
10
141.80388
20
17.68445
10
142.91483
20
20.57855
0
LWPOLYLINE
8
0
90
5
70
1
10
30.92466
20
80.77256
10
34.51096
20
81.08632
10
34.78114
20
77.99812
10
31.19484
20
77.68436
10
30.92466
20
80.77256
0
LWPOLYLINE
8
0
90
5
70
1
10
70.76850
20
90.13574
10
74.36850
20
90.13574
10
74.36850
20
87.03574
10
70.76850
20
87.03574
10
70.76850
20
90.13574
0
LWPOLYLINE
8
0
90
5
70
1
10
108.51139
20
74.06682
10
112.10645
20
73.87841
10
111.94421
20
70.78266
10
108.34915
20
70.97107
10
108.51139
20
74.06682
0
LWPOLYLINE
8
0
90
5
70
1
10
109.40109
20
91.04352
10
112.99615
20
90.85511
10
112.83391
20
87.75936
10
109.23885
20
87.94777
10
109.40109
20
91.04352
0
LWPOLYLINE
8
0
90
5
70
1
10
89.34779
20
52.69472
10
92.94560
20
52.56908
10
92.83741
20
49.47097
10
89.23960
20
49.59660
10
89.34779
20
52.69472
0
LWPOLYLINE
8
0
90
5
70
1
10
70.76850
20
73.13574
10
74.36850
20
73.13574
10
74.36850
20
70.03574
10
70.76850
20
70.03574
10
70.76850
20
73.13574
0
LWPOLYLINE
8
0
90
5
70
1
10
33.88796
20
46.90196
10
37.47426
20
47.21572
10
37.74444
20
44.12752
10
34.15814
20
43.81376
10
33.88796
20
46.90196
0
LWPOLYLINE
8
0
90
5
70
1
10
111.88183
20
50.51248
10
115.32452
20
49.45994
10
114.41817
20
46.49540
10
110.97547
20
47.54794
10
111.88183
20
50.51248
0
LWPOLYLINE
8
0
90
5
70
1
10
49.41715
20
102.99681
10
53.01221
20
103.18522
10
53.17445
20
100.08947
10
49.57939
20
99.90106
10
49.41715
20
102.99681
0
LWPOLYLINE
8
0
90
5
70
1
10
124.72350
20
26.77992
10
128.12736
20
25.60787
10
127.11810
20
22.67677
10
123.71424
20
23.84881
10
124.72350
20
26.77992
0
LWPOLYLINE
8
0
90
5
70
1
10
29.44306
20
97.70786
10
33.02936
20
98.02162
10
33.29954
20
94.93342
10
29.71324
20
94.61966
10
29.44306
20
97.70786
0
LWPOLYLINE
8
0
90
5
70
1
10
89.94109
20
69.68432
10
93.53890
20
69.55868
10
93.43071
20
66.46057
10
89.83290
20
66.58620
10
89.94109
20
69.68432
0
LWPOLYLINE
8
0
90
5
70
1
10
70.76850
20
107.13574
10
74.36850
20
107.13574
10
74.36850
20
104.03574
10
70.76850
20
104.03574
10
70.76850
20
107.13574
0
LWPOLYLINE
8
0
90
5
70
1
10
50.30695
20
86.02011
10
53.90201
20
86.20852
10
54.06425
20
83.11277
10
50.46919
20
82.92436
10
50.30695
20
86.02011
0
LWPOLYLINE
8
0
90
5
70
1
10
14.77986
20
58.78176
10
18.36616
20
59.09552
10
18.63634
20
56.00732
10
15.05004
20
55.69356
10
14.77986
20
58.78176
0
LWPOLYLINE
8
0
90
5
70
1
10
149.72383
20
38.31655
10
153.08471
20
37.02643
10
151.97377
20
34.13233
10
148.61288
20
35.42245
10
149.72383
20
38.31655
0
LWPOLYLINE
8
0
90
5
70
1
10
11.81656
20
92.65246
10
15.40286
20
92.96622
10
15.67304
20
89.87802
10
12.08674
20
89.56426
10
11.81656
20
92.65246
0
ENDSEC
0
EOF
