0
SECTION
2
ENTITIES
0
LWPOLYLINE
8
0
90
593
70
1
10
122.87909
20
94.09230
10
122.88027
20
94.12500
10
122.88038
20
94.15772
10
122.87942
20
94.19043
10
122.87739
20
94.22309
10
122.87429
20
94.25567
10
122.87012
20
94.28813
10
122.86490
20
94.32043
10
122.85862
20
94.35255
10
122.85130
20
94.38444
10
122.84293
20
94.41608
10
122.83354
20
94.44743
10
122.82312
20
94.47845
10
122.81169
20
94.50911
10
122.79927
20
94.53939
10
122.78586
20
94.56924
10
122.77149
20
94.59864
10
122.75616
20
94.62755
10
122.73989
20
94.65594
10
122.72270
20
94.68378
10
122.70461
20
94.71105
10
122.68563
20
94.73772
10
122.66580
20
94.76374
10
122.64512
20
94.78911
10
122.62362
20
94.81378
10
122.60133
20
94.83774
10
122.57827
20
94.86095
10
122.55446
20
94.88340
10
122.52993
20
94.90506
10
122.50470
20
94.92590
10
122.47880
20
94.94590
10
122.45226
20
94.96505
10
122.42511
20
94.98332
10
122.39738
20
95.00069
10
122.36909
20
95.01715
10
122.34029
20
95.03266
10
122.31098
20
95.04723
10
122.28122
20
95.06084
10
122.25103
20
95.07346
10
122.22044
20
95.08508
10
122.18949
20
95.09570
10
122.15820
20
95.10530
10
122.12662
20
95.11387
10
122.09478
20
95.12141
10
122.06270
20
95.12790
10
122.03043
20
95.13333
10
121.99800
20
95.13771
10
121.96545
20
95.14102
10
121.93280
20
95.14326
10
106.13341
20
95.97127
10
106.06884
20
95.97571
10
106.00445
20
95.98223
10
105.94030
20
95.99083
10
105.87647
20
96.00150
10
105.81302
20
96.01423
10
105.75001
20
96.02901
10
105.68751
20
96.04581
10
105.62558
20
96.06464
10
105.56430
20
96.08545
10
105.50373
20
96.10824
10
105.44392
20
96.13297
10
105.38495
20
96.15963
10
105.32687
20
96.18818
10
105.26974
20
96.21860
10
105.21362
20
96.25085
10
105.15858
20
96.28489
10
105.10467
20
96.32070
10
105.05195
20
96.35824
10
105.00047
20
96.39746
10
104.95028
20
96.43832
10
104.90145
20
96.48079
10
104.85401
20
96.52482
10
104.80802
20
96.57036
10
104.76353
20
96.61736
10
104.72059
20
96.66578
10
104.67923
20
96.71556
10
104.63950
20
96.76665
10
104.60145
20
96.81901
10
104.56512
20
96.87256
10
104.53053
20
96.92727
10
104.49773
20
96.98306
10
104.46676
20
97.03989
10
104.43764
20
97.09768
10
104.41041
20
97.15639
10
104.38508
20
97.21595
10
104.36170
20
97.27630
10
104.34029
20
97.33738
10
104.32086
20
97.39911
10
104.30344
20
97.46144
10
104.28804
20
97.52430
10
104.27469
20
97.58763
10
104.26339
20
97.65136
10
104.25417
20
97.71542
10
104.24701
20
97.77974
10
104.24195
20
97.84426
10
104.23897
20
97.90891
10
104.23809
20
97.97362
10
104.23930
20
98.03833
10
104.23930
20
116.02644
10
47.68110
20
116.02644
10
44.68110
20
128.75920
10
38.27738
20
128.75920
10
38.53013
20
125.87024
10
40.11637
20
107.73949
10
27.16584
20
106.60647
10
25.32685
20
127.62618
10
22.28110
20
127.62618
10
21.37811
20
126.73688
10
20.50615
20
125.83250
10
19.66447
20
124.91465
10
18.85234
20
123.98492
10
18.06900
20
123.04490
10
17.31372
20
122.09619
10
16.58574
20
121.14038
10
15.88434
20
120.17907
10
15.20876
20
119.21385
10
14.55826
20
118.24632
10
13.93210
20
117.27807
10
13.32954
20
116.31071
10
12.74982
20
115.34581
10
12.19222
20
114.38499
10
11.65598
20
113.42982
10
11.14036
20
112.48192
10
10.64462
20
111.54287
10
10.16801
20
110.61427
10
9.70980
20
109.69771
10
9.26924
20
108.79479
10
8.84558
20
107.90711
10
8.43808
20
107.03625
10
8.04600
20
106.18382
10
7.66860
20
105.35141
10
7.30513
20
104.54061
10
6.95485
20
103.75302
10
6.61701
20
102.99024
10
6.29088
20
102.25385
10
5.97571
20
101.54546
10
5.67075
20
100.86666
10
5.37526
20
100.21905
10
5.08851
20
99.60421
10
4.80974
20
99.02375
10
4.53821
20
98.47926
10
4.27318
20
97.97233
10
4.01391
20
97.50456
10
3.75965
20
97.07755
10
3.50967
20
96.69289
10
3.26320
20
96.35217
10
3.01953
20
96.05700
10
2.77789
20
95.80896
10
2.53755
20
95.60964
10
2.29776
20
95.46066
10
2.05778
20
95.36359
10
1.81687
20
95.32005
10
1.57428
20
95.33161
10
1.32927
20
95.39987
10
1.08110
20
95.52644
10
1.04386
20
95.53778
10
1.00716
20
95.54683
10
0.97099
20
95.55366
10
0.93538
20
95.55833
10
0.90034
20
95.56089
10
0.86587
20
95.56140
10
0.83198
20
95.55993
10
0.79869
20
95.55653
10
0.76601
20
95.55127
10
0.73395
20
95.54420
10
0.70252
20
95.53538
10
0.67172
20
95.52488
10
0.64158
20
95.51275
10
0.61210
20
95.49905
10
0.58330
20
95.48384
10
0.55517
20
95.46718
10
0.52775
20
95.44914
10
0.50102
20
95.42976
10
0.47501
20
95.40912
10
0.44973
20
95.38726
10
0.42519
20
95.36426
10
0.40140
20
95.34016
10
0.37836
20
95.31504
10
0.35610
20
95.28894
10
0.33462
20
95.26193
10
0.31393
20
95.23407
10
0.29404
20
95.20542
10
0.27497
20
95.17604
10
0.25672
20
95.14598
10
0.23930
20
95.11531
10
0.22274
20
95.08409
10
0.20703
20
95.05237
10
0.19218
20
95.02022
10
0.17822
20
94.98769
10
0.16515
20
94.95485
10
0.15297
20
94.92175
10
0.14171
20
94.88846
10
0.13137
20
94.85504
10
0.12197
20
94.82153
10
0.11351
20
94.78802
10
0.10600
20
94.75454
10
0.09946
20
94.72117
10
0.09389
20
94.68796
10
0.08932
20
94.65497
10
0.08574
20
94.62227
10
0.08317
20
94.58990
10
0.08162
20
94.55794
10
0.08110
20
94.52644
10
0.07926
20
94.44677
10
0.07422
20
94.21198
10
0.06667
20
93.82840
10
0.05731
20
93.30238
10
0.04685
20
92.64025
10
0.03598
20
91.84834
10
0.02540
20
90.93301
10
0.01581
20
89.90058
10
0.00792
20
88.75739
10
0.00241
20
87.50979
10
0.00000
20
86.16410
10
0.00138
20
84.72666
10
0.00725
20
83.20382
10
0.01831
20
81.60190
10
0.03526
20
79.92726
10
0.05880
20
78.18622
10
0.08963
20
76.38512
10
0.12845
20
74.53030
10
0.17596
20
72.62810
10
0.23285
20
70.68486
10
0.29984
20
68.70691
10
0.37761
20
66.70059
10
0.46688
20
64.67224
10
0.56833
20
62.62819
10
0.68267
20
60.57479
10
0.81060
20
58.51836
10
0.95281
20
56.46526
10
1.11001
20
54.42181
10
1.28290
20
52.39435
10
1.47217
20
50.38923
10
1.67853
20
48.41277
10
1.90268
20
46.47133
10
2.14531
20
44.57122
10
2.40713
20
42.71879
10
2.68884
20
40.92039
10
2.99112
20
39.18234
10
3.31470
20
37.51098
10
3.66026
20
35.91266
10
4.02850
20
34.39371
10
4.42013
20
32.96046
10
4.83584
20
31.61925
10
5.27633
20
30.37643
10
5.74231
20
29.23833
10
6.23447
20
28.21128
10
6.75351
20
27.30163
10
7.30014
20
26.51571
10
7.87505
20
25.85987
10
8.47894
20
25.34042
10
8.48212
20
25.32047
10
8.48597
20
25.30064
10
8.49048
20
25.28095
10
8.49564
20
25.26142
10
8.50144
20
25.24207
10
8.50788
20
25.22293
10
8.51495
20
25.20401
10
8.52265
20
25.18533
10
8.53096
20
25.16692
10
8.53988
20
25.14880
10
8.54940
20
25.13098
10
8.55950
20
25.11349
10
8.57018
20
25.09635
10
8.58142
20
25.07956
10
8.59322
20
25.06316
10
8.60555
20
25.04717
10
8.61840
20
25.03158
10
8.63177
20
25.01644
10
8.64563
20
25.00175
10
8.65997
20
24.98752
10
8.67478
20
24.97378
10
8.69003
20
24.96054
10
8.70572
20
24.94781
10
8.72182
20
24.93561
10
8.73831
20
24.92395
10
8.75518
20
24.91285
10
8.77242
20
24.90231
10
8.78999
20
24.89235
10
8.80788
20
24.88298
10
8.82608
20
24.87421
10
8.84456
20
24.86604
10
8.86329
20
24.85850
10
8.88227
20
24.85158
10
8.90147
20
24.84529
10
8.92086
20
24.83965
10
8.94044
20
24.83465
10
8.96016
20
24.83031
10
8.98002
20
24.82662
10
8.99999
20
24.82360
10
9.02006
20
24.82124
10
9.04018
20
24.81954
10
9.06036
20
24.81852
10
9.08055
20
24.81817
10
9.10075
20
24.81848
10
9.12093
20
24.81947
10
9.14106
20
24.82113
10
9.16112
20
24.82345
10
9.18110
20
24.82644
10
11.43188
20
25.02669
10
13.58581
20
25.22738
10
15.64524
20
25.42842
10
17.61252
20
25.62974
10
19.49003
20
25.83126
10
21.28012
20
26.03289
10
22.98516
20
26.23455
10
24.60749
20
26.43617
10
26.14948
20
26.63765
10
27.61350
20
26.83892
10
29.00190
20
27.03990
10
30.31704
20
27.24051
10
31.56128
20
27.44065
10
32.73698
20
27.64027
10
33.84650
20
27.83926
10
34.89221
20
28.03755
10
35.87646
20
28.23507
10
36.80161
20
28.43172
10
37.67002
20
28.62742
10
38.48405
20
28.82210
10
39.24607
20
29.01568
10
39.95842
20
29.20806
10
40.62348
20
29.39918
10
41.24360
20
29.58894
10
41.82114
20
29.77728
10
42.35847
20
29.96409
10
42.85793
20
30.14932
10
43.32190
20
30.33287
10
43.75273
20
30.51466
10
44.15278
20
30.69461
10
44.52441
20
30.87264
10
44.86999
20
31.04866
10
45.19187
20
31.22261
10
45.49241
20
31.39439
10
45.77397
20
31.56392
10
46.03891
20
31.73113
10
46.28960
20
31.89593
10
46.52839
20
32.05823
10
46.75764
20
32.21797
10
46.97971
20
32.37505
10
47.19697
20
32.52940
10
47.41176
20
32.68093
10
47.62646
20
32.82957
10
47.84343
20
32.97523
10
48.06501
20
33.11782
10
48.29358
20
33.25728
10
48.53149
20
33.39351
10
48.78110
20
33.52644
10
49.05076
20
33.65842
10
49.34725
20
33.79164
10
49.67058
20
33.92578
10
50.02075
20
34.06052
10
50.39777
20
34.19555
10
50.80164
20
34.33053
10
51.23237
20
34.46516
10
51.68997
20
34.59910
10
52.17444
20
34.73204
10
52.68579
20
34.86366
10
53.22402
20
34.99364
10
53.78915
20
35.12166
10
54.38117
20
35.24740
10
55.00010
20
35.37053
10
55.64594
20
35.49074
10
56.31870
20
35.60770
10
57.01838
20
35.72110
10
57.74498
20
35.83062
10
58.49853
20
35.93593
10
59.27901
20
36.03671
10
60.08645
20
36.13265
10
60.92083
20
36.22342
10
61.78218
20
36.30871
10
62.67049
20
36.38819
10
63.58578
20
36.46154
10
64.52805
20
36.52844
10
65.49730
20
36.58858
10
66.49354
20
36.64162
10
67.51678
20
36.68726
10
68.56702
20
36.72517
10
69.64428
20
36.75502
10
70.74855
20
36.77651
10
71.87984
20
36.78930
10
73.03817
20
36.79309
10
74.22353
20
36.78754
10
75.43593
20
36.77234
10
76.67538
20
36.74716
10
77.94188
20
36.71170
10
79.23544
20
36.66561
10
80.55607
20
36.60860
10
81.90377
20
36.54033
10
83.27855
20
36.46049
10
84.68042
20
36.36875
10
86.10938
20
36.26479
10
87.56543
20
36.14830
10
89.04859
20
36.01896
10
90.55886
20
35.87643
10
92.09625
20
35.72041
10
92.11749
20
35.72306
10
92.13881
20
35.72495
10
92.16019
20
35.72608
10
92.18160
20
35.72644
10
92.20300
20
35.72604
10
92.22438
20
35.72488
10
92.24570
20
35.72295
10
92.26694
20
35.72027
10
92.28806
20
35.71683
10
92.30906
20
35.71264
10
92.32989
20
35.70770
10
92.35053
20
35.70202
10
92.37095
20
35.69561
10
92.39114
20
35.68848
10
92.41105
20
35.68063
10
92.43068
20
35.67207
10
92.44998
20
35.66282
10
92.46895
20
35.65289
10
92.48754
20
35.64228
10
92.50575
20
35.63102
10
92.52354
20
35.61912
10
92.54090
20
35.60659
10
92.55780
20
35.59345
10
92.57422
20
35.57971
10
92.59014
20
35.56540
10
92.60554
20
35.55053
10
92.62040
20
35.53512
10
92.63470
20
35.51919
10
92.64842
20
35.50276
10
92.66155
20
35.48585
10
92.67406
20
35.46848
10
92.68595
20
35.45067
10
92.69719
20
35.43246
10
92.70778
20
35.41385
10
92.71770
20
35.39488
10
92.72694
20
35.37557
10
92.73548
20
35.35594
10
92.74331
20
35.33601
10
92.75043
20
35.31583
10
92.75682
20
35.29539
10
92.76248
20
35.27475
10
92.76740
20
35.25392
10
92.77158
20
35.23292
10
92.77500
20
35.21179
10
92.77767
20
35.19055
10
92.77957
20
35.16922
10
92.78072
20
35.14785
10
92.78110
20
35.12644
10
92.29958
20
19.63872
10
92.29053
20
19.60727
10
92.28251
20
19.57555
10
92.27553
20
19.54358
10
92.26960
20
19.51139
10
92.26473
20
19.47904
10
92.26092
20
19.44653
10
92.25817
20
19.41393
10
92.25650
20
19.38125
10
92.25589
20
19.34853
10
92.25636
20
19.31581
10
92.25789
20
19.28312
10
92.26049
20
19.25050
10
92.26416
20
19.21798
10
92.26889
20
19.18561
10
92.27468
20
19.15340
10
92.28152
20
19.12140
10
92.28940
20
19.08964
10
92.29832
20
19.05815
10
92.30826
20
19.02698
10
92.31922
20
18.99614
10
92.33118
20
18.96568
10
92.34413
20
18.93563
10
92.35806
20
18.90602
10
92.37294
20
18.87688
10
92.38878
20
18.84824
10
92.40554
20
18.82014
10
92.42321
20
18.79260
10
92.44178
20
18.76565
10
92.46121
20
18.73932
10
92.48150
20
18.71364
10
92.50261
20
18.68865
10
92.52454
20
18.66435
10
92.54724
20
18.64079
10
92.57071
20
18.61798
10
92.59490
20
18.59595
10
92.61981
20
18.57473
10
92.64540
20
18.55433
10
92.67164
20
18.53478
10
92.69850
20
18.51609
10
92.72597
20
18.49830
10
92.75400
20
18.48142
10
92.78257
20
18.46546
10
92.81164
20
18.45044
10
92.84119
20
18.43639
10
92.87119
20
18.42330
10
92.90159
20
18.41121
10
92.93238
20
18.40012
10
92.96351
20
18.39004
10
148.21599
20
0.06638
10
148.24673
20
0.05516
10
148.27782
20
0.04495
10
148.30923
20
0.03576
10
148.34092
20
0.02760
10
148.37286
20
0.02048
10
148.40501
20
0.01442
10
148.43735
20
0.00941
10
148.46983
20
0.00545
10
148.50243
20
0.00257
10
148.53510
20
0.00075
10
148.56781
20
0.00000
10
148.60054
20
0.00032
10
148.63323
20
0.00171
10
148.66586
20
0.00418
10
148.69839
20
0.00770
10
148.73079
20
0.01229
10
148.76302
20
0.01794
10
148.79505
20
0.02464
10
148.82685
20
0.03238
10
148.85837
20
0.04116
10
148.88959
20
0.05097
10
148.92047
20
0.06179
10
148.95098
20
0.07362
10
148.98109
20
0.08644
10
149.01076
20
0.10023
10
149.03997
20
0.11499
10
149.06867
20
0.13070
10
149.09685
20
0.14734
10
149.12447
20
0.16489
10
149.15150
20
0.18334
10
149.17791
20
0.20266
10
149.20367
20
0.22283
10
149.22876
20
0.24384
10
149.25315
20
0.26566
10
149.27682
20
0.28826
10
149.29973
20
0.31162
10
149.32186
20
0.33572
10
149.34319
20
0.36054
10
149.36370
20
0.38603
10
149.38337
20
0.41219
10
149.40217
20
0.43897
10
149.42008
20
0.46636
10
149.43709
20
0.49431
10
149.45317
20
0.52281
10
149.46832
20
0.55182
10
149.48250
20
0.58131
10
149.49571
20
0.61124
10
149.50794
20
0.64160
10
163.48429
20
37.05123
10
163.49552
20
37.08197
10
163.50573
20
37.11306
10
163.51493
20
37.14447
10
163.52309
20
37.17616
10
163.53021
20
37.20810
10
163.53628
20
37.24025
10
163.54129
20
37.27259
10
163.54524
20
37.30507
10
163.54813
20
37.33767
10
163.54995
20
37.37034
10
163.55070
20
37.40306
10
163.55038
20
37.43578
10
163.54899
20
37.46848
10
163.54653
20
37.50111
10
163.54301
20
37.53364
10
163.53842
20
37.56604
10
163.53277
20
37.59827
10
163.52607
20
37.63031
10
163.51833
20
37.66210
10
163.50955
20
37.69362
10
163.49974
20
37.72484
10
163.48892
20
37.75573
10
163.47709
20
37.78624
10
163.46428
20
37.81635
10
163.45048
20
37.84602
10
163.43572
20
37.87523
10
163.42001
20
37.90393
10
163.40337
20
37.93211
10
163.38582
20
37.95973
10
163.36737
20
37.98676
10
163.34805
20
38.01317
10
163.32787
20
38.03893
10
163.30686
20
38.06402
10
163.28505
20
38.08841
10
163.26244
20
38.11208
10
163.23908
20
38.13499
10
163.21497
20
38.15712
10
163.19016
20
38.17845
10
163.16466
20
38.19896
10
163.13850
20
38.21863
10
163.11172
20
38.23743
10
163.08433
20
38.25534
10
163.05637
20
38.27234
10
163.02787
20
38.28842
10
162.99886
20
38.30357
10
162.96937
20
38.31775
10
162.93943
20
38.33096
10
162.90908
20
38.34318
10
120.94266
20
52.52644
10
122.87909
20
94.09230
10
122.87909
20
94.09230
0
LWPOLYLINE
8
0
90
5
70
1
10
106.32673
20
32.34268
10
109.76942
20
31.29014
10
108.86307
20
28.32560
10
105.42037
20
29.37814
10
106.32673
20
32.34268
0
LWPOLYLINE
8
0
90
5
70
1
10
90.53429
20
86.67402
10
94.13210
20
86.54838
10
94.02391
20
83.45027
10
90.42610
20
83.57590
10
90.53429
20
86.67402
0
LWPOLYLINE
8
0
90
5
70
1
10
13.29826
20
75.71706
10
16.88456
20
76.03082
10
17.15474
20
72.94262
10
13.56844
20
72.62886
10
13.29826
20
75.71706
0
LWPOLYLINE
8
0
90
5
70
1
10
16.26156
20
41.84646
10
19.84786
20
42.16022
10
20.11804
20
39.07202
10
16.53174
20
38.75826
10
16.26156
20
41.84646
0
LWPOLYLINE
8
0
90
5
70
1
10
32.40636
20
63.83726
10
35.99266
20
64.15102
10
36.26284
20
61.06282
10
32.67654
20
60.74906
10
32.40636
20
63.83726
0
LWPOLYLINE
8
0
90
5
70
1
10
51.19665
20
69.04341
10
54.79171
20
69.23182
10
54.95395
20
66.13607
10
51.35889
20
65.94766
10
51.19665
20
69.04341
0
LWPOLYLINE
8
0
90
5
70
1
10
52.08635
20
52.06671
10
55.68141
20
52.25512
10
55.84365
20
49.15937
10
52.24859
20
48.97096
10
52.08635
20
52.06671
0
LWPOLYLINE
8
0
90
5
70
1
10
70.76850
20
56.13574
10
74.36850
20
56.13574
10
74.36850
20
53.03574
10
70.76850
20
53.03574
10
70.76850
20
56.13574
0
LWPOLYLINE
8
0
90
5
70
1
10
130.90930
20
44.74482
10
134.31316
20
43.57277
10
133.30390
20
40.64167
10
129.90004
20
41.81371
10
130.90930
20
44.74482
0
LWPOLYLINE
8
0
90
5
70
1
10
91.12759
20
103.66362
10
94.72540
20
103.53798
10
94.61721
20
100.43987
10
91.01940
20
100.56550
10
91.12759
20
103.66362
0
LWPOLYLINE
8
0
90
5
70
1
10
142.91483
20
20.57855
10
146.27571
20
19.28843
10
145.16477
20
16.39433
10
141.80388
20
17.68445
10
142.91483
20
20.57855
0
LWPOLYLINE
8
0
90
5
70
1
10
30.92466
20
80.77256
10
34.51096
20
81.08632
10
34.78114
20
77.99812
10
31.19484
20
77.68436
10
30.92466
20
80.77256
0
LWPOLYLINE
8
0
90
5
70
1
10
70.76850
20
90.13574
10
74.36850
20
90.13574
10
74.36850
20
87.03574
10
70.76850
20
87.03574
10
70.76850
20
90.13574
0
LWPOLYLINE
8
0
90
5
70
1
10
108.51139
20
74.06682
10
112.10645
20
73.87841
10
111.94421
20
70.78266
10
108.34915
20
70.97107
10
108.51139
20
74.06682
0
LWPOLYLINE
8
0
90
5
70
1
10
109.40109
20
91.04352
10
112.99615
20
90.85511
10
112.83391
20
87.75936
10
109.23885
20
87.94777
10
109.40109
20
91.04352
0
LWPOLYLINE
8
0
90
5
70
1
10
89.34779
20
52.69472
10
92.94560
20
52.56908
10
92.83741
20
49.47097
10
89.23960
20
49.59660
10
89.34779
20
52.69472
0
LWPOLYLINE
8
0
90
5
70
1
10
70.76850
20
73.13574
10
74.36850
20
73.13574
10
74.36850
20
70.03574
10
70.76850
20
70.03574
10
70.76850
20
73.13574
0
LWPOLYLINE
8
0
90
5
70
1
10
33.88796
20
46.90196
10
37.47426
20
47.21572
10
37.74444
20
44.12752
10
34.15814
20
43.81376
10
33.88796
20
46.90196
0
LWPOLYLINE
8
0
90
5
70
1
10
111.88183
20
50.51248
10
115.32452
20
49.45994
10
114.41817
20
46.49540
10
110.97547
20
47.54794
10
111.88183
20
50.51248
0
LWPOLYLINE
8
0
90
5
70
1
10
49.41715
20
102.99681
10
53.01221
20
103.18522
10
53.17445
20
100.08947
10
49.57939
20
99.90106
10
49.41715
20
102.99681
0
LWPOLYLINE
8
0
90
5
70
1
10
124.72350
20
26.77992
10
128.12736
20
25.60787
10
127.11810
20
22.67677
10
123.71424
20
23.84881
10
124.72350
20
26.77992
0
LWPOLYLINE
8
0
90
5
70
1
10
29.44306
20
97.70786
10
33.02936
20
98.02162
10
33.29954
20
94.93342
10
29.71324
20
94.61966
10
29.44306
20
97.70786
0
LWPOLYLINE
8
0
90
5
70
1
10
89.94109
20
69.68432
10
93.53890
20
69.55868
10
93.43071
20
66.46057
10
89.83290
20
66.58620
10
89.94109
20
69.68432
0
LWPOLYLINE
8
0
90
5
70
1
10
70.76850
20
107.13574
10
74.36850
20
107.13574
10
74.36850
20
104.03574
10
70.76850
20
104.03574
10
70.76850
20
107.13574
0
LWPOLYLINE
8
0
90
5
70
1
10
50.30695
20
86.02011
10
53.90201
20
86.20852
10
54.06425
20
83.11277
10
50.46919
20
82.92436
10
50.30695
20
86.02011
0
LWPOLYLINE
8
0
90
5
70
1
10
14.77986
20
58.78176
10
18.36616
20
59.09552
10
18.63634
20
56.00732
10
15.05004
20
55.69356
10
14.77986
20
58.78176
0
LWPOLYLINE
8
0
90
5
70
1
10
149.72383
20
38.31655
10
153.08471
20
37.02643
10
151.97377
20
34.13233
10
148.61288
20
35.42245
10
149.72383
20
38.31655
0
LWPOLYLINE
8
0
90
5
70
1
10
11.81656
20
92.65246
10
15.40286
20
92.96622
10
15.67304
20
89.87802
10
12.08674
20
89.56426
10
11.81656
20
92.65246
0
ENDSEC
0
EOF
