M48
; DRILL file KiCad 10.0.6 date 2026-09-29T08:16:58
; FORMAT={-:-/ absolute / metric / decimal}
; #@! TF.CreationDate,2026-09-29T08:16:58+02:00
; #@! TF.GenerationSoftware,Kicad,Pcbnew,10.0.6
; #@! TF.FileFunction,Plated,1,2,PTH
FMAT,2
METRIC
; #@! TA.AperFunction,Plated,PTH,ViaDrill
T1C0.300
; #@! TA.AperFunction,Plated,PTH,ComponentDrill
T2C0.600
; #@! TA.AperFunction,Plated,PTH,ComponentDrill
T3C1.000
%
G90
G05
T1
X73.274Y-70.974
X75.565Y-86.781
X76.164Y-65.024
X76.428Y-63.835
X76.834Y-102.383
X77.293Y-78.649
X77.646Y-81.959
X77.7Y-95.4
X78.489Y-120.61
X78.6Y-59.2
X78.6Y-94.6
X79.0Y-77.4
X79.8Y-99.5
X80.402Y-76.391
X80.5Y-100.031
X80.873Y-114.641
X80.883Y-116.081
X80.9Y-94.8
X82.055Y-93.51
X83.3Y-55.4
X84.031Y-49.969
X84.288Y-123.67
X84.4Y-78.1
X84.479Y-83.522
X84.5Y-58.0
X84.899Y-63.688
X86.0Y-47.3
X86.0Y-62.5
X86.378Y-100.494
X86.6Y-81.7
X86.6Y-95.3
X87.391Y-117.688
X87.397Y-110.448
X88.398Y-116.112
X88.828Y-60.909
X89.103Y-64.209
X90.296Y-78.226
X90.598Y-81.529
X90.906Y-65.932
X91.776Y-94.795
X92.067Y-98.079
X93.16Y-76.992
X93.255Y-111.733
X93.538Y-115.024
X94.279Y-58.467
X94.362Y-60.388
X95.4Y-74.2
X95.546Y-77.155
X95.774Y-75.27
X96.427Y-105.979
X97.217Y-122.247
X97.257Y-92.315
X98.2Y-54.1
X98.212Y-71.518
X98.349Y-109.585
X98.557Y-106.205
X98.807Y-111.194
X99.069Y-94.731
X99.472Y-88.271
X100.5Y-52.7
X100.919Y-56.686
X101.4Y-53.2
X102.6Y-57.8
X103.1Y-60.1
X103.179Y-71.421
X103.2Y-73.1
X103.769Y-75.806
X104.341Y-77.153
X104.84Y-94.034
X105.247Y-92.899
X105.364Y-107.511
X105.474Y-111.8
X105.504Y-105.344
X105.628Y-72.973
X106.074Y-118.015
X106.192Y-57.035
X106.727Y-59.156
X107.134Y-77.418
X107.145Y-108.441
X107.145Y-109.641
X107.317Y-49.457
X107.379Y-56.767
X108.184Y-88.976
X108.7Y-108.5
X108.825Y-106.029
X108.869Y-110.506
X109.4Y-58.3
X109.688Y-93.029
X110.8Y-74.0
X111.246Y-58.986
X111.5Y-68.0
X112.138Y-73.94
X112.6Y-48.9
X113.027Y-91.924
X113.684Y-54.654
X113.7Y-49.3
X113.8Y-51.6
X114.0Y-88.6
X114.046Y-110.219
X114.245Y-53.014
X114.345Y-71.3
X114.7Y-59.366
X114.8Y-47.9
X114.8Y-104.2
X115.137Y-69.997
X115.737Y-87.441
X115.8Y-57.367
X116.373Y-104.418
X117.779Y-89.499
X118.514Y-83.149
X118.7Y-101.3
X120.4Y-67.6
X120.874Y-51.589
X121.014Y-62.025
X121.369Y-73.677
X121.5Y-102.0
X121.8Y-67.6
X122.3Y-53.7
X122.598Y-95.978
X122.8Y-84.1
X123.377Y-89.12
X123.677Y-50.695
X123.817Y-112.987
X123.9Y-101.7
X124.1Y-67.1
X124.252Y-87.432
X125.0Y-83.1
X125.067Y-68.368
X125.9Y-89.6
X126.0Y-86.6
X126.448Y-51.315
X126.603Y-54.593
X126.843Y-102.327
X127.242Y-72.308
X128.23Y-84.855
X128.395Y-88.158
X129.275Y-105.526
X130.5Y-80.9
X131.212Y-72.826
X131.212Y-106.823
X131.3Y-62.1
X133.7Y-66.6
X134.397Y-60.305
X135.378Y-50.654
X135.378Y-101.654
X135.504Y-48.658
X135.504Y-65.984
X135.504Y-82.984
X135.504Y-99.643
X135.6Y-68.5
X136.212Y-95.92
X136.244Y-90.445
X136.253Y-102.934
X137.232Y-85.362
X140.1Y-114.2
X140.829Y-75.013
X141.7Y-80.4
X141.727Y-109.03
X142.1Y-44.0
X142.1Y-64.7
X142.187Y-62.822
X142.187Y-98.717
X142.2Y-47.0
X142.413Y-68.421
X142.837Y-85.267
X143.2Y-97.4
X143.6Y-82.2
X143.764Y-83.541
X143.8Y-47.8
X143.801Y-65.6
X144.2Y-63.0
X144.3Y-98.8
X145.536Y-50.731
X145.581Y-64.696
X145.754Y-99.342
X145.763Y-51.639
X146.258Y-83.838
X146.487Y-82.443
X146.89Y-46.536
X147.525Y-100.843
X147.66Y-68.587
X150.247Y-93.163
X151.226Y-65.697
X152.517Y-114.608
X152.7Y-85.7
X153.0Y-68.3
X153.254Y-109.96
X153.305Y-99.14
X153.5Y-71.8
X154.0Y-104.4
X154.2Y-88.3
X154.3Y-84.1
X154.911Y-69.745
X155.259Y-105.586
X155.792Y-76.913
X155.853Y-88.598
X155.886Y-52.146
X156.3Y-71.9
X156.7Y-56.0
X156.8Y-50.1
X158.075Y-61.775
X158.65Y-45.167
X160.7Y-48.1
X160.8Y-107.7
X160.855Y-116.651
X160.9Y-45.2
X160.977Y-101.952
X161.053Y-89.028
X161.278Y-78.861
X161.448Y-99.568
X161.8Y-84.7
X161.9Y-67.4
X161.908Y-104.726
X162.202Y-72.629
X162.3Y-102.8
X162.51Y-87.783
X162.9Y-102.0
X163.7Y-54.9
X164.0Y-51.7
X164.0Y-100.1
X164.875Y-89.432
X165.16Y-106.57
X165.275Y-101.273
X165.566Y-69.162
X165.921Y-51.451
X166.346Y-72.941
X166.72Y-58.675
X166.992Y-85.093
X167.122Y-55.567
X167.15Y-40.667
X167.832Y-93.616
X168.677Y-88.724
X169.419Y-71.743
X170.798Y-122.878
X171.045Y-131.498
X171.727Y-125.872
X172.121Y-80.047
X172.328Y-76.919
X172.889Y-80.699
X173.909Y-64.73
X174.004Y-66.933
X174.532Y-132.824
X174.858Y-84.381
X175.0Y-122.1
X176.041Y-127.623
X176.131Y-103.88
X176.607Y-113.325
X177.543Y-107.88
X178.047Y-127.336
X178.822Y-91.154
X179.385Y-119.802
X179.6Y-125.6
X180.033Y-128.922
X180.456Y-84.568
X180.661Y-78.363
X181.147Y-83.284
X181.596Y-109.454
X182.152Y-67.687
X182.237Y-66.706
X182.4Y-103.8
X182.696Y-123.95
X183.101Y-84.277
X183.313Y-81.168
X183.6Y-105.7
X183.602Y-109.203
X184.011Y-67.506
X186.2Y-120.6
X186.268Y-64.883
X186.6Y-128.4
X187.2Y-81.6
X187.286Y-108.936
X187.6Y-126.4
X188.47Y-106.01
X189.184Y-128.352
X189.3Y-115.2
X190.5Y-126.9
X190.5Y-138.1
X193.153Y-123.506
X193.7Y-109.2
X193.9Y-110.2
X195.037Y-120.148
X195.39Y-133.119
X197.069Y-131.516
X198.149Y-126.958
X199.055Y-130.551
X199.5Y-144.1
X199.883Y-132.914
X201.4Y-115.9
X202.631Y-114.1
X203.356Y-120.834
X204.3Y-127.1
X204.5Y-129.5
X206.9Y-137.4
X207.356Y-134.339
X210.2Y-144.545
X212.261Y-122.375
X212.6Y-140.8
X212.8Y-114.5
X212.918Y-119.688
X213.454Y-139.441
X213.639Y-118.115
X214.5Y-135.3
X214.583Y-138.631
X215.1Y-141.5
X215.7Y-113.4
X216.0Y-126.668
X217.197Y-142.0
X218.379Y-134.0
X219.593Y-121.645
X219.712Y-123.18
X221.387Y-120.892
X222.7Y-118.8
X222.761Y-122.349
X224.009Y-118.992
T3
X77.829Y-50.842
X79.286Y-48.761
X80.743Y-46.681
X82.2Y-44.6
X83.657Y-42.519
X91.321Y-29.34
X91.543Y-31.871
X91.764Y-34.401
X91.985Y-36.931
X92.207Y-39.462
X92.428Y-41.992
X92.649Y-44.522
X92.871Y-47.053
X93.092Y-49.583
X95.623Y-49.362
X98.153Y-49.14
X100.683Y-48.919
X103.214Y-48.698
X105.744Y-48.476
X106.503Y-28.012
X106.725Y-30.543
X106.946Y-33.073
X107.167Y-35.603
X107.389Y-38.134
X107.61Y-40.664
X107.831Y-43.194
X108.053Y-45.725
X108.274Y-48.255
T2
G00X157.65Y-45.167
M15
G01X157.05Y-45.167
M16
G05
G00X159.15Y-40.667
M15
G01X158.55Y-40.667
M16
G05
G00X163.15Y-40.667
M15
G01X162.55Y-40.667
M16
G05
G00X166.15Y-40.667
M15
G01X165.55Y-40.667
M16
G05
G00X166.15Y-46.167
M15
G01X165.55Y-46.167
M16
G05
M30
