%TF.GenerationSoftware,KiCad,Pcbnew,10.0.6*%
%TF.CreationDate,2026-09-29T08:17:03+02:00*%
%TF.ProjectId,main_pcb,6d61696e-5f70-4636-922e-6b696361645f,v1.0.0*%
%TF.SameCoordinates,Original*%
%TF.FileFunction,Paste,Top*%
%TF.FilePolarity,Positive*%
%FSLAX46Y46*%
G04 Gerber Fmt 4.6, Leading zero omitted, Abs format (unit mm)*
G04 Created by KiCad (PCBNEW 10.0.6) date 2026-09-29 08:17:03*
%MOMM*%
%LPD*%
G01*
G04 APERTURE LIST*
G04 Aperture macros list*
%AMRoundRect*
0 Rectangle with rounded corners*
0 $1 Rounding radius*
0 $2 $3 $4 $5 $6 $7 $8 $9 X,Y pos of 4 corners*
0 Add a 4 corners polygon primitive as box body*
4,1,4,$2,$3,$4,$5,$6,$7,$8,$9,$2,$3,0*
0 Add four circle primitives for the rounded corners*
1,1,$1+$1,$2,$3*
1,1,$1+$1,$4,$5*
1,1,$1+$1,$6,$7*
1,1,$1+$1,$8,$9*
0 Add four rect primitives between the rounded corners*
20,1,$1+$1,$2,$3,$4,$5,0*
20,1,$1+$1,$4,$5,$6,$7,0*
20,1,$1+$1,$6,$7,$8,$9,0*
20,1,$1+$1,$8,$9,$2,$3,0*%
%AMRotRect*
0 Rectangle, with rotation*
0 The origin of the aperture is its center*
0 $1 length*
0 $2 width*
0 $3 Rotation angle, in degrees counterclockwise*
0 Add horizontal line*
21,1,$1,$2,0,0,$3*%
%AMOutline5P*
0 Free polygon, 5 corners , with rotation*
0 The origin of the aperture is its center*
0 number of corners: always 5*
0 $1 to $10 corner X, Y*
0 $11 Rotation angle, in degrees counterclockwise*
0 create outline with 5 corners*
4,1,5,$1,$2,$3,$4,$5,$6,$7,$8,$9,$10,$1,$2,$11*%
%AMOutline6P*
0 Free polygon, 6 corners , with rotation*
0 The origin of the aperture is its center*
0 number of corners: always 6*
0 $1 to $12 corner X, Y*
0 $13 Rotation angle, in degrees counterclockwise*
0 create outline with 6 corners*
4,1,6,$1,$2,$3,$4,$5,$6,$7,$8,$9,$10,$11,$12,$1,$2,$13*%
%AMOutline7P*
0 Free polygon, 7 corners , with rotation*
0 The origin of the aperture is its center*
0 number of corners: always 7*
0 $1 to $14 corner X, Y*
0 $15 Rotation angle, in degrees counterclockwise*
0 create outline with 7 corners*
4,1,7,$1,$2,$3,$4,$5,$6,$7,$8,$9,$10,$11,$12,$13,$14,$1,$2,$15*%
%AMOutline8P*
0 Free polygon, 8 corners , with rotation*
0 The origin of the aperture is its center*
0 number of corners: always 8*
0 $1 to $16 corner X, Y*
0 $17 Rotation angle, in degrees counterclockwise*
0 create outline with 8 corners*
4,1,8,$1,$2,$3,$4,$5,$6,$7,$8,$9,$10,$11,$12,$13,$14,$15,$16,$1,$2,$17*%
G04 Aperture macros list end*
%ADD10RotRect,0.900000X1.200000X275.000000*%
%ADD11RotRect,0.900000X1.200000X249.000000*%
%ADD12RotRect,1.400000X1.000000X343.000000*%
%ADD13RotRect,0.900000X1.200000X268.000000*%
%ADD14RotRect,0.900000X1.200000X273.000000*%
%ADD15RotRect,1.400000X1.000000X358.000000*%
%ADD16RotRect,1.400000X1.000000X5.000000*%
%ADD17R,1.200000X0.900000*%
%ADD18RotRect,0.900000X1.200000X251.000000*%
%ADD19RotRect,1.400000X1.000000X3.000000*%
%ADD20RotRect,0.900000X1.200000X253.000000*%
%ADD21R,1.400000X1.000000*%
%ADD22RotRect,1.400000X1.000000X341.000000*%
%ADD23RoundRect,0.250000X-0.167867X0.544813X-0.569370X-0.028594X0.167867X-0.544813X0.569370X0.028594X0*%
%ADD24RotRect,0.900000X1.200000X267.000000*%
%ADD25RotRect,1.400000X1.000000X339.000000*%
%ADD26RotRect,1.400000X1.000000X357.000000*%
%ADD27Outline5P,-1.300000X1.300000X1.300000X1.300000X1.300000X-0.117000X0.117000X-1.300000X-1.300000X-1.300000X180.000000*%
%ADD28R,2.600000X2.600000*%
%ADD29Outline5P,-1.300000X1.300000X1.300000X1.300000X1.300000X-0.117000X0.117000X-1.300000X-1.300000X-1.300000X161.000000*%
%ADD30RotRect,2.600000X2.600000X161.000000*%
%ADD31Outline5P,-1.300000X1.300000X1.300000X1.300000X1.300000X-0.117000X0.117000X-1.300000X-1.300000X-1.300000X178.000000*%
%ADD32RotRect,2.600000X2.600000X178.000000*%
%ADD33Outline5P,-1.300000X1.300000X1.300000X1.300000X1.300000X-0.117000X0.117000X-1.300000X-1.300000X-1.300000X185.000000*%
%ADD34RotRect,2.600000X2.600000X185.000000*%
%ADD35Outline5P,-1.300000X1.300000X1.300000X1.300000X1.300000X-0.117000X0.117000X-1.300000X-1.300000X-1.300000X177.000000*%
%ADD36RotRect,2.600000X2.600000X177.000000*%
%ADD37Outline5P,-1.300000X1.300000X1.300000X1.300000X1.300000X-0.117000X0.117000X-1.300000X-1.300000X-1.300000X183.000000*%
%ADD38RotRect,2.600000X2.600000X183.000000*%
%ADD39Outline5P,-1.300000X1.300000X1.300000X1.300000X1.300000X-0.117000X0.117000X-1.300000X-1.300000X-1.300000X163.000000*%
%ADD40RotRect,2.600000X2.600000X163.000000*%
%ADD41Outline5P,-1.300000X1.300000X1.300000X1.300000X1.300000X-0.117000X0.117000X-1.300000X-1.300000X-1.300000X159.000000*%
%ADD42RotRect,2.600000X2.600000X159.000000*%
G04 APERTURE END LIST*
D10*
%TO.C,D6*%
X108256093Y-90006279D03*
X108543707Y-93293721D03*
%TD*%
%TO.C,D5*%
X109737793Y-106941579D03*
X110025407Y-110229021D03*
%TD*%
D11*
%TO.C,D28*%
X225188307Y-119561692D03*
X224005693Y-122642508D03*
%TD*%
D10*
%TO.C,D8*%
X105292793Y-56135679D03*
X105580407Y-59423121D03*
%TD*%
%TO.C,D7*%
X106774493Y-73070979D03*
X107062107Y-76358421D03*
%TD*%
D12*
%TO.C,LED23*%
X177300483Y-124812290D03*
X176891163Y-126151117D03*
X171727117Y-124572310D03*
X172136437Y-123233483D03*
%TD*%
D13*
%TO.C,D18*%
X165868384Y-85256405D03*
X165753216Y-88554395D03*
%TD*%
D14*
%TO.C,D11*%
X126192546Y-68135861D03*
X126365254Y-71431339D03*
%TD*%
D15*
%TO.C,LED19*%
X161920785Y-69358955D03*
X161871926Y-70758102D03*
X156475215Y-70569645D03*
X156524074Y-69170498D03*
%TD*%
D11*
%TO.C,D27*%
X218379307Y-137299792D03*
X217196693Y-140380608D03*
%TD*%
D16*
%TO.C,LED3*%
X84774117Y-79763943D03*
X84896135Y-81158616D03*
X79516683Y-81629257D03*
X79394665Y-80234584D03*
%TD*%
D17*
%TO.C,D16*%
X146687400Y-47490700D03*
X146687400Y-50790700D03*
%TD*%
D18*
%TO.C,D26*%
X206468087Y-112833594D03*
X205393713Y-115953806D03*
%TD*%
D16*
%TO.C,LED1*%
X87737417Y-113634543D03*
X87859435Y-115029216D03*
X82479983Y-115499857D03*
X82357965Y-114105184D03*
%TD*%
%TO.C,LED6*%
X103882217Y-91643743D03*
X104004235Y-93038416D03*
X98624783Y-93509057D03*
X98502765Y-92114384D03*
%TD*%
D19*
%TO.C,LED10*%
X122653865Y-86596352D03*
X122727135Y-87994434D03*
X117334535Y-88277048D03*
X117261265Y-86878966D03*
%TD*%
D10*
%TO.C,D4*%
X87666393Y-61191179D03*
X87954007Y-64478621D03*
%TD*%
D14*
%TO.C,D10*%
X127082246Y-85112561D03*
X127254954Y-88408039D03*
%TD*%
D13*
%TO.C,D20*%
X167054984Y-51277105D03*
X166939816Y-54575095D03*
%TD*%
D20*
%TO.C,D24*%
X187524413Y-106762797D03*
X186559587Y-109918603D03*
%TD*%
D18*
%TO.C,D25*%
X200282287Y-130798394D03*
X199207913Y-133918606D03*
%TD*%
D19*
%TO.C,LED9*%
X123543565Y-103573052D03*
X123616835Y-104971134D03*
X118224235Y-105253748D03*
X118150965Y-103855666D03*
%TD*%
D21*
%TO.C,LED13*%
X142187400Y-99740700D03*
X142187400Y-101140700D03*
X136787400Y-101140700D03*
X136787400Y-99740700D03*
%TD*%
D22*
%TO.C,LED26*%
X201806298Y-112550371D03*
X201350502Y-113874097D03*
X196244702Y-112116029D03*
X196700498Y-110792303D03*
%TD*%
D15*
%TO.C,LED20*%
X162514085Y-52369355D03*
X162465226Y-53768502D03*
X157068515Y-53580045D03*
X157117374Y-52180898D03*
%TD*%
D23*
%TO.C,REF\u002A\u002A*%
X89047152Y-47061696D03*
X87900000Y-48700000D03*
%TD*%
D24*
%TO.C,D22*%
X185328554Y-64054461D03*
X185155846Y-67349939D03*
%TD*%
D13*
%TO.C,D19*%
X166461684Y-68266805D03*
X166346516Y-71564795D03*
%TD*%
%TO.C,D17*%
X165275184Y-102246105D03*
X165160016Y-105544095D03*
%TD*%
D25*
%TO.C,LED27*%
X213730225Y-136854087D03*
X213228510Y-138161100D03*
X208187175Y-136225913D03*
X208688890Y-134918900D03*
%TD*%
D16*
%TO.C,LED7*%
X102400517Y-74708443D03*
X102522535Y-76103116D03*
X97143083Y-76573757D03*
X97021065Y-75179084D03*
%TD*%
D21*
%TO.C,LED15*%
X142187400Y-65740700D03*
X142187400Y-67140700D03*
X136787400Y-67140700D03*
X136787400Y-65740700D03*
%TD*%
D14*
%TO.C,D12*%
X125302846Y-51159161D03*
X125475554Y-54454639D03*
%TD*%
D26*
%TO.C,LED21*%
X179879635Y-82043966D03*
X179806365Y-83442048D03*
X174413765Y-83159434D03*
X174487035Y-81761352D03*
%TD*%
%TO.C,LED22*%
X180769335Y-65067266D03*
X180696065Y-66465348D03*
X175303465Y-66182734D03*
X175376735Y-64784652D03*
%TD*%
D15*
%TO.C,LED17*%
X160734285Y-103338255D03*
X160685426Y-104737402D03*
X155288715Y-104548945D03*
X155337574Y-103149798D03*
%TD*%
D10*
%TO.C,D1*%
X92111293Y-111997079D03*
X92398907Y-115284521D03*
%TD*%
D21*
%TO.C,LED14*%
X142187400Y-82740700D03*
X142187400Y-84140700D03*
X136787400Y-84140700D03*
X136787400Y-82740700D03*
%TD*%
D10*
%TO.C,D2*%
X90629693Y-95061779D03*
X90917307Y-98349221D03*
%TD*%
D16*
%TO.C,LED5*%
X105363817Y-108579043D03*
X105485835Y-109973716D03*
X100106383Y-110444357D03*
X99984365Y-109049684D03*
%TD*%
D12*
%TO.C,LED24*%
X182855583Y-106642490D03*
X182446263Y-107981317D03*
X177282217Y-106402510D03*
X177691537Y-105063683D03*
%TD*%
D19*
%TO.C,LED12*%
X120874365Y-52642952D03*
X120947635Y-54041034D03*
X115555035Y-54323648D03*
X115481765Y-52925566D03*
%TD*%
D22*
%TO.C,LED25*%
X195620498Y-130515271D03*
X195164702Y-131838997D03*
X190058902Y-130080929D03*
X190514698Y-128757203D03*
%TD*%
D16*
%TO.C,LED8*%
X100918917Y-57773143D03*
X101040935Y-59167816D03*
X95661483Y-59638457D03*
X95539465Y-58243784D03*
%TD*%
D24*
%TO.C,D21*%
X184438854Y-81031161D03*
X184266146Y-84326639D03*
%TD*%
D15*
%TO.C,LED18*%
X161327585Y-86348655D03*
X161278726Y-87747802D03*
X155882015Y-87559345D03*
X155930874Y-86160198D03*
%TD*%
D17*
%TO.C,D14*%
X146687400Y-81490700D03*
X146687400Y-84790700D03*
%TD*%
D23*
%TO.C,REF\u002A\u002A*%
X86547152Y-51061696D03*
X85400000Y-52700000D03*
%TD*%
D14*
%TO.C,D9*%
X127971946Y-102089261D03*
X128144654Y-105384739D03*
%TD*%
D21*
%TO.C,LED16*%
X142187400Y-48740700D03*
X142187400Y-50140700D03*
X136787400Y-50140700D03*
X136787400Y-48740700D03*
%TD*%
D10*
%TO.C,D3*%
X89147993Y-78126479D03*
X89435607Y-81413921D03*
%TD*%
D19*
%TO.C,LED11*%
X121764165Y-69619652D03*
X121837435Y-71017734D03*
X116444835Y-71300348D03*
X116371565Y-69902266D03*
%TD*%
D17*
%TO.C,D15*%
X146687400Y-64490700D03*
X146687400Y-67790700D03*
%TD*%
D20*
%TO.C,D23*%
X181969413Y-124932597D03*
X181004587Y-128088403D03*
%TD*%
D16*
%TO.C,LED2*%
X86255717Y-96699243D03*
X86377735Y-98093916D03*
X80998283Y-98564557D03*
X80876265Y-97169884D03*
%TD*%
D25*
%TO.C,LED28*%
X220539225Y-119116087D03*
X220037510Y-120423100D03*
X214996175Y-118487913D03*
X215497890Y-117180900D03*
%TD*%
D17*
%TO.C,D13*%
X146687400Y-98490700D03*
X146687400Y-101790700D03*
%TD*%
D16*
%TO.C,LED4*%
X83292417Y-62828543D03*
X83414435Y-64223216D03*
X78034983Y-64693857D03*
X77912965Y-63299184D03*
%TD*%
D27*
%TO.C,S14*%
X136212400Y-94090700D03*
D28*
X147762400Y-91890700D03*
%TD*%
D29*
%TO.C,S26*%
X192461596Y-121336800D03*
D30*
X204098586Y-123016971D03*
%TD*%
D31*
%TO.C,S19*%
X155553343Y-80493580D03*
D32*
X167173086Y-78698009D03*
%TD*%
D33*
%TO.C,S6*%
X98919139Y-103471294D03*
D34*
X110233445Y-100273016D03*
%TD*%
D35*
%TO.C,S22*%
X174208489Y-76089045D03*
D36*
X185857800Y-74496541D03*
%TD*%
D37*
%TO.C,S11*%
X116391287Y-81266746D03*
D38*
X127810319Y-78465281D03*
%TD*%
D39*
%TO.C,S23*%
X168268190Y-133919496D03*
D40*
X179956728Y-135192519D03*
%TD*%
D37*
%TO.C,S12*%
X115501587Y-64290046D03*
D38*
X126920619Y-61488581D03*
%TD*%
D33*
%TO.C,S7*%
X97437539Y-86535994D03*
D34*
X108751845Y-83337716D03*
%TD*%
D33*
%TO.C,S1*%
X82774339Y-125462094D03*
D34*
X94088645Y-122263816D03*
%TD*%
D37*
%TO.C,S9*%
X118170787Y-115220146D03*
D38*
X129589819Y-112418681D03*
%TD*%
D35*
%TO.C,S21*%
X173318789Y-93065745D03*
D36*
X184968100Y-91473241D03*
%TD*%
D39*
%TO.C,S24*%
X173823290Y-115749696D03*
D40*
X185511828Y-117022719D03*
%TD*%
D37*
%TO.C,S10*%
X117280987Y-98243446D03*
D38*
X128700019Y-95441981D03*
%TD*%
D27*
%TO.C,S16*%
X136212400Y-60090700D03*
D28*
X147762400Y-57890700D03*
%TD*%
D29*
%TO.C,S25*%
X186275796Y-139301600D03*
D30*
X197912786Y-140981771D03*
%TD*%
D33*
%TO.C,S5*%
X100400839Y-120406594D03*
D34*
X111715145Y-117208316D03*
%TD*%
D33*
%TO.C,S2*%
X81292739Y-108526794D03*
D34*
X92607045Y-105328516D03*
%TD*%
D27*
%TO.C,S13*%
X136212400Y-111090700D03*
D28*
X147762400Y-108890700D03*
%TD*%
D31*
%TO.C,S20*%
X156146643Y-63503880D03*
D32*
X167766386Y-61708309D03*
%TD*%
D31*
%TO.C,S18*%
X154960043Y-97483180D03*
D32*
X166579786Y-95687609D03*
%TD*%
D31*
%TO.C,S17*%
X154366743Y-114472780D03*
D32*
X165986486Y-112677209D03*
%TD*%
D41*
%TO.C,S27*%
X204084535Y-145308949D03*
D42*
X215655798Y-147394221D03*
%TD*%
D33*
%TO.C,S4*%
X78329439Y-74656194D03*
D34*
X89643745Y-71457916D03*
%TD*%
D33*
%TO.C,S8*%
X95955839Y-69600694D03*
D34*
X107270145Y-66402416D03*
%TD*%
D33*
%TO.C,S3*%
X79811039Y-91591494D03*
D34*
X91125345Y-88393216D03*
%TD*%
D27*
%TO.C,S15*%
X136212400Y-77090700D03*
D28*
X147762400Y-74890700D03*
%TD*%
D41*
%TO.C,S28*%
X210893535Y-127570949D03*
D42*
X222464798Y-129656221D03*
%TD*%
M02*
