M48
; DRILL file KiCad 10.0.6 date 2026-09-29T08:16:58
; FORMAT={-:-/ absolute / metric / decimal}
; #@! TF.CreationDate,2026-09-29T08:16:58+02:00
; #@! TF.GenerationSoftware,Kicad,Pcbnew,10.0.6
; #@! TF.FileFunction,NonPlated,1,2,NPTH
FMAT,2
METRIC
; #@! TA.AperFunction,NonPlated,NPTH,ComponentDrill
T1C1.200
; #@! TA.AperFunction,NonPlated,NPTH,ComponentDrill
T2C1.900
; #@! TA.AperFunction,NonPlated,NPTH,ComponentDrill
T3C3.000
; #@! TA.AperFunction,NonPlated,NPTH,ComponentDrill
T4C3.400
%
G90
G05
T1
X157.55Y-42.968
X164.55Y-42.968
T2
X75.594Y-68.923
X77.076Y-85.858
X78.558Y-102.793
X80.039Y-119.729
X86.552Y-67.964
X88.034Y-84.899
X89.516Y-101.835
X90.997Y-118.77
X93.221Y-63.867
X94.702Y-80.803
X96.184Y-97.738
X97.666Y-114.673
X104.179Y-62.909
X105.661Y-79.844
X107.142Y-96.779
X108.624Y-113.714
X112.968Y-58.465
X113.858Y-75.441
X114.748Y-92.418
X115.637Y-109.395
X123.953Y-57.889
X124.843Y-74.866
X125.733Y-91.842
X126.622Y-108.819
X133.987Y-54.141
X133.987Y-71.141
X133.987Y-88.141
X133.987Y-105.141
X144.987Y-54.141
X144.987Y-71.141
X144.987Y-88.141
X144.987Y-105.141
X152.351Y-108.449
X152.944Y-91.459
X153.537Y-74.47
X154.131Y-57.48
X163.344Y-108.833
X163.937Y-91.843
X164.531Y-74.853
X165.124Y-57.864
X167.88Y-127.579
X171.408Y-87.007
X172.298Y-70.031
X173.435Y-109.409
X178.399Y-130.795
X182.393Y-87.583
X183.283Y-70.606
X183.954Y-112.625
X186.109Y-132.951
X192.295Y-114.987
X196.51Y-136.533
X202.696Y-118.568
X204.14Y-138.957
X210.949Y-121.219
X214.409Y-142.899
X221.218Y-125.161
T3
X76.419Y-72.615
X77.901Y-89.55
X79.383Y-106.486
X80.864Y-123.421
X81.592Y-74.371
X83.074Y-91.306
X84.555Y-108.241
X86.037Y-125.177
X86.381Y-71.743
X87.863Y-88.679
X89.345Y-105.614
X90.826Y-122.549
X94.046Y-67.559
X95.527Y-84.495
X97.009Y-101.43
X98.491Y-118.365
X99.218Y-69.315
X100.7Y-86.251
X102.182Y-103.186
X103.663Y-120.121
X104.008Y-66.688
X105.489Y-83.623
X106.971Y-100.558
X108.453Y-117.494
X113.664Y-62.183
X114.554Y-79.16
X115.443Y-96.137
X116.333Y-113.113
X118.772Y-64.119
X119.662Y-81.095
X120.551Y-98.072
X121.441Y-115.049
X123.65Y-61.66
X124.54Y-78.637
X125.43Y-95.613
X126.319Y-112.59
X134.487Y-57.891
X134.487Y-74.891
X134.487Y-91.891
X134.487Y-108.891
X139.487Y-60.091
X139.487Y-77.091
X139.487Y-94.091
X139.487Y-111.091
X144.487Y-57.891
X144.487Y-74.891
X144.487Y-91.891
X144.487Y-108.891
X152.72Y-112.214
X153.313Y-95.224
X153.906Y-78.235
X154.499Y-61.245
X157.64Y-114.587
X158.233Y-97.597
X158.826Y-80.608
X159.42Y-63.618
X162.713Y-112.563
X163.307Y-95.573
X163.9Y-78.584
X164.493Y-61.594
X167.262Y-131.311
X171.4Y-134.877
X171.711Y-90.778
X172.601Y-73.802
X172.817Y-113.141
X176.589Y-93.237
X176.825Y-134.235
X176.955Y-116.707
X177.479Y-76.26
X181.698Y-91.302
X182.38Y-116.065
X182.587Y-74.325
X185.361Y-136.66
X189.372Y-140.368
X191.547Y-118.695
X194.816Y-139.916
X195.558Y-122.403
X201.002Y-121.951
X203.263Y-142.637
X207.142Y-146.483
X210.072Y-124.899
X212.598Y-146.221
X213.951Y-128.745
X219.407Y-128.483
T4
X81.073Y-68.443
X82.555Y-85.379
X84.037Y-102.314
X85.518Y-119.249
X98.7Y-63.388
X100.181Y-80.323
X101.663Y-97.258
X103.145Y-114.194
X118.461Y-58.177
X119.35Y-75.153
X120.24Y-92.13
X121.13Y-109.107
X139.487Y-54.141
X139.487Y-71.141
X139.487Y-88.141
X139.487Y-105.141
X157.847Y-108.641
X158.441Y-91.651
X159.034Y-74.661
X159.627Y-57.672
X173.14Y-129.187
X176.901Y-87.295
X177.79Y-70.319
X178.695Y-111.017
X191.309Y-134.742
X197.495Y-116.777
X209.274Y-140.928
X216.083Y-123.19
M30
