%TF.GenerationSoftware,KiCad,Pcbnew,10.0.6*%
%TF.CreationDate,2026-09-29T08:17:03+02:00*%
%TF.ProjectId,main_pcb,6d61696e-5f70-4636-922e-6b696361645f,v1.0.0*%
%TF.SameCoordinates,Original*%
%TF.FileFunction,Profile,NP*%
%FSLAX46Y46*%
G04 Gerber Fmt 4.6, Leading zero omitted, Abs format (unit mm)*
G04 Created by KiCad (PCBNEW 10.0.6) date 2026-09-29 08:17:03*
%MOMM*%
%LPD*%
G01*
G04 APERTURE LIST*
%ADD10C,0.050000*%
%TA.AperFunction,Profile*%
%ADD11C,0.050000*%
%TD*%
%TA.AperFunction,Profile*%
%ADD12C,0.150000*%
%TD*%
%ADD13C,0.150000*%
%TA.AperFunction,Profile*%
%ADD14C,0.120000*%
%TD*%
G04 APERTURE END LIST*
D10*
X68000000Y-59500000D02*
X67996306Y-59498779D01*
X67992618Y-59497581D01*
X67988935Y-59496406D01*
X67985258Y-59495254D01*
X67981586Y-59494124D01*
X67977919Y-59493017D01*
X67974257Y-59491932D01*
X67970601Y-59490869D01*
X67966950Y-59489829D01*
X67963304Y-59488811D01*
X67959664Y-59487816D01*
X67956028Y-59486842D01*
X67952398Y-59485891D01*
X67948773Y-59484961D01*
X67945152Y-59484054D01*
X67941537Y-59483168D01*
X67937927Y-59482304D01*
X67934322Y-59481461D01*
X67930722Y-59480641D01*
X67927127Y-59479842D01*
X67923536Y-59479064D01*
X67919950Y-59478308D01*
X67916369Y-59477574D01*
X67912794Y-59476861D01*
X67909222Y-59476169D01*
X67905656Y-59475498D01*
X67902094Y-59474849D01*
X67898537Y-59474220D01*
X67894984Y-59473613D01*
X67891436Y-59473027D01*
X67887892Y-59472462D01*
X67884354Y-59471918D01*
X67880819Y-59471394D01*
X67877289Y-59470892D01*
X67873763Y-59470410D01*
X67870242Y-59469949D01*
X67866725Y-59469509D01*
X67863213Y-59469089D01*
X67859704Y-59468690D01*
X67856201Y-59468312D01*
X67852701Y-59467954D01*
X67849206Y-59467617D01*
X67845714Y-59467300D01*
X67842228Y-59467004D01*
X67838744Y-59466728D01*
X67835266Y-59466472D01*
X67831790Y-59466237D01*
X67828320Y-59466022D01*
X67821390Y-59465652D01*
X67814476Y-59465363D01*
X67807577Y-59465155D01*
X67800694Y-59465027D01*
X67793825Y-59464980D01*
X67786971Y-59465012D01*
X67780132Y-59465124D01*
X67773307Y-59465315D01*
X67766496Y-59465586D01*
X67759699Y-59465936D01*
X67752915Y-59466366D01*
X67746145Y-59466874D01*
X67739387Y-59467462D01*
X67732643Y-59468129D01*
X67725911Y-59468875D01*
X67719192Y-59469699D01*
X67712486Y-59470603D01*
X67705791Y-59471585D01*
X67699108Y-59472647D01*
X67692438Y-59473787D01*
X67685778Y-59475006D01*
X67679131Y-59476305D01*
X67672494Y-59477682D01*
X67665869Y-59479139D01*
X67659254Y-59480675D01*
X67652651Y-59482291D01*
X67646058Y-59483986D01*
X67639476Y-59485761D01*
X67632905Y-59487616D01*
X67626344Y-59489551D01*
X67619793Y-59491566D01*
X67613253Y-59493661D01*
X67606722Y-59495837D01*
X67600202Y-59498094D01*
X67593693Y-59500431D01*
X67587193Y-59502850D01*
X67580703Y-59505351D01*
X67574223Y-59507933D01*
X67567754Y-59510597D01*
X67561294Y-59513344D01*
X67554845Y-59516173D01*
X67548406Y-59519084D01*
X67541976Y-59522079D01*
X67535558Y-59525157D01*
X67529149Y-59528319D01*
X67522751Y-59531564D01*
X67516364Y-59534894D01*
X67509987Y-59538308D01*
X67503621Y-59541807D01*
X67497266Y-59545392D01*
X67490923Y-59549061D01*
X67484590Y-59552817D01*
X67478269Y-59556658D01*
X67471960Y-59560586D01*
X67465663Y-59564600D01*
X67459378Y-59568702D01*
X67453106Y-59572890D01*
X67446846Y-59577166D01*
X67440599Y-59581530D01*
X67434366Y-59585982D01*
X67428147Y-59590522D01*
X67421942Y-59595151D01*
X67415751Y-59599869D01*
X67409575Y-59604676D01*
X67403414Y-59609572D01*
X67397270Y-59614558D01*
X67391141Y-59619634D01*
X67385029Y-59624800D01*
X67378934Y-59630055D01*
X67372856Y-59635401D01*
X67366797Y-59640838D01*
X67360757Y-59646365D01*
X67354735Y-59651983D01*
X67348734Y-59657691D01*
X67342753Y-59663491D01*
X67336793Y-59669381D01*
X67330854Y-59675362D01*
X67324938Y-59681434D01*
X67319045Y-59687597D01*
X67313176Y-59693851D01*
X67307332Y-59700195D01*
X67301512Y-59706630D01*
X67295718Y-59713155D01*
X67289952Y-59719771D01*
X67284212Y-59726477D01*
X67278502Y-59733272D01*
X67272820Y-59740157D01*
X67267168Y-59747131D01*
X67261547Y-59754193D01*
X67255959Y-59761344D01*
X67250402Y-59768583D01*
X67244880Y-59775909D01*
X67239392Y-59783322D01*
X67233940Y-59790821D01*
X67228524Y-59798406D01*
X67223146Y-59806076D01*
X67217806Y-59813830D01*
X67212506Y-59821667D01*
X67207246Y-59829587D01*
X67202029Y-59837589D01*
X67196853Y-59845671D01*
X67191722Y-59853833D01*
X67186636Y-59862074D01*
X67181595Y-59870392D01*
X67176602Y-59878787D01*
X67171657Y-59887257D01*
X67166761Y-59895801D01*
X67161916Y-59904418D01*
X67157123Y-59913106D01*
X67152382Y-59921863D01*
X67147695Y-59930689D01*
X67143063Y-59939582D01*
X67138487Y-59948540D01*
X67133969Y-59957561D01*
X67129509Y-59966643D01*
X67125109Y-59975786D01*
X67120769Y-59984986D01*
X67116492Y-59994243D01*
X67112277Y-60003554D01*
X67108127Y-60012916D01*
X67104042Y-60022329D01*
X67100023Y-60031790D01*
X67096072Y-60041296D01*
X67092189Y-60050845D01*
X67088376Y-60060436D01*
X67084633Y-60070065D01*
X67080962Y-60079731D01*
X67077364Y-60089431D01*
X67073839Y-60099162D01*
X67070388Y-60108922D01*
X67067014Y-60118708D01*
X67063715Y-60128519D01*
X67060493Y-60138350D01*
X67057350Y-60148201D01*
X67054285Y-60158067D01*
X67052783Y-60163005D01*
X67051300Y-60167946D01*
X67049838Y-60172890D01*
X67048396Y-60177836D01*
X67046973Y-60182784D01*
X67045572Y-60187733D01*
X67044191Y-60192684D01*
X67042830Y-60197636D01*
X67041490Y-60202588D01*
X67040170Y-60207541D01*
X67038871Y-60212493D01*
X67037593Y-60217445D01*
X67036336Y-60222396D01*
X67035100Y-60227346D01*
X67033885Y-60232294D01*
X67032690Y-60237241D01*
X67031517Y-60242185D01*
X67030365Y-60247128D01*
X67029235Y-60252066D01*
X67028125Y-60257002D01*
X67027037Y-60261934D01*
X67025970Y-60266863D01*
X67024925Y-60271786D01*
X67023901Y-60276706D01*
X67022898Y-60281619D01*
X67021917Y-60286530D01*
X67020958Y-60291432D01*
X67020019Y-60296331D01*
X67019103Y-60301221D01*
X67018208Y-60306107D01*
X67017335Y-60310983D01*
X67016483Y-60315856D01*
X67015654Y-60320717D01*
X67014845Y-60325574D01*
X67014059Y-60330418D01*
X67013293Y-60335259D01*
X67012550Y-60340086D01*
X67011828Y-60344908D01*
X67011129Y-60349716D01*
X67010450Y-60354519D01*
X67009794Y-60359307D01*
X67009158Y-60364090D01*
X67008545Y-60368857D01*
X67007953Y-60373618D01*
X67007383Y-60378362D01*
X67006834Y-60383101D01*
X67006307Y-60387821D01*
X67005801Y-60392535D01*
X67005317Y-60397231D01*
X67004854Y-60401920D01*
X67004413Y-60406590D01*
X67003993Y-60411253D01*
X67003594Y-60415896D01*
X67003217Y-60420532D01*
X67002861Y-60425147D01*
X67002526Y-60429754D01*
X67002212Y-60434340D01*
X67001919Y-60438917D01*
X67001648Y-60443473D01*
X67001397Y-60448020D01*
X67001167Y-60452545D01*
X67000958Y-60457061D01*
X67000770Y-60461554D01*
X67000602Y-60466037D01*
X67000456Y-60470497D01*
X67000330Y-60474948D01*
X67000224Y-60479374D01*
X67000139Y-60483790D01*
X67000074Y-60488181D01*
X67000029Y-60492563D01*
X67000000Y-60500000D01*
X75397837Y-129686019D02*
X75382671Y-129674959D01*
X75367501Y-129663797D01*
X75352326Y-129652531D01*
X75337146Y-129641163D01*
X75321962Y-129629691D01*
X75306773Y-129618116D01*
X75291579Y-129606436D01*
X75276380Y-129594651D01*
X75261176Y-129582761D01*
X75245966Y-129570765D01*
X75230752Y-129558663D01*
X75215532Y-129546455D01*
X75200307Y-129534140D01*
X75185076Y-129521717D01*
X75169839Y-129509187D01*
X75154597Y-129496549D01*
X75139350Y-129483801D01*
X75124096Y-129470945D01*
X75108837Y-129457979D01*
X75093571Y-129444903D01*
X75078300Y-129431716D01*
X75063023Y-129418419D01*
X75047739Y-129405010D01*
X75032450Y-129391489D01*
X75017154Y-129377856D01*
X75001851Y-129364110D01*
X74986543Y-129350251D01*
X74971228Y-129336278D01*
X74955906Y-129322191D01*
X74940578Y-129307989D01*
X74925244Y-129293672D01*
X74909902Y-129279239D01*
X74894554Y-129264690D01*
X74879200Y-129250024D01*
X74863838Y-129235241D01*
X74848470Y-129220341D01*
X74833095Y-129205322D01*
X74817712Y-129190185D01*
X74802323Y-129174928D01*
X74786927Y-129159552D01*
X74771523Y-129144056D01*
X74756113Y-129128439D01*
X74740695Y-129112701D01*
X74725271Y-129096841D01*
X74709838Y-129080859D01*
X74694399Y-129064754D01*
X74678953Y-129048526D01*
X74663499Y-129032174D01*
X74648037Y-129015698D01*
X74632568Y-128999097D01*
X74617092Y-128982370D01*
X74601608Y-128965518D01*
X74586117Y-128948539D01*
X74570619Y-128931433D01*
X74555112Y-128914200D01*
X74539598Y-128896839D01*
X74524077Y-128879349D01*
X74508548Y-128861730D01*
X74493011Y-128843981D01*
X74477467Y-128826102D01*
X74461914Y-128808092D01*
X74446355Y-128789950D01*
X74430787Y-128771677D01*
X74415212Y-128753271D01*
X74399629Y-128734732D01*
X74384038Y-128716060D01*
X74368439Y-128697253D01*
X74352833Y-128678312D01*
X74337219Y-128659235D01*
X74321597Y-128640023D01*
X74305967Y-128620674D01*
X74290329Y-128601188D01*
X74274684Y-128581564D01*
X74259030Y-128561802D01*
X74243369Y-128541901D01*
X74227700Y-128521861D01*
X74212023Y-128501681D01*
X74196338Y-128481360D01*
X74180645Y-128460898D01*
X74164945Y-128440294D01*
X74149236Y-128419548D01*
X74133520Y-128398659D01*
X74117796Y-128377627D01*
X74102064Y-128356450D01*
X74086324Y-128335129D01*
X74070576Y-128313662D01*
X74054821Y-128292049D01*
X74039057Y-128270290D01*
X74023286Y-128248383D01*
X74007507Y-128226329D01*
X73991721Y-128204126D01*
X73975926Y-128181774D01*
X73960124Y-128159273D01*
X73944314Y-128136621D01*
X73928496Y-128113818D01*
X73912670Y-128090864D01*
X73896837Y-128067758D01*
X73880996Y-128044498D01*
X73865148Y-128021086D01*
X73849291Y-127997519D01*
X73833427Y-127973798D01*
X73817556Y-127949921D01*
X73801677Y-127925888D01*
X73785790Y-127901699D01*
X73769896Y-127877352D01*
X73753995Y-127852848D01*
X73738085Y-127828185D01*
X73722169Y-127803362D01*
X73706245Y-127778380D01*
X73690313Y-127753238D01*
X73674374Y-127727934D01*
X73658428Y-127702468D01*
X73642475Y-127676840D01*
X73626514Y-127651049D01*
X73610546Y-127625094D01*
X73594571Y-127598975D01*
X73578588Y-127572690D01*
X73562599Y-127546240D01*
X73546602Y-127519623D01*
X73530598Y-127492839D01*
X73514588Y-127465888D01*
X73498570Y-127438768D01*
X73482545Y-127411478D01*
X73466514Y-127384019D01*
X73450475Y-127356390D01*
X73434430Y-127328589D01*
X73418378Y-127300617D01*
X73402319Y-127272471D01*
X73386253Y-127244153D01*
X73370181Y-127215661D01*
X73354102Y-127186994D01*
X73338017Y-127158152D01*
X73321925Y-127129134D01*
X73305827Y-127099939D01*
X73289722Y-127070567D01*
X73273611Y-127041017D01*
X73257494Y-127011288D01*
X73241370Y-126981380D01*
X73225240Y-126951291D01*
X73209104Y-126921022D01*
X73192962Y-126890571D01*
X73176814Y-126859938D01*
X73160659Y-126829121D01*
X73144499Y-126798121D01*
X73128333Y-126766937D01*
X73112161Y-126735568D01*
X73095984Y-126704012D01*
X73079800Y-126672271D01*
X73063611Y-126640342D01*
X73047417Y-126608225D01*
X73031217Y-126575919D01*
X73015011Y-126543424D01*
X72998800Y-126510739D01*
X72982584Y-126477862D01*
X72966362Y-126444795D01*
X72950136Y-126411535D01*
X72933904Y-126378082D01*
X72917667Y-126344435D01*
X72901425Y-126310593D01*
X72885178Y-126276557D01*
X72868926Y-126242324D01*
X72852669Y-126207895D01*
X72836408Y-126173268D01*
X72820142Y-126138443D01*
X72803871Y-126103419D01*
X72787596Y-126068195D01*
X72771316Y-126032771D01*
X72755032Y-125997146D01*
X72738744Y-125961319D01*
X72722451Y-125925289D01*
X72706155Y-125889056D01*
X72689854Y-125852619D01*
X72673549Y-125815977D01*
X72657240Y-125779129D01*
X72640928Y-125742074D01*
X72624611Y-125704813D01*
X72608291Y-125667343D01*
X72591968Y-125629665D01*
X72575640Y-125591777D01*
X72559310Y-125553679D01*
X72542976Y-125515371D01*
X72526638Y-125476850D01*
X72510298Y-125438117D01*
X72493954Y-125399170D01*
X72477607Y-125360010D01*
X72461257Y-125320634D01*
X72444905Y-125281044D01*
X72428549Y-125241236D01*
X72412191Y-125201212D01*
X72395830Y-125160969D01*
X72379467Y-125120508D01*
X72363101Y-125079828D01*
X72346733Y-125038927D01*
X72330363Y-124997805D01*
X72313990Y-124956461D01*
X72297616Y-124914895D01*
X72281239Y-124873105D01*
X72264860Y-124831092D01*
X72248480Y-124788853D01*
X72232098Y-124746388D01*
X72215714Y-124703697D01*
X72199329Y-124660779D01*
X72182942Y-124617632D01*
X72166554Y-124574256D01*
X72150165Y-124530651D01*
X72133774Y-124486815D01*
X72117383Y-124442748D01*
X72100990Y-124398449D01*
X72084597Y-124353917D01*
X72068203Y-124309151D01*
X72051808Y-124264151D01*
X72035412Y-124218915D01*
X72019017Y-124173444D01*
X72002620Y-124127735D01*
X71986224Y-124081789D01*
X71969827Y-124035604D01*
X71953430Y-123989179D01*
X71937034Y-123942515D01*
X71920637Y-123895609D01*
X71904241Y-123848462D01*
X71887845Y-123801072D01*
X71871449Y-123753439D01*
X71855054Y-123705562D01*
X71838660Y-123657439D01*
X71822266Y-123609071D01*
X71805873Y-123560456D01*
X71789482Y-123511593D01*
X71773091Y-123462482D01*
X71756702Y-123413122D01*
X71740313Y-123363512D01*
X71723927Y-123313651D01*
X71707541Y-123263539D01*
X71691158Y-123213174D01*
X71674776Y-123162555D01*
X71658396Y-123111683D01*
X71642018Y-123060556D01*
X71625642Y-123009173D01*
X71609268Y-122957533D01*
X71592897Y-122905636D01*
X71576528Y-122853480D01*
X71560161Y-122801066D01*
X71543798Y-122748391D01*
X71527436Y-122695456D01*
X71511078Y-122642259D01*
X71494723Y-122588800D01*
X71478371Y-122535077D01*
X71462022Y-122481091D01*
X71445677Y-122426839D01*
X71429335Y-122372321D01*
X71412996Y-122317537D01*
X71396661Y-122262485D01*
X71380331Y-122207165D01*
X71364004Y-122151576D01*
X71347681Y-122095716D01*
X71331362Y-122039586D01*
X71315048Y-121983184D01*
X71298738Y-121926509D01*
X71282432Y-121869561D01*
X71266131Y-121812339D01*
X71249835Y-121754841D01*
X71233544Y-121697067D01*
X71217259Y-121639017D01*
X71200978Y-121580689D01*
X71184702Y-121522082D01*
X71168432Y-121463196D01*
X71152168Y-121404029D01*
X71135909Y-121344581D01*
X71119656Y-121284852D01*
X71103409Y-121224839D01*
X71087168Y-121164543D01*
X71070933Y-121103962D01*
X71054705Y-121043095D01*
X71038483Y-120981943D01*
X71022267Y-120920503D01*
X71006058Y-120858775D01*
X70989857Y-120796758D01*
X70973662Y-120734451D01*
X70957474Y-120671854D01*
X70941293Y-120608965D01*
X70925120Y-120545784D01*
X70908955Y-120482310D01*
X70892797Y-120418541D01*
X70876646Y-120354478D01*
X70860504Y-120290118D01*
X70844370Y-120225462D01*
X70828244Y-120160509D01*
X70812126Y-120095256D01*
X70796017Y-120029705D01*
X70779916Y-119963853D01*
X70763824Y-119897700D01*
X70747741Y-119831245D01*
X70731667Y-119764488D01*
X70715602Y-119697426D01*
X70699547Y-119630060D01*
X70683500Y-119562389D01*
X70667464Y-119494411D01*
X70651437Y-119426126D01*
X70635420Y-119357533D01*
X70619413Y-119288631D01*
X70603416Y-119219419D01*
X70587429Y-119149896D01*
X70571453Y-119080062D01*
X70555488Y-119009915D01*
X70539533Y-118939455D01*
X70523589Y-118868681D01*
X70507656Y-118797591D01*
X70491734Y-118726186D01*
X70475823Y-118654463D01*
X70459924Y-118582423D01*
X70444036Y-118510064D01*
X70428160Y-118437385D01*
X70412297Y-118364386D01*
X70396445Y-118291066D01*
X70380605Y-118217424D01*
X70364777Y-118143458D01*
X70348963Y-118069169D01*
X70333160Y-117994555D01*
X70317371Y-117919615D01*
X70301594Y-117844348D01*
X70285831Y-117768754D01*
X70270080Y-117692831D01*
X70254343Y-117616580D01*
X70238620Y-117539998D01*
X70222910Y-117463085D01*
X70207214Y-117385840D01*
X70191533Y-117308262D01*
X70175865Y-117230351D01*
X70160212Y-117152105D01*
X70144573Y-117073524D01*
X70128948Y-116994606D01*
X70113339Y-116915351D01*
X70097744Y-116835758D01*
X70082165Y-116755826D01*
X70066600Y-116675554D01*
X70051052Y-116594941D01*
X70035518Y-116513987D01*
X70020001Y-116432690D01*
X70004499Y-116351050D01*
X69989013Y-116269065D01*
X69973544Y-116186736D01*
X69958091Y-116104060D01*
X69942654Y-116021037D01*
X69927234Y-115937666D01*
X69911831Y-115853947D01*
X69896445Y-115769878D01*
X69881076Y-115685459D01*
X69865724Y-115600688D01*
X69850390Y-115515565D01*
X69835074Y-115430089D01*
X69819775Y-115344259D01*
X69804495Y-115258074D01*
X69789232Y-115171534D01*
X69773988Y-115084636D01*
X69758762Y-114997382D01*
X69743555Y-114909768D01*
X69728367Y-114821796D01*
X69713198Y-114733463D01*
X69698048Y-114644770D01*
X69682917Y-114555714D01*
X69667806Y-114466296D01*
X69652714Y-114376514D01*
X69637642Y-114286368D01*
X69622591Y-114195856D01*
X69607559Y-114104978D01*
X69592548Y-114013733D01*
X69577557Y-113922120D01*
X69562587Y-113830138D01*
X69547637Y-113737786D01*
X69532709Y-113645064D01*
X69517802Y-113551970D01*
X69502917Y-113458504D01*
X69488052Y-113364665D01*
X69473210Y-113270451D01*
X69458389Y-113175863D01*
X69443591Y-113080899D01*
X69428815Y-112985558D01*
X69414061Y-112889840D01*
X69399330Y-112793744D01*
X69384621Y-112697268D01*
X69369936Y-112600412D01*
X69355274Y-112503175D01*
X69340635Y-112405557D01*
X69326019Y-112307556D01*
X69311427Y-112209171D01*
X69296859Y-112110402D01*
X69282315Y-112011248D01*
X69267795Y-111911708D01*
X69253300Y-111811781D01*
X69238829Y-111711467D01*
X69224383Y-111610764D01*
X69209961Y-111509671D01*
X69195565Y-111408189D01*
X69181194Y-111306315D01*
X69166849Y-111204049D01*
X69152529Y-111101391D01*
X69138235Y-110998339D01*
X69123968Y-110894893D01*
X69109726Y-110791051D01*
X69095511Y-110686814D01*
X69081322Y-110582179D01*
X69067160Y-110477147D01*
X69053025Y-110371717D01*
X69038917Y-110265887D01*
X69024837Y-110159657D01*
X69010784Y-110053027D01*
X68996759Y-109945994D01*
X68982761Y-109838559D01*
X68968792Y-109730721D01*
X68954851Y-109622478D01*
X68940939Y-109513831D01*
X68927055Y-109404777D01*
X68913200Y-109295318D01*
X68899374Y-109185450D01*
X68885577Y-109075175D01*
X68871810Y-108964491D01*
X68858072Y-108853397D01*
X68844364Y-108741893D01*
X68830686Y-108629977D01*
X68817038Y-108517650D01*
X68803421Y-108404909D01*
X68789834Y-108291755D01*
X68776278Y-108178187D01*
X68762753Y-108064204D01*
X68749259Y-107949804D01*
X68735796Y-107834988D01*
X68722365Y-107719755D01*
X68708966Y-107604104D01*
X68695599Y-107488034D01*
X68682263Y-107371544D01*
X68668961Y-107254634D01*
X68655690Y-107137302D01*
X68642453Y-107019549D01*
X68629248Y-106901373D01*
X68616077Y-106782774D01*
X68602939Y-106663752D01*
X68589834Y-106544304D01*
X68576764Y-106424431D01*
X68563727Y-106304132D01*
X68550724Y-106183406D01*
X68537756Y-106062252D01*
X68524822Y-105940670D01*
X68511923Y-105818659D01*
X68499059Y-105696219D01*
X68486230Y-105573349D01*
X68473437Y-105450047D01*
X68460679Y-105326314D01*
X68447956Y-105202148D01*
X68435270Y-105077550D01*
X68422620Y-104952517D01*
X68410007Y-104827051D01*
X68397430Y-104701149D01*
X68384890Y-104574812D01*
X68372387Y-104448039D01*
X68359921Y-104320829D01*
X68347492Y-104193182D01*
X68335102Y-104065096D01*
X68322749Y-103936572D01*
X68310434Y-103807608D01*
X68298157Y-103678205D01*
X68285919Y-103548360D01*
X68273720Y-103418075D01*
X68261560Y-103287348D01*
X68249438Y-103156179D01*
X68237356Y-103024567D01*
X68225314Y-102892512D01*
X68213311Y-102760012D01*
X68201349Y-102627068D01*
X68189426Y-102493679D01*
X68177544Y-102359845D01*
X68165703Y-102225564D01*
X68153902Y-102090837D01*
X68142143Y-101955662D01*
X68130425Y-101820040D01*
X68118748Y-101683969D01*
X68107113Y-101547450D01*
X68095520Y-101410482D01*
X68083969Y-101273064D01*
X68072460Y-101135196D01*
X68060994Y-100996877D01*
X68049571Y-100858107D01*
X68038191Y-100718886D01*
X68026854Y-100579213D01*
X68015560Y-100439088D01*
X68004310Y-100298510D01*
X67993104Y-100157478D01*
X67981943Y-100015993D01*
X67970825Y-99874055D01*
X67959752Y-99731661D01*
X67948724Y-99588814D01*
X67937741Y-99445511D01*
X67926803Y-99301752D01*
X67915911Y-99157538D01*
X67905064Y-99012868D01*
X67894263Y-98867742D01*
X67883509Y-98722158D01*
X67872800Y-98576118D01*
X67862139Y-98429620D01*
X67851524Y-98282665D01*
X67840956Y-98135252D01*
X67830435Y-97987381D01*
X67819962Y-97839052D01*
X67809537Y-97690264D01*
X67799159Y-97541018D01*
X67788830Y-97391312D01*
X67778549Y-97241148D01*
X67768317Y-97090524D01*
X67758133Y-96939440D01*
X67747999Y-96787897D01*
X67737914Y-96635894D01*
X67727879Y-96483432D01*
X67717893Y-96330509D01*
X67707957Y-96177127D01*
X67698072Y-96023284D01*
X67688237Y-95868981D01*
X67678453Y-95714217D01*
X67668720Y-95558994D01*
X67659038Y-95403310D01*
X67649407Y-95247166D01*
X67639828Y-95090562D01*
X67630301Y-94933497D01*
X67620826Y-94775972D01*
X67611403Y-94617988D01*
X67602033Y-94459543D01*
X67592716Y-94300638D01*
X67583452Y-94141274D01*
X67574241Y-93981449D01*
X67565083Y-93821166D01*
X67555980Y-93660423D01*
X67546930Y-93499221D01*
X67537935Y-93337560D01*
X67528994Y-93175441D01*
X67520107Y-93012863D01*
X67511276Y-92849827D01*
X67502500Y-92686333D01*
X67493779Y-92522382D01*
X67485114Y-92357974D01*
X67476505Y-92193109D01*
X67467952Y-92027788D01*
X67459455Y-91862011D01*
X67451015Y-91695779D01*
X67442632Y-91529092D01*
X67434306Y-91361950D01*
X67426037Y-91194354D01*
X67417826Y-91026305D01*
X67409673Y-90857803D01*
X67401578Y-90688849D01*
X67393541Y-90519443D01*
X67385562Y-90349587D01*
X67377643Y-90179280D01*
X67369782Y-90008523D01*
X67361981Y-89837318D01*
X67354239Y-89665665D01*
X67346557Y-89493565D01*
X67338935Y-89321019D01*
X67331373Y-89148027D01*
X67323871Y-88974590D01*
X67316431Y-88800710D01*
X67309051Y-88626387D01*
X67301732Y-88451623D01*
X67294475Y-88276418D01*
X67287280Y-88100774D01*
X67280146Y-87924691D01*
X67273075Y-87748172D01*
X67266066Y-87571216D01*
X67259120Y-87393825D01*
X67252237Y-87216002D01*
X67245417Y-87037746D01*
X67238660Y-86859059D01*
X67231967Y-86679943D01*
X67225337Y-86500399D01*
X67218772Y-86320428D01*
X67212271Y-86140033D01*
X67205835Y-85959215D01*
X67199464Y-85777975D01*
X67193158Y-85596315D01*
X67186917Y-85414237D01*
X67180741Y-85231743D01*
X67174632Y-85048834D01*
X67168588Y-84865513D01*
X67162611Y-84681781D01*
X67156700Y-84497640D01*
X67150856Y-84313093D01*
X67145079Y-84128142D01*
X67139370Y-83942788D01*
X67133728Y-83757035D01*
X67128153Y-83570884D01*
X67122647Y-83384338D01*
X67117208Y-83197399D01*
X67111839Y-83010070D01*
X67106538Y-82822353D01*
X67101305Y-82634251D01*
X67096142Y-82445768D01*
X67091049Y-82256905D01*
X67086025Y-82067665D01*
X67081070Y-81878052D01*
X67076186Y-81688069D01*
X67071373Y-81497719D01*
X67066629Y-81307004D01*
X67061957Y-81115929D01*
X67057356Y-80924497D01*
X67052825Y-80732711D01*
X67048367Y-80540575D01*
X67043980Y-80348092D01*
X67039665Y-80155267D01*
X67035422Y-79962103D01*
X67031251Y-79768605D01*
X67027153Y-79574776D01*
X67023128Y-79380621D01*
X67019176Y-79186144D01*
X67015298Y-78991349D01*
X67011492Y-78796242D01*
X67007761Y-78600826D01*
X67004103Y-78405108D01*
X67000520Y-78209091D01*
X66997010Y-78012781D01*
X66993576Y-77816184D01*
X66990216Y-77619304D01*
X66986931Y-77422147D01*
X66983721Y-77224719D01*
X66980586Y-77027026D01*
X66977528Y-76829075D01*
X66974544Y-76630870D01*
X66971637Y-76432419D01*
X66968806Y-76233728D01*
X66966051Y-76034804D01*
X66963373Y-75835655D01*
X66960771Y-75636286D01*
X66958247Y-75436706D01*
X66955799Y-75236923D01*
X66953428Y-75036943D01*
X66951135Y-74836776D01*
X66948920Y-74636429D01*
X66946782Y-74435912D01*
X66944722Y-74235232D01*
X66942740Y-74034399D01*
X66940836Y-73833423D01*
X66939010Y-73632313D01*
X66937263Y-73431079D01*
X66935594Y-73229732D01*
X66934005Y-73028281D01*
X66932493Y-72826739D01*
X66931061Y-72625116D01*
X66929708Y-72423424D01*
X66928434Y-72221675D01*
X66927239Y-72019881D01*
X66926124Y-71818056D01*
X66925087Y-71616212D01*
X66924131Y-71414364D01*
X66923253Y-71212526D01*
X66922456Y-71010712D01*
X66921737Y-70808938D01*
X66921099Y-70607220D01*
X66920540Y-70405574D01*
X66920061Y-70204016D01*
X66919661Y-70002565D01*
X66919341Y-69801239D01*
X66919101Y-69600056D01*
X66918940Y-69399038D01*
X66918859Y-69198203D01*
X66918857Y-68997573D01*
X66918934Y-68797171D01*
X66919091Y-68597019D01*
X66919326Y-68397141D01*
X66919641Y-68197564D01*
X66920034Y-67998311D01*
X66920506Y-67799412D01*
X66921056Y-67600894D01*
X66921684Y-67402787D01*
X66922389Y-67205122D01*
X66923172Y-67007932D01*
X66924033Y-66811251D01*
X66924970Y-66615115D01*
X66925983Y-66419561D01*
X66927072Y-66224630D01*
X66928236Y-66030363D01*
X66929475Y-65836804D01*
X66930788Y-65643999D01*
X66932175Y-65451998D01*
X66933634Y-65260853D01*
X66935165Y-65070618D01*
X66936767Y-64881353D01*
X66938439Y-64693119D01*
X66940180Y-64505983D01*
X66941988Y-64320016D01*
X66943863Y-64135294D01*
X66945804Y-63951898D01*
X66947807Y-63769918D01*
X66949872Y-63589446D01*
X66951997Y-63410586D01*
X66954180Y-63233450D01*
X66956418Y-63058159D01*
X66958709Y-62884847D01*
X66961050Y-62713660D01*
X66963437Y-62544761D01*
X66965867Y-62378330D01*
X66968335Y-62214570D01*
X66970836Y-62053709D01*
X66973366Y-61896007D01*
X66975916Y-61741762D01*
X66978480Y-61591323D01*
X66981049Y-61445100D01*
X66983610Y-61303585D01*
X66986149Y-61167381D01*
X66988650Y-61037247D01*
X66991088Y-60914172D01*
X66993430Y-60799505D01*
X66995630Y-60695213D01*
X66997610Y-60604476D01*
X66999215Y-60533453D01*
X67000000Y-60500000D01*
X115700000Y-121500000D02*
X115676450Y-121512107D01*
X115652925Y-121524291D01*
X115629423Y-121536552D01*
X115605939Y-121548894D01*
X115582470Y-121561319D01*
X115559012Y-121573827D01*
X115535560Y-121586423D01*
X115512110Y-121599108D01*
X115488658Y-121611884D01*
X115465200Y-121624756D01*
X115441730Y-121637724D01*
X115418243Y-121650792D01*
X115394735Y-121663964D01*
X115371200Y-121677241D01*
X115347633Y-121690629D01*
X115324028Y-121704129D01*
X115300379Y-121717747D01*
X115276679Y-121731486D01*
X115252922Y-121745350D01*
X115229101Y-121759343D01*
X115205208Y-121773471D01*
X115181237Y-121787738D01*
X115157178Y-121802149D01*
X115133023Y-121816711D01*
X115108763Y-121831429D01*
X115084389Y-121846310D01*
X115059889Y-121861360D01*
X115035253Y-121876587D01*
X115010469Y-121892000D01*
X114985525Y-121907605D01*
X114960406Y-121923414D01*
X114935098Y-121939436D01*
X114909585Y-121955681D01*
X114883850Y-121972162D01*
X114857873Y-121988892D01*
X114831635Y-122005886D01*
X114805111Y-122023158D01*
X114778278Y-122040727D01*
X114751107Y-122058611D01*
X114723568Y-122076834D01*
X114695624Y-122095418D01*
X114667238Y-122114393D01*
X114638363Y-122133789D01*
X114608950Y-122153642D01*
X114578938Y-122173995D01*
X114548258Y-122194896D01*
X114516828Y-122216404D01*
X114484550Y-122238587D01*
X114451305Y-122261531D01*
X114416944Y-122285340D01*
X114381281Y-122310147D01*
X114344073Y-122336124D01*
X114304992Y-122363504D01*
X114263580Y-122392611D01*
X114219156Y-122423931D01*
X114170620Y-122458242D01*
X114115966Y-122496970D01*
X114050657Y-122543336D01*
X113984305Y-122590493D01*
X113915443Y-122639432D01*
X113846120Y-122688645D01*
X113811263Y-122713353D01*
X113776262Y-122738128D01*
X113741108Y-122762970D01*
X113705793Y-122787878D01*
X113670306Y-122812853D01*
X113634640Y-122837894D01*
X113598784Y-122863001D01*
X113562728Y-122888172D01*
X113526465Y-122913409D01*
X113489985Y-122938711D01*
X113453277Y-122964077D01*
X113434836Y-122976784D01*
X113416334Y-122989507D01*
X113397771Y-123002246D01*
X113379146Y-123015001D01*
X113360456Y-123027772D01*
X113341703Y-123040559D01*
X113322883Y-123053361D01*
X113303996Y-123066179D01*
X113285041Y-123079013D01*
X113266016Y-123091862D01*
X113246921Y-123104727D01*
X113227754Y-123117608D01*
X113208514Y-123130504D01*
X113189201Y-123143416D01*
X113169812Y-123156343D01*
X113150346Y-123169286D01*
X113130803Y-123182243D01*
X113111182Y-123195217D01*
X113091480Y-123208205D01*
X113071698Y-123221209D01*
X113051833Y-123234228D01*
X113031885Y-123247262D01*
X113011853Y-123260312D01*
X112991735Y-123273376D01*
X112971530Y-123286456D01*
X112951237Y-123299550D01*
X112930856Y-123312660D01*
X112910383Y-123325784D01*
X112889820Y-123338924D01*
X112869164Y-123352078D01*
X112848414Y-123365247D01*
X112827569Y-123378431D01*
X112806628Y-123391629D01*
X112785590Y-123404843D01*
X112764453Y-123418071D01*
X112743217Y-123431313D01*
X112721880Y-123444570D01*
X112700442Y-123457842D01*
X112678900Y-123471128D01*
X112657254Y-123484429D01*
X112635503Y-123497744D01*
X112613646Y-123511073D01*
X112591680Y-123524417D01*
X112569606Y-123537775D01*
X112547422Y-123551147D01*
X112525127Y-123564534D01*
X112502719Y-123577935D01*
X112480198Y-123591350D01*
X112457563Y-123604779D01*
X112434811Y-123618222D01*
X112411943Y-123631679D01*
X112388957Y-123645150D01*
X112365851Y-123658635D01*
X112342625Y-123672133D01*
X112319278Y-123685646D01*
X112295808Y-123699173D01*
X112272213Y-123712713D01*
X112248494Y-123726267D01*
X112224649Y-123739835D01*
X112200676Y-123753416D01*
X112176575Y-123767011D01*
X112152344Y-123780620D01*
X112127982Y-123794242D01*
X112103489Y-123807878D01*
X112078862Y-123821527D01*
X112054101Y-123835190D01*
X112029204Y-123848866D01*
X112004171Y-123862555D01*
X111979000Y-123876257D01*
X111953690Y-123889973D01*
X111928240Y-123903702D01*
X111902648Y-123917445D01*
X111876914Y-123931200D01*
X111851037Y-123944969D01*
X111825015Y-123958750D01*
X111798847Y-123972545D01*
X111772532Y-123986352D01*
X111746069Y-124000173D01*
X111719456Y-124014006D01*
X111692693Y-124027852D01*
X111665778Y-124041711D01*
X111638711Y-124055583D01*
X111611489Y-124069468D01*
X111584112Y-124083365D01*
X111556579Y-124097275D01*
X111528888Y-124111198D01*
X111501039Y-124125133D01*
X111473030Y-124139081D01*
X111444860Y-124153041D01*
X111416528Y-124167014D01*
X111388032Y-124180999D01*
X111359372Y-124194996D01*
X111330547Y-124209006D01*
X111301555Y-124223028D01*
X111272395Y-124237062D01*
X111243065Y-124251109D01*
X111213566Y-124265168D01*
X111183895Y-124279239D01*
X111154052Y-124293322D01*
X111124035Y-124307417D01*
X111093843Y-124321524D01*
X111063475Y-124335643D01*
X111032930Y-124349774D01*
X111002206Y-124363917D01*
X110971303Y-124378072D01*
X110940219Y-124392239D01*
X110908954Y-124406417D01*
X110877506Y-124420607D01*
X110845873Y-124434809D01*
X110814055Y-124449023D01*
X110782051Y-124463248D01*
X110749859Y-124477485D01*
X110717478Y-124491733D01*
X110684908Y-124505993D01*
X110652146Y-124520264D01*
X110619192Y-124534547D01*
X110586045Y-124548841D01*
X110552703Y-124563146D01*
X110519165Y-124577463D01*
X110485431Y-124591791D01*
X110451498Y-124606130D01*
X110417366Y-124620480D01*
X110383034Y-124634842D01*
X110348500Y-124649214D01*
X110313764Y-124663598D01*
X110278824Y-124677993D01*
X110243679Y-124692398D01*
X110208328Y-124706815D01*
X110172769Y-124721243D01*
X110137002Y-124735681D01*
X110101025Y-124750130D01*
X110064838Y-124764590D01*
X110028438Y-124779061D01*
X109991826Y-124793542D01*
X109954999Y-124808034D01*
X109917957Y-124822537D01*
X109880698Y-124837050D01*
X109843221Y-124851574D01*
X109805526Y-124866109D01*
X109767611Y-124880654D01*
X109729474Y-124895209D01*
X109691115Y-124909774D01*
X109652532Y-124924350D01*
X109613725Y-124938937D01*
X109574692Y-124953533D01*
X109535432Y-124968140D01*
X109495943Y-124982757D01*
X109456226Y-124997384D01*
X109416277Y-125012021D01*
X109376098Y-125026669D01*
X109335685Y-125041326D01*
X109295038Y-125055993D01*
X109254157Y-125070670D01*
X109213039Y-125085358D01*
X109171683Y-125100055D01*
X109130089Y-125114761D01*
X109088256Y-125129478D01*
X109046181Y-125144204D01*
X109003864Y-125158940D01*
X108961304Y-125173686D01*
X108918500Y-125188442D01*
X108875450Y-125203206D01*
X108832153Y-125217981D01*
X108788609Y-125232765D01*
X108744815Y-125247558D01*
X108700772Y-125262361D01*
X108656477Y-125277174D01*
X108611929Y-125291995D01*
X108567128Y-125306826D01*
X108522072Y-125321666D01*
X108476760Y-125336516D01*
X108431191Y-125351374D01*
X108385363Y-125366242D01*
X108339276Y-125381119D01*
X108292929Y-125396005D01*
X108246319Y-125410900D01*
X108199447Y-125425804D01*
X108152311Y-125440716D01*
X108104909Y-125455638D01*
X108057241Y-125470569D01*
X108009306Y-125485508D01*
X107961101Y-125500457D01*
X107912627Y-125515414D01*
X107863882Y-125530379D01*
X107814865Y-125545354D01*
X107765574Y-125560337D01*
X107716009Y-125575328D01*
X107666168Y-125590328D01*
X107616050Y-125605337D01*
X107565654Y-125620354D01*
X107514979Y-125635380D01*
X107464024Y-125650413D01*
X107412787Y-125665456D01*
X107361268Y-125680506D01*
X107309465Y-125695565D01*
X107257376Y-125710632D01*
X107205002Y-125725707D01*
X107152341Y-125740791D01*
X107099391Y-125755882D01*
X107046151Y-125770982D01*
X106992621Y-125786089D01*
X106938799Y-125801205D01*
X106884684Y-125816328D01*
X106830274Y-125831460D01*
X106775569Y-125846599D01*
X106720568Y-125861746D01*
X106665269Y-125876901D01*
X106609671Y-125892064D01*
X106553773Y-125907234D01*
X106497574Y-125922412D01*
X106441073Y-125937598D01*
X106384268Y-125952791D01*
X106327158Y-125967992D01*
X106269743Y-125983200D01*
X106212021Y-125998416D01*
X106153990Y-126013639D01*
X106095650Y-126028870D01*
X106037000Y-126044108D01*
X105978039Y-126059353D01*
X105918764Y-126074605D01*
X105859176Y-126089865D01*
X105799272Y-126105132D01*
X105739052Y-126120406D01*
X105678515Y-126135687D01*
X105617659Y-126150976D01*
X105556484Y-126166271D01*
X105494988Y-126181573D01*
X105433169Y-126196882D01*
X105371028Y-126212198D01*
X105308562Y-126227521D01*
X105245770Y-126242851D01*
X105182652Y-126258188D01*
X105119207Y-126273531D01*
X105055432Y-126288881D01*
X104991327Y-126304238D01*
X104926890Y-126319601D01*
X104862122Y-126334971D01*
X104797019Y-126350348D01*
X104731582Y-126365731D01*
X104665809Y-126381120D01*
X104599699Y-126396516D01*
X104533250Y-126411918D01*
X104466463Y-126427327D01*
X104399334Y-126442742D01*
X104331864Y-126458163D01*
X104264051Y-126473590D01*
X104195894Y-126489024D01*
X104127391Y-126504464D01*
X104058543Y-126519910D01*
X103989347Y-126535362D01*
X103919802Y-126550820D01*
X103849907Y-126566284D01*
X103779661Y-126581753D01*
X103709063Y-126597229D01*
X103638112Y-126612711D01*
X103566807Y-126628199D01*
X103495145Y-126643692D01*
X103423127Y-126659191D01*
X103350751Y-126674696D01*
X103278016Y-126690206D01*
X103204921Y-126705722D01*
X103131464Y-126721244D01*
X103057644Y-126736771D01*
X102983461Y-126752304D01*
X102908913Y-126767842D01*
X102833999Y-126783386D01*
X102758717Y-126798935D01*
X102683068Y-126814489D01*
X102607048Y-126830049D01*
X102530658Y-126845613D01*
X102453896Y-126861184D01*
X102376762Y-126876759D01*
X102299252Y-126892339D01*
X102221368Y-126907925D01*
X102143107Y-126923516D01*
X102064469Y-126939111D01*
X101985451Y-126954712D01*
X101906054Y-126970318D01*
X101826275Y-126985928D01*
X101746115Y-127001544D01*
X101665570Y-127017164D01*
X101584642Y-127032789D01*
X101503327Y-127048419D01*
X101421626Y-127064053D01*
X101339536Y-127079693D01*
X101257057Y-127095336D01*
X101174188Y-127110985D01*
X101090927Y-127126638D01*
X101007274Y-127142295D01*
X100923226Y-127157957D01*
X100838784Y-127173623D01*
X100753945Y-127189294D01*
X100668709Y-127204969D01*
X100583075Y-127220649D01*
X100497041Y-127236332D01*
X100410606Y-127252020D01*
X100323769Y-127267712D01*
X100236529Y-127283409D01*
X100148884Y-127299109D01*
X100060835Y-127314813D01*
X99972378Y-127330522D01*
X99883514Y-127346234D01*
X99794241Y-127361951D01*
X99704557Y-127377671D01*
X99614463Y-127393395D01*
X99523956Y-127409123D01*
X99433035Y-127424855D01*
X99341700Y-127440591D01*
X99249949Y-127456330D01*
X99157781Y-127472073D01*
X99065194Y-127487819D01*
X98972188Y-127503570D01*
X98878762Y-127519323D01*
X98784914Y-127535081D01*
X98690643Y-127550841D01*
X98595948Y-127566605D01*
X98500828Y-127582373D01*
X98405282Y-127598144D01*
X98309308Y-127613918D01*
X98212906Y-127629695D01*
X98116073Y-127645476D01*
X98018810Y-127661260D01*
X97921115Y-127677047D01*
X97822986Y-127692837D01*
X97724423Y-127708630D01*
X97625424Y-127724427D01*
X97525989Y-127740226D01*
X97426116Y-127756028D01*
X97325803Y-127771833D01*
X97225051Y-127787641D01*
X97123857Y-127803452D01*
X97022220Y-127819266D01*
X96920140Y-127835082D01*
X96817615Y-127850901D01*
X96714644Y-127866723D01*
X96611225Y-127882547D01*
X96507359Y-127898374D01*
X96403043Y-127914204D01*
X96298276Y-127930036D01*
X96193057Y-127945870D01*
X96087386Y-127961707D01*
X95981260Y-127977546D01*
X95874679Y-127993388D01*
X95767641Y-128009232D01*
X95660146Y-128025078D01*
X95552192Y-128040927D01*
X95443779Y-128056778D01*
X95334904Y-128072630D01*
X95225567Y-128088485D01*
X95115766Y-128104342D01*
X95005501Y-128120201D01*
X94894770Y-128136062D01*
X94783573Y-128151925D01*
X94671907Y-128167790D01*
X94559772Y-128183657D01*
X94447167Y-128199526D01*
X94334090Y-128215396D01*
X94220541Y-128231268D01*
X94106517Y-128247142D01*
X93992019Y-128263018D01*
X93877045Y-128278895D01*
X93761593Y-128294774D01*
X93645663Y-128310654D01*
X93529253Y-128326536D01*
X93412362Y-128342419D01*
X93294990Y-128358304D01*
X93177134Y-128374190D01*
X93058794Y-128390078D01*
X92939969Y-128405967D01*
X92820657Y-128421857D01*
X92700857Y-128437748D01*
X92580569Y-128453641D01*
X92459790Y-128469534D01*
X92338520Y-128485429D01*
X92216758Y-128501325D01*
X92094502Y-128517222D01*
X91971752Y-128533120D01*
X91848505Y-128549018D01*
X91724762Y-128564918D01*
X91600521Y-128580819D01*
X91475780Y-128596720D01*
X91350539Y-128612623D01*
X91224796Y-128628526D01*
X91098550Y-128644429D01*
X90971800Y-128660334D01*
X90844546Y-128676239D01*
X90716785Y-128692144D01*
X90588516Y-128708051D01*
X90459739Y-128723957D01*
X90330452Y-128739865D01*
X90200654Y-128755772D01*
X90070345Y-128771680D01*
X89939521Y-128787588D01*
X89808184Y-128803497D01*
X89676331Y-128819406D01*
X89543961Y-128835315D01*
X89411074Y-128851225D01*
X89277667Y-128867134D01*
X89143740Y-128883044D01*
X89009292Y-128898954D01*
X88874321Y-128914863D01*
X88738827Y-128930773D01*
X88602808Y-128946683D01*
X88466263Y-128962592D01*
X88329191Y-128978502D01*
X88191590Y-128994411D01*
X88053460Y-129010320D01*
X87914800Y-129026229D01*
X87775607Y-129042138D01*
X87635882Y-129058046D01*
X87495623Y-129073954D01*
X87354828Y-129089862D01*
X87213497Y-129105769D01*
X87071628Y-129121675D01*
X86929221Y-129137581D01*
X86786274Y-129153487D01*
X86642785Y-129169392D01*
X86498755Y-129185296D01*
X86354181Y-129201200D01*
X86209063Y-129217102D01*
X86063399Y-129233004D01*
X85917188Y-129248906D01*
X85770429Y-129264806D01*
X85623121Y-129280706D01*
X85475263Y-129296604D01*
X85326853Y-129312502D01*
X85177890Y-129328399D01*
X85028374Y-129344294D01*
X84878303Y-129360189D01*
X84727676Y-129376082D01*
X84576491Y-129391974D01*
X84424748Y-129407865D01*
X84272446Y-129423755D01*
X84119583Y-129439644D01*
X83966157Y-129455531D01*
X83812169Y-129471417D01*
X83657617Y-129487301D01*
X83502499Y-129503184D01*
X83346814Y-129519065D01*
X83190562Y-129534945D01*
X83033741Y-129550824D01*
X82876350Y-129566701D01*
X82718388Y-129582576D01*
X82559854Y-129598449D01*
X82400746Y-129614321D01*
X82241063Y-129630191D01*
X82080805Y-129646059D01*
X81919970Y-129661925D01*
X81758556Y-129677790D01*
X81596564Y-129693652D01*
X81433990Y-129709513D01*
X81270836Y-129725372D01*
X81107098Y-129741228D01*
X80942776Y-129757083D01*
X80777870Y-129772935D01*
X80612377Y-129788785D01*
X80446297Y-129804633D01*
X80279628Y-129820479D01*
X80112370Y-129836322D01*
X79944521Y-129852163D01*
X79776079Y-129868002D01*
X79607045Y-129883838D01*
X79437416Y-129899672D01*
X79267191Y-129915504D01*
X79096370Y-129931332D01*
X78924951Y-129947159D01*
X78752934Y-129962983D01*
X78580316Y-129978804D01*
X78407096Y-129994622D01*
X78233275Y-130010438D01*
X78058849Y-130026251D01*
X77883819Y-130042061D01*
X77708183Y-130057868D01*
X77531940Y-130073672D01*
X77355088Y-130089474D01*
X77177628Y-130105272D01*
X76999556Y-130121068D01*
X76820873Y-130136860D01*
X76641577Y-130152650D01*
X76461667Y-130168436D01*
X76281142Y-130184219D01*
X76100000Y-130199999D01*
X159015147Y-119306030D02*
X158882433Y-119292133D01*
X158749857Y-119278330D01*
X158617417Y-119264623D01*
X158485114Y-119251009D01*
X158352949Y-119237491D01*
X158220922Y-119224066D01*
X158089032Y-119210736D01*
X157957281Y-119197501D01*
X157825667Y-119184359D01*
X157694192Y-119171312D01*
X157562855Y-119158358D01*
X157431657Y-119145499D01*
X157300598Y-119132733D01*
X157169678Y-119120062D01*
X157038897Y-119107484D01*
X156908255Y-119095000D01*
X156777753Y-119082609D01*
X156647391Y-119070312D01*
X156517169Y-119058109D01*
X156387087Y-119045999D01*
X156257146Y-119033982D01*
X156127345Y-119022058D01*
X155997685Y-119010228D01*
X155868165Y-118998491D01*
X155738787Y-118986847D01*
X155609550Y-118975295D01*
X155480455Y-118963837D01*
X155351501Y-118952471D01*
X155222689Y-118941198D01*
X155094020Y-118930018D01*
X154965492Y-118918931D01*
X154837107Y-118907936D01*
X154708865Y-118897033D01*
X154580766Y-118886223D01*
X154452809Y-118875505D01*
X154324996Y-118864879D01*
X154197327Y-118854345D01*
X154069801Y-118843903D01*
X153942419Y-118833554D01*
X153815181Y-118823296D01*
X153688087Y-118813130D01*
X153561138Y-118803055D01*
X153434334Y-118793073D01*
X153307674Y-118783182D01*
X153181160Y-118773382D01*
X153054791Y-118763674D01*
X152928567Y-118754057D01*
X152802490Y-118744531D01*
X152676558Y-118735097D01*
X152550772Y-118725753D01*
X152425133Y-118716501D01*
X152299640Y-118707340D01*
X152174294Y-118698269D01*
X152049096Y-118689289D01*
X151924044Y-118680400D01*
X151799140Y-118671601D01*
X151674383Y-118662893D01*
X151549775Y-118654276D01*
X151425314Y-118645749D01*
X151301002Y-118637311D01*
X151176839Y-118628965D01*
X151052824Y-118620708D01*
X150928958Y-118612541D01*
X150805242Y-118604464D01*
X150681675Y-118596477D01*
X150558257Y-118588580D01*
X150434990Y-118580773D01*
X150311872Y-118573055D01*
X150188905Y-118565426D01*
X150066089Y-118557887D01*
X149943423Y-118550437D01*
X149820909Y-118543077D01*
X149698546Y-118535805D01*
X149576334Y-118528623D01*
X149454274Y-118521530D01*
X149332366Y-118514525D01*
X149210610Y-118507609D01*
X149089007Y-118500782D01*
X148967556Y-118494044D01*
X148846258Y-118487394D01*
X148725114Y-118480832D01*
X148604123Y-118474359D01*
X148483285Y-118467974D01*
X148362602Y-118461678D01*
X148242073Y-118455469D01*
X148121698Y-118449348D01*
X148001477Y-118443315D01*
X147881412Y-118437370D01*
X147761502Y-118431513D01*
X147641747Y-118425743D01*
X147522148Y-118420061D01*
X147402704Y-118414466D01*
X147283417Y-118408958D01*
X147164286Y-118403538D01*
X147045312Y-118398205D01*
X146926495Y-118392959D01*
X146807835Y-118387799D01*
X146689332Y-118382727D01*
X146570987Y-118377741D01*
X146452800Y-118372842D01*
X146334771Y-118368029D01*
X146216901Y-118363303D01*
X146099189Y-118358663D01*
X145981637Y-118354110D01*
X145864243Y-118349642D01*
X145747009Y-118345261D01*
X145629935Y-118340965D01*
X145513021Y-118336755D01*
X145396268Y-118332632D01*
X145279675Y-118328593D01*
X145163242Y-118324640D01*
X145046971Y-118320773D01*
X144930862Y-118316991D01*
X144814914Y-118313294D01*
X144699128Y-118309682D01*
X144583504Y-118306156D01*
X144468043Y-118302714D01*
X144352744Y-118299357D01*
X144237609Y-118296084D01*
X144122637Y-118292896D01*
X144007829Y-118289793D01*
X143893185Y-118286774D01*
X143778705Y-118283839D01*
X143664389Y-118280989D01*
X143550238Y-118278222D01*
X143436253Y-118275540D01*
X143322432Y-118272941D01*
X143208778Y-118270426D01*
X143095289Y-118267994D01*
X142981967Y-118265646D01*
X142868811Y-118263381D01*
X142755822Y-118261200D01*
X142643000Y-118259102D01*
X142530346Y-118257087D01*
X142417859Y-118255154D01*
X142305541Y-118253305D01*
X142193391Y-118251538D01*
X142081409Y-118249854D01*
X141969597Y-118248252D01*
X141857954Y-118246732D01*
X141746480Y-118245295D01*
X141635176Y-118243940D01*
X141524043Y-118242666D01*
X141413080Y-118241475D01*
X141302288Y-118240365D01*
X141191667Y-118239337D01*
X141081217Y-118238391D01*
X140970939Y-118237526D01*
X140860834Y-118236742D01*
X140750900Y-118236039D01*
X140695991Y-118235718D01*
X140641140Y-118235417D01*
X140586317Y-118235137D01*
X140531553Y-118234876D01*
X140476817Y-118234636D01*
X140422139Y-118234416D01*
X140367490Y-118234216D01*
X140312898Y-118234037D01*
X140258336Y-118233877D01*
X140203832Y-118233737D01*
X140149357Y-118233618D01*
X140094940Y-118233519D01*
X140040553Y-118233440D01*
X139986223Y-118233380D01*
X139931923Y-118233341D01*
X139877681Y-118233322D01*
X139823468Y-118233323D01*
X139769314Y-118233344D01*
X139715189Y-118233385D01*
X139661123Y-118233445D01*
X139607086Y-118233526D01*
X139553108Y-118233627D01*
X139499159Y-118233747D01*
X139445269Y-118233887D01*
X139391409Y-118234048D01*
X139337607Y-118234228D01*
X139283836Y-118234428D01*
X139230122Y-118234647D01*
X139176439Y-118234887D01*
X139122815Y-118235146D01*
X139069221Y-118235425D01*
X139015685Y-118235724D01*
X138962180Y-118236043D01*
X138908733Y-118236381D01*
X138855317Y-118236739D01*
X138801960Y-118237117D01*
X138748634Y-118237514D01*
X138695366Y-118237931D01*
X138642129Y-118238368D01*
X138588950Y-118238824D01*
X138535803Y-118239300D01*
X138482714Y-118239795D01*
X138429657Y-118240310D01*
X138376658Y-118240845D01*
X138323691Y-118241399D01*
X138270782Y-118241972D01*
X138217905Y-118242565D01*
X138165087Y-118243178D01*
X138112300Y-118243810D01*
X138059572Y-118244461D01*
X138006876Y-118245132D01*
X137954239Y-118245822D01*
X137901634Y-118246532D01*
X137849087Y-118247261D01*
X137796573Y-118248009D01*
X137744118Y-118248777D01*
X137691694Y-118249564D01*
X137639330Y-118250370D01*
X137586998Y-118251196D01*
X137534725Y-118252041D01*
X137482485Y-118252905D01*
X137430304Y-118253788D01*
X137378155Y-118254691D01*
X137326065Y-118255612D01*
X137274008Y-118256553D01*
X137222011Y-118257513D01*
X137170046Y-118258493D01*
X137118140Y-118259491D01*
X137066268Y-118260508D01*
X137014455Y-118261545D01*
X136962674Y-118262600D01*
X136910954Y-118263675D01*
X136859266Y-118264768D01*
X136807638Y-118265881D01*
X136756043Y-118267013D01*
X136704508Y-118268163D01*
X136653006Y-118269333D01*
X136601564Y-118270521D01*
X136550155Y-118271728D01*
X136498806Y-118272954D01*
X136447490Y-118274200D01*
X136396235Y-118275463D01*
X136345013Y-118276746D01*
X136293851Y-118278048D01*
X136242723Y-118279368D01*
X136191655Y-118280707D01*
X136140621Y-118282065D01*
X136089646Y-118283442D01*
X136038706Y-118284837D01*
X135987826Y-118286251D01*
X135936981Y-118287684D01*
X135886195Y-118289136D01*
X135835444Y-118290606D01*
X135784753Y-118292094D01*
X135734096Y-118293602D01*
X135683500Y-118295127D01*
X135632938Y-118296672D01*
X135582437Y-118298235D01*
X135531970Y-118299816D01*
X135481564Y-118301416D01*
X135431193Y-118303035D01*
X135380882Y-118304671D01*
X135330606Y-118306327D01*
X135280391Y-118308000D01*
X135230211Y-118309693D01*
X135180091Y-118311403D01*
X135130007Y-118313132D01*
X135079983Y-118314879D01*
X135029995Y-118316645D01*
X134980068Y-118318428D01*
X134930176Y-118320231D01*
X134880345Y-118322051D01*
X134830549Y-118323890D01*
X134780815Y-118325746D01*
X134731116Y-118327621D01*
X134681479Y-118329514D01*
X134631877Y-118331426D01*
X134582336Y-118333355D01*
X134532831Y-118335303D01*
X134483388Y-118337268D01*
X134433980Y-118339252D01*
X134384634Y-118341253D01*
X134335324Y-118343273D01*
X134286075Y-118345311D01*
X134236863Y-118347367D01*
X134187712Y-118349440D01*
X134138598Y-118351532D01*
X134089545Y-118353641D01*
X134040529Y-118355769D01*
X133991574Y-118357914D01*
X133942657Y-118360077D01*
X133893800Y-118362258D01*
X133844981Y-118364457D01*
X133796223Y-118366673D01*
X133747503Y-118368907D01*
X133698844Y-118371159D01*
X133650223Y-118373429D01*
X133601663Y-118375716D01*
X133553141Y-118378021D01*
X133504680Y-118380344D01*
X133456257Y-118382684D01*
X133407896Y-118385042D01*
X133359573Y-118387418D01*
X133311311Y-118389810D01*
X133263088Y-118392221D01*
X133214926Y-118394649D01*
X133166803Y-118397095D01*
X133118742Y-118399558D01*
X133070718Y-118402038D01*
X133022757Y-118404536D01*
X132974835Y-118407051D01*
X132926974Y-118409584D01*
X132879152Y-118412134D01*
X132831392Y-118414701D01*
X132783671Y-118417286D01*
X132736013Y-118419887D01*
X132688393Y-118422507D01*
X132640835Y-118425143D01*
X132593316Y-118427796D01*
X132545860Y-118430467D01*
X132498443Y-118433155D01*
X132451089Y-118435860D01*
X132403774Y-118438582D01*
X132356521Y-118441321D01*
X132309308Y-118444077D01*
X132262157Y-118446850D01*
X132215046Y-118449641D01*
X132167998Y-118452448D01*
X132120990Y-118455272D01*
X132074044Y-118458113D01*
X132027138Y-118460971D01*
X131980295Y-118463846D01*
X131933492Y-118466738D01*
X131886752Y-118469646D01*
X131840053Y-118472572D01*
X131793416Y-118475514D01*
X131746820Y-118478473D01*
X131700286Y-118481448D01*
X131653794Y-118484441D01*
X131607364Y-118487450D01*
X131560975Y-118490476D01*
X131514649Y-118493518D01*
X131468365Y-118496577D01*
X131422143Y-118499652D01*
X131375962Y-118502745D01*
X131329845Y-118505853D01*
X131283769Y-118508979D01*
X131237757Y-118512120D01*
X131191785Y-118515278D01*
X131145877Y-118518452D01*
X131100011Y-118521643D01*
X131054208Y-118524850D01*
X131008448Y-118528074D01*
X130962750Y-118531314D01*
X130917094Y-118534570D01*
X130871502Y-118537842D01*
X130825953Y-118541131D01*
X130780466Y-118544436D01*
X130735023Y-118547757D01*
X130689642Y-118551094D01*
X130644305Y-118554448D01*
X130599031Y-118557817D01*
X130553799Y-118561203D01*
X130508632Y-118564604D01*
X130463507Y-118568022D01*
X130418446Y-118571455D01*
X130373429Y-118574905D01*
X130328475Y-118578370D01*
X130283564Y-118581852D01*
X130238718Y-118585349D01*
X130193914Y-118588863D01*
X130149175Y-118592391D01*
X130104480Y-118595936D01*
X130059848Y-118599496D01*
X130015260Y-118603073D01*
X129970737Y-118606665D01*
X129926257Y-118610273D01*
X129881841Y-118613896D01*
X129837470Y-118617535D01*
X129793163Y-118621189D01*
X129748900Y-118624860D01*
X129704702Y-118628545D01*
X129660548Y-118632246D01*
X129616458Y-118635963D01*
X129572414Y-118639695D01*
X129528433Y-118643442D01*
X129484498Y-118647205D01*
X129440627Y-118650983D01*
X129396801Y-118654777D01*
X129353040Y-118658586D01*
X129309324Y-118662410D01*
X129265672Y-118666249D01*
X129222066Y-118670104D01*
X129178525Y-118673974D01*
X129135029Y-118677859D01*
X129091598Y-118681759D01*
X129048213Y-118685674D01*
X129004893Y-118689604D01*
X128961618Y-118693550D01*
X128918409Y-118697510D01*
X128875246Y-118701486D01*
X128832147Y-118705475D01*
X128789096Y-118709481D01*
X128746109Y-118713500D01*
X128703168Y-118717536D01*
X128660293Y-118721585D01*
X128617465Y-118725650D01*
X128574701Y-118729728D01*
X128531985Y-118733823D01*
X128489334Y-118737931D01*
X128446730Y-118742055D01*
X128404191Y-118746192D01*
X128361700Y-118750345D01*
X128319274Y-118754512D01*
X128276895Y-118758694D01*
X128234582Y-118762889D01*
X128192317Y-118767100D01*
X128150116Y-118771325D01*
X128107965Y-118775565D01*
X128065878Y-118779818D01*
X128023840Y-118784087D01*
X127981867Y-118788368D01*
X127939942Y-118792666D01*
X127898083Y-118796976D01*
X127856273Y-118801302D01*
X127814528Y-118805640D01*
X127772832Y-118809994D01*
X127731202Y-118814361D01*
X127689621Y-118818743D01*
X127648105Y-118823139D01*
X127606639Y-118827549D01*
X127565239Y-118831972D01*
X127523888Y-118836410D01*
X127482602Y-118840861D01*
X127441367Y-118845327D01*
X127400197Y-118849805D01*
X127359077Y-118854299D01*
X127318023Y-118858805D01*
X127277020Y-118863326D01*
X127236082Y-118867860D01*
X127195194Y-118872408D01*
X127154373Y-118876969D01*
X127113602Y-118881544D01*
X127072897Y-118886132D01*
X127032243Y-118890735D01*
X126991654Y-118895350D01*
X126951117Y-118899980D01*
X126910646Y-118904622D01*
X126870226Y-118909278D01*
X126829873Y-118913947D01*
X126789571Y-118918630D01*
X126749334Y-118923325D01*
X126709150Y-118928034D01*
X126669032Y-118932756D01*
X126628966Y-118937492D01*
X126588966Y-118942240D01*
X126549018Y-118947002D01*
X126509137Y-118951776D01*
X126469308Y-118956564D01*
X126429545Y-118961364D01*
X126389835Y-118966178D01*
X126350191Y-118971004D01*
X126310600Y-118975844D01*
X126271075Y-118980696D01*
X126231604Y-118985561D01*
X126192199Y-118990439D01*
X126152847Y-118995330D01*
X126113562Y-119000232D01*
X126074330Y-119005148D01*
X126035165Y-119010076D01*
X125996054Y-119015018D01*
X125957009Y-119019971D01*
X125918018Y-119024937D01*
X125879094Y-119029915D01*
X125840224Y-119034906D01*
X125801421Y-119039909D01*
X125762672Y-119044925D01*
X125723990Y-119049953D01*
X125685363Y-119054993D01*
X125646802Y-119060045D01*
X125608296Y-119065110D01*
X125569857Y-119070186D01*
X125531473Y-119075275D01*
X125493156Y-119080376D01*
X125454895Y-119085489D01*
X125416700Y-119090613D01*
X125378561Y-119095750D01*
X125340488Y-119100898D01*
X125302472Y-119106059D01*
X125264522Y-119111231D01*
X125226629Y-119116416D01*
X125188803Y-119121611D01*
X125151033Y-119126819D01*
X125113330Y-119132038D01*
X125075683Y-119137269D01*
X125038104Y-119142511D01*
X125000581Y-119147765D01*
X124963126Y-119153030D01*
X124925727Y-119158307D01*
X124888396Y-119163595D01*
X124851122Y-119168895D01*
X124813915Y-119174206D01*
X124776765Y-119179528D01*
X124739683Y-119184862D01*
X124702659Y-119190207D01*
X124665701Y-119195562D01*
X124628802Y-119200929D01*
X124591970Y-119206307D01*
X124555197Y-119211696D01*
X124518490Y-119217096D01*
X124481842Y-119222507D01*
X124445262Y-119227929D01*
X124408740Y-119233362D01*
X124372285Y-119238805D01*
X124335890Y-119244260D01*
X124299561Y-119249724D01*
X124263293Y-119255200D01*
X124227091Y-119260686D01*
X124190949Y-119266183D01*
X124154874Y-119271691D01*
X124118860Y-119277209D01*
X124082912Y-119282737D01*
X124047025Y-119288276D01*
X124011205Y-119293825D01*
X123975445Y-119299385D01*
X123939753Y-119304954D01*
X123904121Y-119310535D01*
X123868557Y-119316125D01*
X123833053Y-119321725D01*
X123797617Y-119327336D01*
X123762242Y-119332956D01*
X123726935Y-119338587D01*
X123691689Y-119344227D01*
X123656510Y-119349878D01*
X123621393Y-119355538D01*
X123586343Y-119361208D01*
X123551355Y-119366888D01*
X123516435Y-119372577D01*
X123481577Y-119378277D01*
X123446787Y-119383986D01*
X123412058Y-119389704D01*
X123377398Y-119395432D01*
X123342800Y-119401170D01*
X123308269Y-119406917D01*
X123273801Y-119412673D01*
X123239401Y-119418439D01*
X123205065Y-119424214D01*
X123170795Y-119429998D01*
X123136589Y-119435792D01*
X123102451Y-119441595D01*
X123068376Y-119447407D01*
X123034369Y-119453227D01*
X123000426Y-119459057D01*
X122966550Y-119464896D01*
X122932739Y-119470744D01*
X122898995Y-119476600D01*
X122865315Y-119482466D01*
X122831704Y-119488340D01*
X122798157Y-119494223D01*
X122764677Y-119500115D01*
X122731263Y-119506015D01*
X122697916Y-119511924D01*
X122664634Y-119517841D01*
X122631420Y-119523767D01*
X122598271Y-119529701D01*
X122565190Y-119535644D01*
X122532175Y-119541595D01*
X122499228Y-119547554D01*
X122466346Y-119553521D01*
X122433532Y-119559497D01*
X122400784Y-119565481D01*
X122368104Y-119571472D01*
X122335491Y-119577472D01*
X122302945Y-119583480D01*
X122270466Y-119589496D01*
X122238054Y-119595519D01*
X122205709Y-119601551D01*
X122173433Y-119607590D01*
X122141223Y-119613636D01*
X122109081Y-119619691D01*
X122077007Y-119625753D01*
X122045000Y-119631822D01*
X122013061Y-119637900D01*
X121981189Y-119643984D01*
X121949386Y-119650076D01*
X121917650Y-119656175D01*
X121885983Y-119662282D01*
X121854383Y-119668396D01*
X121822852Y-119674517D01*
X121791388Y-119680645D01*
X121759993Y-119686780D01*
X121728666Y-119692922D01*
X121697408Y-119699071D01*
X121666218Y-119705227D01*
X121635096Y-119711390D01*
X121604043Y-119717560D01*
X121573059Y-119723736D01*
X121542142Y-119729919D01*
X121511295Y-119736109D01*
X121480516Y-119742306D01*
X121449807Y-119748508D01*
X121419166Y-119754718D01*
X121388595Y-119760933D01*
X121358091Y-119767156D01*
X121327658Y-119773384D01*
X121297293Y-119779619D01*
X121266998Y-119785859D01*
X121236771Y-119792107D01*
X121206615Y-119798360D01*
X121176526Y-119804619D01*
X121146509Y-119810884D01*
X121116559Y-119817155D01*
X121086681Y-119823432D01*
X121056870Y-119829715D01*
X121027131Y-119836003D01*
X120997460Y-119842297D01*
X120967860Y-119848597D01*
X120938328Y-119854902D01*
X120908869Y-119861213D01*
X120879476Y-119867529D01*
X120850157Y-119873851D01*
X120820904Y-119880178D01*
X120791725Y-119886510D01*
X120762612Y-119892848D01*
X120733573Y-119899190D01*
X120704601Y-119905538D01*
X120675703Y-119911891D01*
X120646871Y-119918249D01*
X120618113Y-119924611D01*
X120589423Y-119930980D01*
X120560806Y-119937352D01*
X120532257Y-119943729D01*
X120503781Y-119950111D01*
X120475373Y-119956498D01*
X120447039Y-119962889D01*
X120418772Y-119969285D01*
X120390579Y-119975685D01*
X120362454Y-119982090D01*
X120334403Y-119988498D01*
X120306419Y-119994912D01*
X120278511Y-120001329D01*
X120250669Y-120007751D01*
X120222903Y-120014176D01*
X120195203Y-120020606D01*
X120167579Y-120027040D01*
X120140022Y-120033478D01*
X120112541Y-120039919D01*
X120085126Y-120046365D01*
X120057788Y-120052813D01*
X120030516Y-120059266D01*
X120003320Y-120065722D01*
X119976191Y-120072183D01*
X119949139Y-120078646D01*
X119922153Y-120085113D01*
X119895244Y-120091583D01*
X119868401Y-120098057D01*
X119841636Y-120104533D01*
X119814937Y-120111014D01*
X119788314Y-120117496D01*
X119761759Y-120123983D01*
X119735281Y-120130472D01*
X119708869Y-120136965D01*
X119682535Y-120143459D01*
X119656267Y-120149958D01*
X119630077Y-120156458D01*
X119603953Y-120162962D01*
X119577907Y-120169467D01*
X119551928Y-120175976D01*
X119526026Y-120182487D01*
X119500191Y-120189001D01*
X119474435Y-120195516D01*
X119448744Y-120202035D01*
X119423132Y-120208555D01*
X119397586Y-120215078D01*
X119372119Y-120221602D01*
X119346718Y-120228130D01*
X119321395Y-120234658D01*
X119296139Y-120241190D01*
X119270962Y-120247721D01*
X119245851Y-120254257D01*
X119220819Y-120260792D01*
X119195854Y-120267331D01*
X119170967Y-120273870D01*
X119146147Y-120280412D01*
X119121406Y-120286953D01*
X119096730Y-120293498D01*
X119072135Y-120300043D01*
X119047606Y-120306591D01*
X119023156Y-120313138D01*
X118998772Y-120319688D01*
X118974468Y-120326237D01*
X118950230Y-120332789D01*
X118926072Y-120339341D01*
X118901980Y-120345895D01*
X118877968Y-120352448D01*
X118854022Y-120359004D01*
X118830156Y-120365558D01*
X118806356Y-120372115D01*
X118782636Y-120378671D01*
X118758982Y-120385230D01*
X118735409Y-120391786D01*
X118711901Y-120398346D01*
X118688474Y-120404903D01*
X118665112Y-120411463D01*
X118641832Y-120418021D01*
X118618617Y-120424581D01*
X118595483Y-120431139D01*
X118572414Y-120437700D01*
X118549427Y-120444258D01*
X118526504Y-120450818D01*
X118503663Y-120457376D01*
X118480887Y-120463936D01*
X118458193Y-120470493D01*
X118435564Y-120477052D01*
X118413017Y-120483608D01*
X118390534Y-120490166D01*
X118368133Y-120496721D01*
X118345797Y-120503278D01*
X118323543Y-120509832D01*
X118301354Y-120516388D01*
X118279247Y-120522940D01*
X118257204Y-120529494D01*
X118235244Y-120536044D01*
X118213348Y-120542596D01*
X118191535Y-120549144D01*
X118169786Y-120555693D01*
X118148120Y-120562239D01*
X118126517Y-120568786D01*
X118104998Y-120575329D01*
X118083542Y-120581873D01*
X118062169Y-120588413D01*
X118040860Y-120594955D01*
X118019635Y-120601491D01*
X117998473Y-120608029D01*
X117977394Y-120614562D01*
X117956378Y-120621097D01*
X117935447Y-120627626D01*
X117914578Y-120634157D01*
X117893793Y-120640683D01*
X117873071Y-120647209D01*
X117852432Y-120653730D01*
X117831857Y-120660253D01*
X117811366Y-120666769D01*
X117790937Y-120673287D01*
X117770592Y-120679799D01*
X117750310Y-120686312D01*
X117730112Y-120692818D01*
X117709976Y-120699326D01*
X117689925Y-120705828D01*
X117669936Y-120712330D01*
X117650031Y-120718826D01*
X117630188Y-120725322D01*
X117610430Y-120731813D01*
X117590733Y-120738303D01*
X117571121Y-120744787D01*
X117551571Y-120751272D01*
X117532105Y-120757749D01*
X117512702Y-120764228D01*
X117493382Y-120770699D01*
X117474124Y-120777170D01*
X117454951Y-120783634D01*
X117435839Y-120790099D01*
X117416812Y-120796556D01*
X117397846Y-120803013D01*
X117378965Y-120809462D01*
X117360145Y-120815912D01*
X117341409Y-120822354D01*
X117322735Y-120828796D01*
X117304145Y-120835230D01*
X117285616Y-120841665D01*
X117267172Y-120848090D01*
X117248788Y-120854516D01*
X117230489Y-120860934D01*
X117212251Y-120867351D01*
X117194097Y-120873760D01*
X117176004Y-120880169D01*
X117157996Y-120886569D01*
X117140048Y-120892968D01*
X117122184Y-120899359D01*
X117104381Y-120905749D01*
X117086662Y-120912131D01*
X117069004Y-120918512D01*
X117051429Y-120924883D01*
X117033915Y-120931254D01*
X117016486Y-120937616D01*
X116999116Y-120943977D01*
X116981830Y-120950329D01*
X116964604Y-120956679D01*
X116947463Y-120963020D01*
X116930381Y-120969361D01*
X116913384Y-120975691D01*
X116896445Y-120982021D01*
X116879592Y-120988340D01*
X116862797Y-120994659D01*
X116846086Y-121000967D01*
X116829435Y-121007275D01*
X116812868Y-121013571D01*
X116796359Y-121019867D01*
X116779935Y-121026153D01*
X116763569Y-121032437D01*
X116747287Y-121038710D01*
X116731064Y-121044982D01*
X116714925Y-121051243D01*
X116698844Y-121057504D01*
X116682847Y-121063752D01*
X116666908Y-121070000D01*
X116651053Y-121076236D01*
X116635256Y-121082471D01*
X116619543Y-121088694D01*
X116603887Y-121094916D01*
X116588315Y-121101126D01*
X116572801Y-121107335D01*
X116557370Y-121113532D01*
X116541996Y-121119728D01*
X116526707Y-121125911D01*
X116511473Y-121132093D01*
X116496324Y-121138262D01*
X116481231Y-121144430D01*
X116466222Y-121150586D01*
X116451269Y-121156740D01*
X116436400Y-121162881D01*
X116421587Y-121169020D01*
X116406857Y-121175147D01*
X116392183Y-121181272D01*
X116377592Y-121187384D01*
X116363058Y-121193495D01*
X116348606Y-121199592D01*
X116334210Y-121205687D01*
X116319896Y-121211769D01*
X116305638Y-121217849D01*
X116291463Y-121223916D01*
X116277343Y-121229981D01*
X116263306Y-121236032D01*
X116249324Y-121242081D01*
X116235424Y-121248116D01*
X116221578Y-121254149D01*
X116207815Y-121260169D01*
X116194107Y-121266186D01*
X116180480Y-121272189D01*
X116166908Y-121278190D01*
X116153418Y-121284177D01*
X116139982Y-121290161D01*
X116126628Y-121296131D01*
X116113327Y-121302099D01*
X116100108Y-121308052D01*
X116086943Y-121314003D01*
X116073859Y-121319939D01*
X116060828Y-121325873D01*
X116047879Y-121331792D01*
X116034983Y-121337708D01*
X116022167Y-121343610D01*
X116009405Y-121349509D01*
X115996723Y-121355393D01*
X115984094Y-121361274D01*
X115971546Y-121367140D01*
X115959049Y-121373004D01*
X115946634Y-121378851D01*
X115934270Y-121384697D01*
X115921987Y-121390527D01*
X115909755Y-121396354D01*
X115897603Y-121402165D01*
X115885503Y-121407974D01*
X115873483Y-121413767D01*
X115861514Y-121419557D01*
X115849624Y-121425331D01*
X115837786Y-121431102D01*
X115826027Y-121436857D01*
X115814318Y-121442609D01*
X115802689Y-121448345D01*
X115791110Y-121454079D01*
X115779610Y-121459795D01*
X115768160Y-121465509D01*
X115756788Y-121471206D01*
X115745467Y-121476900D01*
X115734224Y-121482578D01*
X115723031Y-121488253D01*
X115711915Y-121493910D01*
X115700849Y-121499565D01*
X115700000Y-121500000D01*
D11*
X76100000Y-130200000D02*
G75*
G02*
X75397837Y-129686023I-100000J600000D01*
G01*
X159700000Y-119900000D02*
X159218480Y-135387724D01*
X159015147Y-119306030D02*
G75*
G02*
X159700000Y-119900000I84853J-593970D01*
G01*
X92245750Y-27400264D02*
X89200000Y-27400264D01*
X94084736Y-48419973D02*
X92245750Y-27400264D01*
X105196280Y-26267240D02*
X105449033Y-29156205D01*
X105449033Y-29156205D02*
X107035267Y-47286948D01*
X107035267Y-47286948D02*
X94084736Y-48419973D01*
X111600000Y-26267240D02*
X105196280Y-26267240D01*
X114600000Y-39000000D02*
X111600000Y-26267240D01*
D12*
X159882413Y-136636401D02*
G75*
G02*
X159218494Y-135387728I292387J956301D01*
G01*
D11*
X171158198Y-39000000D02*
X114600000Y-39000000D01*
X171158198Y-56988109D02*
X171158198Y-39000000D01*
D12*
X173052308Y-59055167D02*
G75*
G02*
X171158209Y-56988109I104692J1997267D01*
G01*
D13*
X188751250Y-80907181D02*
X188751485Y-80906958D01*
D12*
X188851699Y-59883178D02*
X173052308Y-59055167D01*
X188851699Y-59883178D02*
G75*
G02*
X189798020Y-60934145I-52299J-998622D01*
G01*
D11*
X189797993Y-60934144D02*
X187861563Y-102500000D01*
X215134893Y-154960057D02*
X159882413Y-136636401D01*
D12*
X216426841Y-154384844D02*
G75*
G02*
X215134881Y-154960089I-933641J358444D01*
G01*
D11*
X216426841Y-154384844D02*
X230403191Y-117975208D01*
X229827978Y-116683259D02*
X187861563Y-102500000D01*
D12*
X229827978Y-116683259D02*
G75*
G02*
X230403191Y-117975208I-358278J-933541D01*
G01*
D10*
X89200000Y-27400264D02*
X89155485Y-27443016D01*
X89111002Y-27485850D01*
X89066550Y-27528763D01*
X89022129Y-27571758D01*
X88977740Y-27614833D01*
X88933382Y-27657990D01*
X88889056Y-27701228D01*
X88844761Y-27744546D01*
X88800496Y-27787946D01*
X88756264Y-27831428D01*
X88712062Y-27874991D01*
X88667891Y-27918636D01*
X88623751Y-27962362D01*
X88579643Y-28006170D01*
X88535565Y-28050060D01*
X88491518Y-28094032D01*
X88447502Y-28138087D01*
X88403517Y-28182223D01*
X88359563Y-28226442D01*
X88315639Y-28270743D01*
X88271746Y-28315127D01*
X88227884Y-28359594D01*
X88184052Y-28404143D01*
X88140251Y-28448775D01*
X88096481Y-28493491D01*
X88052741Y-28538289D01*
X88009031Y-28583171D01*
X87965352Y-28628136D01*
X87921704Y-28673184D01*
X87878085Y-28718316D01*
X87834497Y-28763532D01*
X87790940Y-28808831D01*
X87747412Y-28854214D01*
X87703915Y-28899682D01*
X87660447Y-28945233D01*
X87617010Y-28990869D01*
X87573603Y-29036589D01*
X87530226Y-29082394D01*
X87486878Y-29128284D01*
X87443561Y-29174258D01*
X87400274Y-29220317D01*
X87357016Y-29266461D01*
X87313788Y-29312690D01*
X87270590Y-29359004D01*
X87227422Y-29405404D01*
X87184283Y-29451889D01*
X87141174Y-29498460D01*
X87098094Y-29545116D01*
X87055044Y-29591859D01*
X87012023Y-29638687D01*
X86969032Y-29685601D01*
X86926070Y-29732602D01*
X86883138Y-29779689D01*
X86840235Y-29826863D01*
X86797361Y-29874124D01*
X86754516Y-29921471D01*
X86711700Y-29968905D01*
X86668914Y-30016426D01*
X86626156Y-30064034D01*
X86583428Y-30111730D01*
X86540728Y-30159513D01*
X86498058Y-30207384D01*
X86455416Y-30255342D01*
X86412803Y-30303388D01*
X86370219Y-30351523D01*
X86327664Y-30399745D01*
X86285137Y-30448056D01*
X86242639Y-30496455D01*
X86200169Y-30544943D01*
X86157728Y-30593520D01*
X86115316Y-30642185D01*
X86072932Y-30690940D01*
X86030576Y-30739784D01*
X85988249Y-30788717D01*
X85945950Y-30837739D01*
X85903679Y-30886852D01*
X85861436Y-30936054D01*
X85819222Y-30985345D01*
X85777035Y-31034728D01*
X85734877Y-31084200D01*
X85692746Y-31133763D01*
X85650644Y-31183416D01*
X85608569Y-31233160D01*
X85566522Y-31282995D01*
X85524503Y-31332921D01*
X85482512Y-31382938D01*
X85440548Y-31433046D01*
X85398612Y-31483246D01*
X85356703Y-31533538D01*
X85314822Y-31583922D01*
X85272969Y-31634398D01*
X85231142Y-31684966D01*
X85189343Y-31735626D01*
X85147571Y-31786379D01*
X85105827Y-31837224D01*
X85064109Y-31888163D01*
X85022419Y-31939194D01*
X84980756Y-31990319D01*
X84939119Y-32041537D01*
X84897510Y-32092849D01*
X84855927Y-32144255D01*
X84814372Y-32195755D01*
X84772843Y-32247348D01*
X84731340Y-32299037D01*
X84689864Y-32350819D01*
X84648415Y-32402697D01*
X84606992Y-32454669D01*
X84565596Y-32506736D01*
X84524226Y-32558899D01*
X84482882Y-32611157D01*
X84441564Y-32663511D01*
X84400273Y-32715961D01*
X84359007Y-32768507D01*
X84317768Y-32821149D01*
X84276554Y-32873888D01*
X84235367Y-32926723D01*
X84194205Y-32979655D01*
X84153069Y-33032685D01*
X84111959Y-33085811D01*
X84070874Y-33139036D01*
X84029814Y-33192358D01*
X83988781Y-33245778D01*
X83947772Y-33299296D01*
X83906789Y-33352912D01*
X83865831Y-33406627D01*
X83824898Y-33460441D01*
X83783990Y-33514354D01*
X83743108Y-33568366D01*
X83702250Y-33622478D01*
X83661417Y-33676689D01*
X83620609Y-33731001D01*
X83579825Y-33785412D01*
X83539066Y-33839924D01*
X83498332Y-33894537D01*
X83457622Y-33949251D01*
X83416936Y-34004066D01*
X83376274Y-34058982D01*
X83335637Y-34114000D01*
X83295024Y-34169120D01*
X83254435Y-34224342D01*
X83213869Y-34279666D01*
X83173328Y-34335093D01*
X83132810Y-34390623D01*
X83092316Y-34446256D01*
X83051846Y-34501993D01*
X83011398Y-34557833D01*
X82970975Y-34613777D01*
X82930574Y-34669826D01*
X82890197Y-34725979D01*
X82849842Y-34782237D01*
X82809511Y-34838600D01*
X82769203Y-34895068D01*
X82728917Y-34951642D01*
X82688654Y-35008322D01*
X82648413Y-35065109D01*
X82608195Y-35122002D01*
X82567999Y-35179001D01*
X82527826Y-35236108D01*
X82487674Y-35293322D01*
X82447545Y-35350644D01*
X82407437Y-35408074D01*
X82367351Y-35465613D01*
X82327287Y-35523260D01*
X82287245Y-35581016D01*
X82247224Y-35638882D01*
X82207224Y-35696857D01*
X82167245Y-35754942D01*
X82127287Y-35813138D01*
X82087351Y-35871444D01*
X82047435Y-35929861D01*
X82007539Y-35988390D01*
X81967665Y-36047031D01*
X81927810Y-36105783D01*
X81887976Y-36164648D01*
X81848162Y-36223626D01*
X81808368Y-36282717D01*
X81768594Y-36341921D01*
X81728840Y-36401240D01*
X81689105Y-36460673D01*
X81649390Y-36520220D01*
X81609694Y-36579883D01*
X81570017Y-36639661D01*
X81530359Y-36699555D01*
X81490720Y-36759565D01*
X81451099Y-36819692D01*
X81411497Y-36879937D01*
X81371913Y-36940298D01*
X81332348Y-37000778D01*
X81292800Y-37061376D01*
X81253270Y-37122093D01*
X81213758Y-37182930D01*
X81174264Y-37243886D01*
X81134786Y-37304962D01*
X81095326Y-37366159D01*
X81055883Y-37427478D01*
X81016456Y-37488917D01*
X80977047Y-37550479D01*
X80937653Y-37612164D01*
X80898276Y-37673972D01*
X80858914Y-37735903D01*
X80819569Y-37797958D01*
X80780238Y-37860138D01*
X80740924Y-37922443D01*
X80701624Y-37984874D01*
X80662339Y-38047431D01*
X80623070Y-38110115D01*
X80583814Y-38172927D01*
X80544573Y-38235866D01*
X80505346Y-38298933D01*
X80466132Y-38362130D01*
X80426933Y-38425457D01*
X80387746Y-38488913D01*
X80348573Y-38552501D01*
X80309412Y-38616220D01*
X80270264Y-38680071D01*
X80231128Y-38744055D01*
X80192004Y-38808172D01*
X80152892Y-38872424D01*
X80113792Y-38936810D01*
X80074702Y-39001331D01*
X80035624Y-39065989D01*
X79996556Y-39130784D01*
X79957499Y-39195716D01*
X79918452Y-39260786D01*
X79879414Y-39325995D01*
X79840386Y-39391345D01*
X79801366Y-39456834D01*
X79762356Y-39522465D01*
X79723354Y-39588238D01*
X79684360Y-39654154D01*
X79645374Y-39720214D01*
X79606396Y-39786419D01*
X79567424Y-39852768D01*
X79528459Y-39919264D01*
X79489500Y-39985908D01*
X79450548Y-40052699D01*
X79411601Y-40119640D01*
X79372659Y-40186730D01*
X79333721Y-40253971D01*
X79294788Y-40321364D01*
X79255859Y-40388910D01*
X79216934Y-40456610D01*
X79178011Y-40524465D01*
X79139092Y-40592475D01*
X79100174Y-40660643D01*
X79061258Y-40728969D01*
X79022343Y-40797454D01*
X78983429Y-40866099D01*
X78944515Y-40934906D01*
X78905601Y-41003876D01*
X78866686Y-41073010D01*
X78827769Y-41142308D01*
X78788851Y-41211773D01*
X78749931Y-41281406D01*
X78711007Y-41351208D01*
X78672080Y-41421180D01*
X78633148Y-41491324D01*
X78594212Y-41561642D01*
X78555270Y-41632133D01*
X78516322Y-41702801D01*
X78477368Y-41773647D01*
X78438406Y-41844671D01*
X78399436Y-41915877D01*
X78360457Y-41987264D01*
X78321469Y-42058836D01*
X78282470Y-42130593D01*
X78243461Y-42202538D01*
X78204439Y-42274672D01*
X78165405Y-42346997D01*
X78126358Y-42419515D01*
X78087296Y-42492228D01*
X78048220Y-42565137D01*
X78009127Y-42638246D01*
X77970017Y-42711555D01*
X77930890Y-42785067D01*
X77891744Y-42858785D01*
X77852578Y-42932709D01*
X77813391Y-43006844D01*
X77774182Y-43081191D01*
X77734950Y-43155752D01*
X77695694Y-43230531D01*
X77656413Y-43305529D01*
X77617106Y-43380749D01*
X77577771Y-43456194D01*
X77538407Y-43531868D01*
X77499014Y-43607772D01*
X77459588Y-43683909D01*
X77420130Y-43760284D01*
X77380638Y-43836898D01*
X77341110Y-43913756D01*
X77301545Y-43990860D01*
X77261942Y-44068215D01*
X77222298Y-44145823D01*
X77182612Y-44223689D01*
X77142882Y-44301816D01*
X77103107Y-44380208D01*
X77063285Y-44458870D01*
X77023414Y-44537805D01*
X76983491Y-44617019D01*
X76943516Y-44696515D01*
X76903485Y-44776298D01*
X76863396Y-44856374D01*
X76823248Y-44936747D01*
X76783038Y-45017422D01*
X76742764Y-45098406D01*
X76702422Y-45179704D01*
X76662011Y-45261322D01*
X76621527Y-45343265D01*
X76580968Y-45425541D01*
X76540331Y-45508156D01*
X76499612Y-45591117D01*
X76458808Y-45674431D01*
X76417917Y-45758107D01*
X76376934Y-45842151D01*
X76335855Y-45926573D01*
X76294678Y-46011380D01*
X76253397Y-46096583D01*
X76212009Y-46182190D01*
X76170508Y-46268212D01*
X76128891Y-46354659D01*
X76087153Y-46441542D01*
X76045288Y-46528872D01*
X76003290Y-46616663D01*
X75961155Y-46704926D01*
X75918876Y-46793676D01*
X75876446Y-46882927D01*
X75833859Y-46972694D01*
X75791107Y-47062993D01*
X75748184Y-47153841D01*
X75705081Y-47245257D01*
X75661789Y-47337260D01*
X75618299Y-47429869D01*
X75574601Y-47523108D01*
X75530686Y-47616999D01*
X75486541Y-47711568D01*
X75442155Y-47806842D01*
X75397515Y-47902850D01*
X75352607Y-47999622D01*
X75307416Y-48097192D01*
X75261926Y-48195598D01*
X75216120Y-48294878D01*
X75169977Y-48395076D01*
X75123478Y-48496238D01*
X75076599Y-48598416D01*
X75029315Y-48701666D01*
X74981599Y-48806051D01*
X74933419Y-48911640D01*
X74884743Y-49018510D01*
X74835531Y-49126746D01*
X74785741Y-49236444D01*
X74735325Y-49347714D01*
X74684228Y-49460678D01*
X74632387Y-49575480D01*
X74579729Y-49692282D01*
X74526170Y-49811274D01*
X74471611Y-49932681D01*
X74415933Y-50056769D01*
X74358994Y-50183860D01*
X74300620Y-50314348D01*
X74240591Y-50448724D01*
X74178631Y-50587617D01*
X74114374Y-50731850D01*
X74047324Y-50882542D01*
X73976778Y-51041283D01*
X73901674Y-51210467D01*
X73820269Y-51394034D01*
X73729294Y-51599364D01*
X73621007Y-51843941D01*
X73531584Y-52045987D01*
X73423434Y-52290335D01*
X73316515Y-52531787D01*
X73263510Y-52651409D01*
X73210802Y-52770285D01*
X73158389Y-52888409D01*
X73106267Y-53005773D01*
X73054433Y-53122371D01*
X73002885Y-53238196D01*
X72951617Y-53353239D01*
X72900629Y-53467496D01*
X72849915Y-53580957D01*
X72824660Y-53637388D01*
X72799473Y-53693617D01*
X72774352Y-53749644D01*
X72749299Y-53805468D01*
X72724312Y-53861089D01*
X72699391Y-53916504D01*
X72674535Y-53971714D01*
X72649744Y-54026717D01*
X72625018Y-54081512D01*
X72600356Y-54136100D01*
X72575758Y-54190478D01*
X72551224Y-54244646D01*
X72526752Y-54298603D01*
X72502343Y-54352348D01*
X72477997Y-54405881D01*
X72453712Y-54459200D01*
X72429488Y-54512304D01*
X72405326Y-54565193D01*
X72381224Y-54617866D01*
X72357182Y-54670322D01*
X72333200Y-54722560D01*
X72309277Y-54774579D01*
X72285413Y-54826378D01*
X72261608Y-54877956D01*
X72237861Y-54929313D01*
X72214171Y-54980448D01*
X72190539Y-55031359D01*
X72166964Y-55082047D01*
X72143445Y-55132509D01*
X72119982Y-55182745D01*
X72096575Y-55232755D01*
X72073223Y-55282537D01*
X72049926Y-55332090D01*
X72026683Y-55381414D01*
X72003495Y-55430508D01*
X71980360Y-55479370D01*
X71957278Y-55528000D01*
X71934249Y-55576398D01*
X71911272Y-55624562D01*
X71888347Y-55672491D01*
X71865474Y-55720184D01*
X71842652Y-55767641D01*
X71819881Y-55814861D01*
X71797160Y-55861842D01*
X71774489Y-55908584D01*
X71751868Y-55955087D01*
X71729295Y-56001348D01*
X71706771Y-56047368D01*
X71684296Y-56093145D01*
X71661868Y-56138679D01*
X71639488Y-56183968D01*
X71617155Y-56229013D01*
X71594869Y-56273811D01*
X71572629Y-56318362D01*
X71550434Y-56362665D01*
X71528285Y-56406719D01*
X71506181Y-56450524D01*
X71484122Y-56494078D01*
X71462107Y-56537381D01*
X71440136Y-56580432D01*
X71418207Y-56623230D01*
X71396322Y-56665773D01*
X71374480Y-56708062D01*
X71363574Y-56729110D01*
X71352679Y-56750094D01*
X71341795Y-56771015D01*
X71330921Y-56791871D01*
X71320057Y-56812662D01*
X71309204Y-56833389D01*
X71298360Y-56854052D01*
X71287527Y-56874649D01*
X71276704Y-56895182D01*
X71265891Y-56915650D01*
X71255088Y-56936053D01*
X71244295Y-56956391D01*
X71233512Y-56976663D01*
X71222739Y-56996871D01*
X71211976Y-57017012D01*
X71201222Y-57037088D01*
X71190478Y-57057099D01*
X71179744Y-57077043D01*
X71169020Y-57096922D01*
X71158305Y-57116735D01*
X71147599Y-57136481D01*
X71136903Y-57156161D01*
X71126216Y-57175775D01*
X71115539Y-57195322D01*
X71104871Y-57214803D01*
X71094212Y-57234217D01*
X71083563Y-57253565D01*
X71072923Y-57272845D01*
X71062291Y-57292058D01*
X71051669Y-57311205D01*
X71041056Y-57330284D01*
X71030452Y-57349295D01*
X71019856Y-57368239D01*
X71009270Y-57387116D01*
X70998692Y-57405925D01*
X70988123Y-57424666D01*
X70977563Y-57443339D01*
X70967011Y-57461945D01*
X70956468Y-57480482D01*
X70945934Y-57498951D01*
X70935408Y-57517351D01*
X70924890Y-57535683D01*
X70914381Y-57553947D01*
X70903880Y-57572142D01*
X70893387Y-57590268D01*
X70882903Y-57608325D01*
X70872427Y-57626313D01*
X70861959Y-57644232D01*
X70851499Y-57662082D01*
X70841047Y-57679863D01*
X70830603Y-57697574D01*
X70820167Y-57715215D01*
X70809738Y-57732787D01*
X70799318Y-57750289D01*
X70788905Y-57767721D01*
X70778500Y-57785084D01*
X70768103Y-57802376D01*
X70757714Y-57819598D01*
X70747332Y-57836750D01*
X70736957Y-57853831D01*
X70726590Y-57870841D01*
X70716230Y-57887782D01*
X70705878Y-57904651D01*
X70695533Y-57921449D01*
X70685195Y-57938177D01*
X70674865Y-57954833D01*
X70664542Y-57971418D01*
X70654225Y-57987932D01*
X70643916Y-58004374D01*
X70633614Y-58020745D01*
X70623319Y-58037045D01*
X70613030Y-58053272D01*
X70602749Y-58069428D01*
X70592474Y-58085512D01*
X70582206Y-58101523D01*
X70571945Y-58117463D01*
X70561690Y-58133330D01*
X70551442Y-58149125D01*
X70541201Y-58164847D01*
X70530966Y-58180496D01*
X70520737Y-58196073D01*
X70510515Y-58211577D01*
X70500299Y-58227009D01*
X70490090Y-58242367D01*
X70479886Y-58257651D01*
X70469689Y-58272863D01*
X70459498Y-58288001D01*
X70449313Y-58303066D01*
X70439135Y-58318057D01*
X70428962Y-58332974D01*
X70418795Y-58347818D01*
X70408634Y-58362587D01*
X70398478Y-58377283D01*
X70388329Y-58391904D01*
X70378185Y-58406451D01*
X70368047Y-58420924D01*
X70357914Y-58435322D01*
X70347788Y-58449646D01*
X70337666Y-58463895D01*
X70327550Y-58478069D01*
X70317440Y-58492168D01*
X70307335Y-58506192D01*
X70297235Y-58520141D01*
X70287140Y-58534015D01*
X70277051Y-58547813D01*
X70266967Y-58561536D01*
X70256887Y-58575183D01*
X70246813Y-58588755D01*
X70236744Y-58602250D01*
X70226680Y-58615670D01*
X70216621Y-58629014D01*
X70206567Y-58642282D01*
X70196517Y-58655473D01*
X70186472Y-58668588D01*
X70176432Y-58681627D01*
X70166397Y-58694589D01*
X70156366Y-58707474D01*
X70146340Y-58720283D01*
X70136318Y-58733014D01*
X70126301Y-58745669D01*
X70116288Y-58758246D01*
X70106279Y-58770747D01*
X70096275Y-58783169D01*
X70086275Y-58795515D01*
X70076279Y-58807783D01*
X70066287Y-58819973D01*
X70056299Y-58832085D01*
X70046316Y-58844120D01*
X70036336Y-58856076D01*
X70026360Y-58867955D01*
X70016388Y-58879755D01*
X70006420Y-58891477D01*
X69996456Y-58903120D01*
X69986495Y-58914685D01*
X69976539Y-58926171D01*
X69966585Y-58937578D01*
X69956636Y-58948907D01*
X69946690Y-58960156D01*
X69936747Y-58971327D01*
X69926808Y-58982418D01*
X69916872Y-58993430D01*
X69906939Y-59004362D01*
X69897010Y-59015215D01*
X69887084Y-59025988D01*
X69877161Y-59036682D01*
X69867241Y-59047295D01*
X69857324Y-59057829D01*
X69847411Y-59068282D01*
X69837500Y-59078656D01*
X69827592Y-59088949D01*
X69817687Y-59099161D01*
X69807785Y-59109293D01*
X69797885Y-59119345D01*
X69787988Y-59129315D01*
X69778094Y-59139205D01*
X69768203Y-59149014D01*
X69758314Y-59158742D01*
X69748427Y-59168388D01*
X69738543Y-59177953D01*
X69728662Y-59187437D01*
X69718782Y-59196839D01*
X69708905Y-59206160D01*
X69699031Y-59215399D01*
X69689158Y-59224556D01*
X69679288Y-59233631D01*
X69669419Y-59242624D01*
X69659553Y-59251535D01*
X69649689Y-59260363D01*
X69639826Y-59269110D01*
X69629966Y-59277773D01*
X69620107Y-59286354D01*
X69610250Y-59294853D01*
X69600395Y-59303268D01*
X69590542Y-59311601D01*
X69580690Y-59319850D01*
X69570840Y-59328016D01*
X69560991Y-59336099D01*
X69551144Y-59344099D01*
X69541298Y-59352015D01*
X69531453Y-59359847D01*
X69521610Y-59367596D01*
X69511768Y-59375261D01*
X69501928Y-59382842D01*
X69492088Y-59390339D01*
X69482250Y-59397752D01*
X69472412Y-59405080D01*
X69462576Y-59412325D01*
X69452741Y-59419484D01*
X69442906Y-59426559D01*
X69433073Y-59433550D01*
X69423240Y-59440455D01*
X69413408Y-59447276D01*
X69403577Y-59454011D01*
X69393746Y-59460662D01*
X69383916Y-59467227D01*
X69374086Y-59473707D01*
X69364257Y-59480101D01*
X69354429Y-59486410D01*
X69344601Y-59492633D01*
X69334773Y-59498770D01*
X69324945Y-59504822D01*
X69315118Y-59510787D01*
X69305291Y-59516666D01*
X69295464Y-59522459D01*
X69285637Y-59528166D01*
X69275811Y-59533786D01*
X69265984Y-59539319D01*
X69256157Y-59544766D01*
X69246330Y-59550126D01*
X69236503Y-59555399D01*
X69226675Y-59560585D01*
X69216848Y-59565684D01*
X69207020Y-59570696D01*
X69197192Y-59575621D01*
X69187363Y-59580458D01*
X69177534Y-59585207D01*
X69167704Y-59589869D01*
X69157874Y-59594443D01*
X69152958Y-59596697D01*
X69148043Y-59598929D01*
X69143127Y-59601139D01*
X69138211Y-59603327D01*
X69133295Y-59605493D01*
X69128379Y-59607637D01*
X69123462Y-59609759D01*
X69118546Y-59611858D01*
X69113629Y-59613936D01*
X69108712Y-59615992D01*
X69103794Y-59618025D01*
X69098877Y-59620037D01*
X69093959Y-59622026D01*
X69089041Y-59623993D01*
X69084123Y-59625938D01*
X69079204Y-59627861D01*
X69074286Y-59629761D01*
X69069367Y-59631640D01*
X69064447Y-59633496D01*
X69059528Y-59635330D01*
X69054608Y-59637142D01*
X69049688Y-59638931D01*
X69044767Y-59640698D01*
X69039847Y-59642443D01*
X69034925Y-59644165D01*
X69030004Y-59645866D01*
X69025082Y-59647544D01*
X69020160Y-59649199D01*
X69015238Y-59650832D01*
X69010315Y-59652443D01*
X69005392Y-59654032D01*
X69000469Y-59655598D01*
X68995545Y-59657141D01*
X68990621Y-59658662D01*
X68985697Y-59660161D01*
X68980772Y-59661638D01*
X68975846Y-59663091D01*
X68970921Y-59664523D01*
X68965995Y-59665932D01*
X68961068Y-59667318D01*
X68956141Y-59668682D01*
X68951214Y-59670023D01*
X68946286Y-59671342D01*
X68941358Y-59672638D01*
X68936430Y-59673912D01*
X68931500Y-59675163D01*
X68926571Y-59676391D01*
X68921641Y-59677597D01*
X68916711Y-59678780D01*
X68911780Y-59679940D01*
X68906848Y-59681078D01*
X68901917Y-59682193D01*
X68896984Y-59683286D01*
X68892051Y-59684356D01*
X68887118Y-59685403D01*
X68882184Y-59686427D01*
X68877250Y-59687429D01*
X68872315Y-59688408D01*
X68867380Y-59689364D01*
X68862444Y-59690297D01*
X68857507Y-59691207D01*
X68852570Y-59692095D01*
X68847633Y-59692960D01*
X68842695Y-59693802D01*
X68837756Y-59694621D01*
X68832817Y-59695417D01*
X68827877Y-59696191D01*
X68822936Y-59696941D01*
X68817995Y-59697669D01*
X68813054Y-59698374D01*
X68808111Y-59699055D01*
X68803169Y-59699714D01*
X68798225Y-59700350D01*
X68793281Y-59700963D01*
X68788336Y-59701553D01*
X68783391Y-59702120D01*
X68778445Y-59702664D01*
X68773498Y-59703184D01*
X68768551Y-59703682D01*
X68763603Y-59704157D01*
X68758655Y-59704609D01*
X68753705Y-59705037D01*
X68748755Y-59705443D01*
X68743805Y-59705825D01*
X68738853Y-59706184D01*
X68733901Y-59706520D01*
X68728948Y-59706833D01*
X68723995Y-59707123D01*
X68719041Y-59707390D01*
X68714086Y-59707633D01*
X68709130Y-59707853D01*
X68704174Y-59708050D01*
X68699217Y-59708224D01*
X68694259Y-59708375D01*
X68689300Y-59708502D01*
X68684341Y-59708606D01*
X68679381Y-59708686D01*
X68674420Y-59708744D01*
X68669458Y-59708778D01*
X68664495Y-59708788D01*
X68659532Y-59708776D01*
X68654568Y-59708740D01*
X68649603Y-59708680D01*
X68644637Y-59708598D01*
X68639671Y-59708491D01*
X68634703Y-59708362D01*
X68629735Y-59708209D01*
X68624766Y-59708032D01*
X68619796Y-59707832D01*
X68614825Y-59707609D01*
X68609854Y-59707362D01*
X68604881Y-59707092D01*
X68599908Y-59706798D01*
X68594933Y-59706480D01*
X68589958Y-59706139D01*
X68584982Y-59705775D01*
X68580005Y-59705387D01*
X68575027Y-59704975D01*
X68570049Y-59704540D01*
X68565069Y-59704081D01*
X68560088Y-59703599D01*
X68555107Y-59703093D01*
X68550124Y-59702563D01*
X68545141Y-59702009D01*
X68540157Y-59701432D01*
X68535171Y-59700831D01*
X68530185Y-59700207D01*
X68525198Y-59699559D01*
X68520210Y-59698887D01*
X68515220Y-59698191D01*
X68510230Y-59697472D01*
X68505239Y-59696729D01*
X68500247Y-59695962D01*
X68495254Y-59695171D01*
X68490260Y-59694356D01*
X68485264Y-59693518D01*
X68480268Y-59692655D01*
X68475271Y-59691769D01*
X68470272Y-59690859D01*
X68465273Y-59689925D01*
X68460273Y-59688968D01*
X68455271Y-59687986D01*
X68450269Y-59686980D01*
X68445265Y-59685951D01*
X68440260Y-59684897D01*
X68435255Y-59683820D01*
X68430248Y-59682718D01*
X68425240Y-59681593D01*
X68420231Y-59680443D01*
X68415221Y-59679270D01*
X68410209Y-59678073D01*
X68405197Y-59676851D01*
X68400183Y-59675605D01*
X68395169Y-59674336D01*
X68390153Y-59673042D01*
X68385136Y-59671724D01*
X68380118Y-59670382D01*
X68375098Y-59669016D01*
X68370078Y-59667626D01*
X68365056Y-59666211D01*
X68360034Y-59664773D01*
X68355010Y-59663310D01*
X68349984Y-59661823D01*
X68344958Y-59660312D01*
X68339930Y-59658776D01*
X68334902Y-59657217D01*
X68329872Y-59655633D01*
X68324840Y-59654025D01*
X68319808Y-59652392D01*
X68314774Y-59650736D01*
X68309739Y-59649055D01*
X68304703Y-59647349D01*
X68299665Y-59645620D01*
X68294627Y-59643865D01*
X68289587Y-59642087D01*
X68284545Y-59640284D01*
X68279503Y-59638457D01*
X68274459Y-59636606D01*
X68269414Y-59634730D01*
X68264367Y-59632829D01*
X68259320Y-59630904D01*
X68254271Y-59628955D01*
X68249220Y-59626981D01*
X68244169Y-59624983D01*
X68239116Y-59622960D01*
X68234061Y-59620913D01*
X68229005Y-59618841D01*
X68223948Y-59616745D01*
X68218890Y-59614624D01*
X68213830Y-59612478D01*
X68208769Y-59610308D01*
X68203706Y-59608113D01*
X68198642Y-59605894D01*
X68193577Y-59603650D01*
X68188510Y-59601382D01*
X68183442Y-59599088D01*
X68178373Y-59596771D01*
X68173302Y-59594428D01*
X68168229Y-59592061D01*
X68163155Y-59589669D01*
X68158080Y-59587252D01*
X68153003Y-59584811D01*
X68147925Y-59582345D01*
X68142846Y-59579854D01*
X68137765Y-59577338D01*
X68132682Y-59574798D01*
X68127598Y-59572232D01*
X68122513Y-59569642D01*
X68117426Y-59567027D01*
X68112337Y-59564388D01*
X68107247Y-59561723D01*
X68102156Y-59559034D01*
X68097063Y-59556319D01*
X68091968Y-59553580D01*
X68086872Y-59550816D01*
X68081775Y-59548027D01*
X68076676Y-59545213D01*
X68071575Y-59542374D01*
X68066473Y-59539510D01*
X68061369Y-59536621D01*
X68056264Y-59533707D01*
X68051157Y-59530768D01*
X68046048Y-59527804D01*
X68040938Y-59524815D01*
X68035827Y-59521801D01*
X68030713Y-59518762D01*
X68025598Y-59515698D01*
X68020482Y-59512608D01*
X68015364Y-59509494D01*
X68010244Y-59506354D01*
X68005123Y-59503190D01*
X68000000Y-59500000D01*
D14*
%TO.C,LED23*%
X173245629Y-122683759D02*
X176688325Y-123736297D01*
X175781971Y-126700841D01*
X172339275Y-125648303D01*
X173245629Y-122683759D01*
%TO.C,LED19*%
X157453191Y-68352425D02*
X161050998Y-68478063D01*
X160942809Y-71576175D01*
X157345002Y-71450537D01*
X157453191Y-68352425D01*
%TO.C,LED3*%
X80217158Y-79309379D02*
X83803459Y-78995618D01*
X84073642Y-82083821D01*
X80487341Y-82397582D01*
X80217158Y-79309379D01*
%TO.C,LED1*%
X83180458Y-113179979D02*
X86766759Y-112866218D01*
X87036942Y-115954421D01*
X83450641Y-116268182D01*
X83180458Y-113179979D01*
%TO.C,LED6*%
X99325258Y-91189179D02*
X102911559Y-90875418D01*
X103181742Y-93963621D01*
X99595441Y-94277382D01*
X99325258Y-91189179D01*
%TO.C,LED10*%
X118115546Y-85983029D02*
X121710612Y-85794619D01*
X121872854Y-88890371D01*
X118277788Y-89078781D01*
X118115546Y-85983029D01*
%TO.C,LED9*%
X119005246Y-102959729D02*
X122600312Y-102771319D01*
X122762554Y-105867071D01*
X119167488Y-106055481D01*
X119005246Y-102959729D01*
%TO.C,LED13*%
X137687400Y-98890700D02*
X141287400Y-98890700D01*
X141287400Y-101990700D01*
X137687400Y-101990700D01*
X137687400Y-98890700D01*
%TO.C,LED26*%
X197828197Y-110281624D02*
X201232064Y-111453669D01*
X200222803Y-114384776D01*
X196818936Y-113212731D01*
X197828197Y-110281624D01*
%TO.C,LED20*%
X158046491Y-51362825D02*
X161644298Y-51488463D01*
X161536109Y-54586575D01*
X157938302Y-54460937D01*
X158046491Y-51362825D01*
%TO.C,LED27*%
X209833726Y-134447888D02*
X213194615Y-135738013D01*
X212083674Y-138632112D01*
X208722785Y-137341987D01*
X209833726Y-134447888D01*
%TO.C,LED7*%
X97843558Y-74253879D02*
X101429859Y-73940118D01*
X101700042Y-77028321D01*
X98113741Y-77342082D01*
X97843558Y-74253879D01*
%TO.C,LED15*%
X137687400Y-64890700D02*
X141287400Y-64890700D01*
X141287400Y-67990700D01*
X137687400Y-67990700D01*
X137687400Y-64890700D01*
%TO.C,LED21*%
X175430288Y-80959619D02*
X179025354Y-81148029D01*
X178863112Y-84243781D01*
X175268046Y-84055371D01*
X175430288Y-80959619D01*
%TO.C,LED22*%
X176319988Y-63982919D02*
X179915054Y-64171329D01*
X179752812Y-67267081D01*
X176157746Y-67078671D01*
X176319988Y-63982919D01*
%TO.C,LED17*%
X156266691Y-102331725D02*
X159864498Y-102457363D01*
X159756309Y-105555475D01*
X156158502Y-105429837D01*
X156266691Y-102331725D01*
%TO.C,LED14*%
X137687400Y-81890700D02*
X141287400Y-81890700D01*
X141287400Y-84990700D01*
X137687400Y-84990700D01*
X137687400Y-81890700D01*
%TO.C,LED5*%
X100806858Y-108124479D02*
X104393159Y-107810718D01*
X104663342Y-110898921D01*
X101077041Y-111212682D01*
X100806858Y-108124479D01*
%TO.C,LED24*%
X178800729Y-104513959D02*
X182243425Y-105566497D01*
X181337071Y-108531041D01*
X177894375Y-107478503D01*
X178800729Y-104513959D01*
%TO.C,LED12*%
X116336046Y-52029629D02*
X119931112Y-51841219D01*
X120093354Y-54936971D01*
X116498288Y-55125381D01*
X116336046Y-52029629D01*
%TO.C,LED25*%
X191642397Y-128246524D02*
X195046264Y-129418569D01*
X194037003Y-132349676D01*
X190633136Y-131177631D01*
X191642397Y-128246524D01*
%TO.C,LED8*%
X96361958Y-57318579D02*
X99948259Y-57004818D01*
X100218442Y-60093021D01*
X96632141Y-60406782D01*
X96361958Y-57318579D01*
%TO.C,LED18*%
X156859991Y-85342125D02*
X160457798Y-85467763D01*
X160349609Y-88565875D01*
X156751802Y-88440237D01*
X156859991Y-85342125D01*
%TO.C,LED16*%
X137687400Y-47890700D02*
X141287400Y-47890700D01*
X141287400Y-50990700D01*
X137687400Y-50990700D01*
X137687400Y-47890700D01*
%TO.C,LED11*%
X117225846Y-69006329D02*
X120820912Y-68817919D01*
X120983154Y-71913671D01*
X117388088Y-72102081D01*
X117225846Y-69006329D01*
%TO.C,LED2*%
X81698758Y-96244679D02*
X85285059Y-95930918D01*
X85555242Y-99019121D01*
X81968941Y-99332882D01*
X81698758Y-96244679D01*
%TO.C,LED28*%
X216642726Y-116709888D02*
X220003615Y-118000013D01*
X218892674Y-120894112D01*
X215531785Y-119603987D01*
X216642726Y-116709888D01*
%TO.C,LED4*%
X78735458Y-62373979D02*
X82321759Y-62060218D01*
X82591942Y-65148421D01*
X79005641Y-65462182D01*
X78735458Y-62373979D01*
%TD*%
M02*
