%TF.GenerationSoftware,KiCad,Pcbnew,10.0.6*%
%TF.CreationDate,2026-09-29T08:17:03+02:00*%
%TF.ProjectId,main_pcb,6d61696e-5f70-4636-922e-6b696361645f,v1.0.0*%
%TF.SameCoordinates,Original*%
%TF.FileFunction,Soldermask,Top*%
%TF.FilePolarity,Negative*%
%FSLAX46Y46*%
G04 Gerber Fmt 4.6, Leading zero omitted, Abs format (unit mm)*
G04 Created by KiCad (PCBNEW 10.0.6) date 2026-09-29 08:17:03*
%MOMM*%
%LPD*%
G01*
G04 APERTURE LIST*
G04 Aperture macros list*
%AMRoundRect*
0 Rectangle with rounded corners*
0 $1 Rounding radius*
0 $2 $3 $4 $5 $6 $7 $8 $9 X,Y pos of 4 corners*
0 Add a 4 corners polygon primitive as box body*
4,1,4,$2,$3,$4,$5,$6,$7,$8,$9,$2,$3,0*
0 Add four circle primitives for the rounded corners*
1,1,$1+$1,$2,$3*
1,1,$1+$1,$4,$5*
1,1,$1+$1,$6,$7*
1,1,$1+$1,$8,$9*
0 Add four rect primitives between the rounded corners*
20,1,$1+$1,$2,$3,$4,$5,0*
20,1,$1+$1,$4,$5,$6,$7,0*
20,1,$1+$1,$6,$7,$8,$9,0*
20,1,$1+$1,$8,$9,$2,$3,0*%
%AMFreePoly0*
4,1,14,1.335355,1.335355,1.350000,1.300000,1.350000,-0.117000,1.335355,-0.152355,0.152355,-1.335355,0.117000,-1.350000,-1.300000,-1.350000,-1.335355,-1.335355,-1.350000,-1.300000,-1.350000,1.300000,-1.335355,1.335355,-1.300000,1.350000,1.300000,1.350000,1.335355,1.335355,1.335355,1.335355,$1*%
G04 Aperture macros list end*
%ADD10RoundRect,0.050000X-0.636937X0.395994X-0.558497X-0.500581X0.636937X-0.395994X0.558497X0.500581X0*%
%ADD11RoundRect,0.050000X-0.398883X0.635132X-0.721414X-0.205090X0.398883X-0.635132X0.721414X0.205090X0*%
%ADD12RoundRect,0.050000X-0.815599X-0.273492X0.523227X-0.682813X0.815599X0.273492X-0.523227X0.682813X0*%
%ADD13RoundRect,0.050000X-0.583930X0.470666X-0.615339X-0.428786X0.583930X-0.470666X0.615339X0.428786X0*%
%ADD14RoundRect,0.050000X-0.622729X0.417982X-0.575627X-0.480785X0.622729X-0.417982X0.575627X0.480785X0*%
%ADD15RoundRect,0.050000X-0.717023X-0.475266X0.682124X-0.524125X0.717023X0.475266X-0.682124X0.524125X0*%
%ADD16RoundRect,0.050000X-0.653758X-0.559106X0.740914X-0.437088X0.653758X0.559106X-0.740914X0.437088X0*%
%ADD17RoundRect,0.050000X1.183819X0.208739X-0.208739X1.183819X-1.183819X-0.208739X0.208739X-1.183819X0*%
%ADD18C,1.800000*%
%ADD19RoundRect,0.050000X-0.600000X0.450000X-0.600000X-0.450000X0.600000X-0.450000X0.600000X0.450000X0*%
%ADD20RoundRect,0.050000X-0.420805X0.620824X-0.713817X-0.230142X0.420805X-0.620824X0.713817X0.230142X0*%
%ADD21RoundRect,0.050000X-0.672873X-0.535950X0.725209X-0.462680X0.672873X0.535950X-0.725209X0.462680X0*%
%ADD22RoundRect,0.050000X-0.442216X0.605760X-0.705350X-0.254914X0.442216X-0.605760X0.705350X0.254914X0*%
%ADD23RoundRect,0.050000X-0.700000X-0.500000X0.700000X-0.500000X0.700000X0.500000X-0.700000X0.500000X0*%
%ADD24RoundRect,0.050000X-0.824647X-0.244862X0.499079X-0.700657X0.824647X0.244862X-0.499079X0.700657X0*%
%ADD25RoundRect,0.300000X-0.167867X0.544813X-0.569370X-0.028594X0.167867X-0.544813X0.569370X0.028594X0*%
%ADD26RoundRect,0.050000X-0.575627X0.480785X-0.622729X-0.417982X0.575627X-0.480785X0.622729X0.417982X0*%
%ADD27RoundRect,0.050000X-0.832690X-0.215933X0.474322X-0.717648X0.832690X0.215933X-0.474322X0.717648X0*%
%ADD28RoundRect,0.050000X-0.725209X-0.462680X0.672873X-0.535950X0.725209X0.462680X-0.672873X0.535950X0*%
%ADD29C,1.300000*%
%ADD30O,2.100000X1.500000*%
%ADD31RoundRect,0.050000X1.000000X0.700000X-1.000000X0.700000X-1.000000X-0.700000X1.000000X-0.700000X0*%
%ADD32C,2.000000*%
%ADD33C,3.100000*%
%ADD34C,3.500000*%
%ADD35FreePoly0,180.000000*%
%ADD36RoundRect,0.050000X1.300000X1.300000X-1.300000X1.300000X-1.300000X-1.300000X1.300000X-1.300000X0*%
%ADD37FreePoly0,161.000000*%
%ADD38RoundRect,0.050000X1.652413X0.805936X-0.805936X1.652413X-1.652413X-0.805936X0.805936X-1.652413X0*%
%ADD39FreePoly0,178.000000*%
%ADD40RoundRect,0.050000X1.344577X1.253839X-1.253839X1.344577X-1.344577X-1.253839X1.253839X-1.344577X0*%
%ADD41FreePoly0,185.000000*%
%ADD42RoundRect,0.050000X1.181751X1.408356X-1.408356X1.181751X-1.181751X-1.408356X1.408356X-1.181751X0*%
%ADD43FreePoly0,177.000000*%
%ADD44RoundRect,0.050000X1.366255X1.230182X-1.230182X1.366255X-1.366255X-1.230182X1.230182X-1.366255X0*%
%ADD45FreePoly0,183.000000*%
%ADD46RoundRect,0.050000X1.230182X1.366255X-1.366255X1.230182X-1.230182X-1.366255X1.366255X-1.230182X0*%
%ADD47FreePoly0,163.000000*%
%ADD48RoundRect,0.050000X1.623279X0.863113X-0.863113X1.623279X-1.623279X-0.863113X0.863113X-1.623279X0*%
%ADD49FreePoly0,159.000000*%
%ADD50RoundRect,0.050000X1.679533X0.747776X-0.747776X1.679533X-1.679533X-0.747776X0.747776X-1.679533X0*%
G04 APERTURE END LIST*
D10*
%TO.C,D6*%
X108256093Y-90006279D03*
X108543707Y-93293721D03*
%TD*%
%TO.C,D5*%
X109737793Y-106941579D03*
X110025407Y-110229021D03*
%TD*%
D11*
%TO.C,D28*%
X225188307Y-119561692D03*
X224005693Y-122642508D03*
%TD*%
D10*
%TO.C,D8*%
X105292793Y-56135679D03*
X105580407Y-59423121D03*
%TD*%
%TO.C,D7*%
X106774493Y-73070979D03*
X107062107Y-76358421D03*
%TD*%
D12*
%TO.C,LED23*%
X177300483Y-124812290D03*
X176891163Y-126151117D03*
X171727117Y-124572310D03*
X172136437Y-123233483D03*
%TD*%
D13*
%TO.C,D18*%
X165868384Y-85256405D03*
X165753216Y-88554395D03*
%TD*%
D14*
%TO.C,D11*%
X126192546Y-68135861D03*
X126365254Y-71431339D03*
%TD*%
D15*
%TO.C,LED19*%
X161920785Y-69358955D03*
X161871926Y-70758102D03*
X156475215Y-70569645D03*
X156524074Y-69170498D03*
%TD*%
D11*
%TO.C,D27*%
X218379307Y-137299792D03*
X217196693Y-140380608D03*
%TD*%
D16*
%TO.C,LED3*%
X84774117Y-79763943D03*
X84896135Y-81158616D03*
X79516683Y-81629257D03*
X79394665Y-80234584D03*
%TD*%
D17*
%TO.C,REF\u002A\u002A*%
X77829348Y-50841939D03*
D18*
X79286232Y-48761293D03*
X80743116Y-46680647D03*
X82200000Y-44600000D03*
X83656885Y-42519354D03*
%TD*%
D19*
%TO.C,D16*%
X146687400Y-47490700D03*
X146687400Y-50790700D03*
%TD*%
D20*
%TO.C,D26*%
X206468087Y-112833594D03*
X205393713Y-115953806D03*
%TD*%
D16*
%TO.C,LED1*%
X87737417Y-113634543D03*
X87859435Y-115029216D03*
X82479983Y-115499857D03*
X82357965Y-114105184D03*
%TD*%
%TO.C,LED6*%
X103882217Y-91643743D03*
X104004235Y-93038416D03*
X98624783Y-93509057D03*
X98502765Y-92114384D03*
%TD*%
D21*
%TO.C,LED10*%
X122653865Y-86596352D03*
X122727135Y-87994434D03*
X117334535Y-88277048D03*
X117261265Y-86878966D03*
%TD*%
D10*
%TO.C,D4*%
X87666393Y-61191179D03*
X87954007Y-64478621D03*
%TD*%
D14*
%TO.C,D10*%
X127082246Y-85112561D03*
X127254954Y-88408039D03*
%TD*%
D13*
%TO.C,D20*%
X167054984Y-51277105D03*
X166939816Y-54575095D03*
%TD*%
D22*
%TO.C,D24*%
X187524413Y-106762797D03*
X186559587Y-109918603D03*
%TD*%
D20*
%TO.C,D25*%
X200282287Y-130798394D03*
X199207913Y-133918606D03*
%TD*%
D21*
%TO.C,LED9*%
X123543565Y-103573052D03*
X123616835Y-104971134D03*
X118224235Y-105253748D03*
X118150965Y-103855666D03*
%TD*%
D23*
%TO.C,LED13*%
X142187400Y-99740700D03*
X142187400Y-101140700D03*
X136787400Y-101140700D03*
X136787400Y-99740700D03*
%TD*%
D24*
%TO.C,LED26*%
X201806298Y-112550371D03*
X201350502Y-113874097D03*
X196244702Y-112116029D03*
X196700498Y-110792303D03*
%TD*%
D15*
%TO.C,LED20*%
X162514085Y-52369355D03*
X162465226Y-53768502D03*
X157068515Y-53580045D03*
X157117374Y-52180898D03*
%TD*%
D25*
%TO.C,REF\u002A\u002A*%
X89047152Y-47061696D03*
X87900000Y-48700000D03*
%TD*%
D26*
%TO.C,D22*%
X185328554Y-64054461D03*
X185155846Y-67349939D03*
%TD*%
D13*
%TO.C,D19*%
X166461684Y-68266805D03*
X166346516Y-71564795D03*
%TD*%
%TO.C,D17*%
X165275184Y-102246105D03*
X165160016Y-105544095D03*
%TD*%
D27*
%TO.C,LED27*%
X213730225Y-136854087D03*
X213228510Y-138161100D03*
X208187175Y-136225913D03*
X208688890Y-134918900D03*
%TD*%
D16*
%TO.C,LED7*%
X102400517Y-74708443D03*
X102522535Y-76103116D03*
X97143083Y-76573757D03*
X97021065Y-75179084D03*
%TD*%
D23*
%TO.C,LED15*%
X142187400Y-65740700D03*
X142187400Y-67140700D03*
X136787400Y-67140700D03*
X136787400Y-65740700D03*
%TD*%
D14*
%TO.C,D12*%
X125302846Y-51159161D03*
X125475554Y-54454639D03*
%TD*%
D28*
%TO.C,LED21*%
X179879635Y-82043966D03*
X179806365Y-83442048D03*
X174413765Y-83159434D03*
X174487035Y-81761352D03*
%TD*%
%TO.C,LED22*%
X180769335Y-65067266D03*
X180696065Y-66465348D03*
X175303465Y-66182734D03*
X175376735Y-64784652D03*
%TD*%
D15*
%TO.C,LED17*%
X160734285Y-103338255D03*
X160685426Y-104737402D03*
X155288715Y-104548945D03*
X155337574Y-103149798D03*
%TD*%
D10*
%TO.C,D1*%
X92111293Y-111997079D03*
X92398907Y-115284521D03*
%TD*%
D23*
%TO.C,LED14*%
X142187400Y-82740700D03*
X142187400Y-84140700D03*
X136787400Y-84140700D03*
X136787400Y-82740700D03*
%TD*%
D10*
%TO.C,D2*%
X90629693Y-95061779D03*
X90917307Y-98349221D03*
%TD*%
D16*
%TO.C,LED5*%
X105363817Y-108579043D03*
X105485835Y-109973716D03*
X100106383Y-110444357D03*
X99984365Y-109049684D03*
%TD*%
D12*
%TO.C,LED24*%
X182855583Y-106642490D03*
X182446263Y-107981317D03*
X177282217Y-106402510D03*
X177691537Y-105063683D03*
%TD*%
D21*
%TO.C,LED12*%
X120874365Y-52642952D03*
X120947635Y-54041034D03*
X115555035Y-54323648D03*
X115481765Y-52925566D03*
%TD*%
D24*
%TO.C,LED25*%
X195620498Y-130515271D03*
X195164702Y-131838997D03*
X190058902Y-130080929D03*
X190514698Y-128757203D03*
%TD*%
D16*
%TO.C,LED8*%
X100918917Y-57773143D03*
X101040935Y-59167816D03*
X95661483Y-59638457D03*
X95539465Y-58243784D03*
%TD*%
D26*
%TO.C,D21*%
X184438854Y-81031161D03*
X184266146Y-84326639D03*
%TD*%
D15*
%TO.C,LED18*%
X161327585Y-86348655D03*
X161278726Y-87747802D03*
X155882015Y-87559345D03*
X155930874Y-86160198D03*
%TD*%
D19*
%TO.C,D14*%
X146687400Y-81490700D03*
X146687400Y-84790700D03*
%TD*%
D25*
%TO.C,REF\u002A\u002A*%
X86547152Y-51061696D03*
X85400000Y-52700000D03*
%TD*%
D14*
%TO.C,D9*%
X127971946Y-102089261D03*
X128144654Y-105384739D03*
%TD*%
D23*
%TO.C,LED16*%
X142187400Y-48740700D03*
X142187400Y-50140700D03*
X136787400Y-50140700D03*
X136787400Y-48740700D03*
%TD*%
D10*
%TO.C,D3*%
X89147993Y-78126479D03*
X89435607Y-81413921D03*
%TD*%
D21*
%TO.C,LED11*%
X121764165Y-69619652D03*
X121837435Y-71017734D03*
X116444835Y-71300348D03*
X116371565Y-69902266D03*
%TD*%
D19*
%TO.C,D15*%
X146687400Y-64490700D03*
X146687400Y-67790700D03*
%TD*%
D22*
%TO.C,D23*%
X181969413Y-124932597D03*
X181004587Y-128088403D03*
%TD*%
D16*
%TO.C,LED2*%
X86255717Y-96699243D03*
X86377735Y-98093916D03*
X80998283Y-98564557D03*
X80876265Y-97169884D03*
%TD*%
D27*
%TO.C,LED28*%
X220539225Y-119116087D03*
X220037510Y-120423100D03*
X214996175Y-118487913D03*
X215497890Y-117180900D03*
%TD*%
D29*
%TO.C,REF\u002A\u002A*%
X164550000Y-42967500D03*
X157550000Y-42967500D03*
D30*
X165850000Y-46167500D03*
X162850000Y-40667500D03*
X165850000Y-40667500D03*
X157350000Y-45167500D03*
D31*
X158850000Y-40667500D03*
%TD*%
D19*
%TO.C,D13*%
X146687400Y-98490700D03*
X146687400Y-101790700D03*
%TD*%
D16*
%TO.C,LED4*%
X83292417Y-62828543D03*
X83414435Y-64223216D03*
X78034983Y-64693857D03*
X77912965Y-63299184D03*
%TD*%
D32*
%TO.C,S14*%
X144987400Y-88140700D03*
D33*
X144487400Y-91890700D03*
X139487400Y-94090700D03*
D34*
X139487400Y-88140700D03*
D33*
X134487400Y-91890700D03*
D32*
X133987400Y-88140700D03*
D35*
X136212400Y-94090700D03*
D36*
X147762400Y-91890700D03*
%TD*%
D32*
%TO.C,S26*%
X202695652Y-118567825D03*
D33*
X201002012Y-121950735D03*
X195558169Y-122403036D03*
D34*
X197495300Y-116777200D03*
D33*
X191546827Y-118695054D03*
D32*
X192294948Y-114986575D03*
D37*
X192461596Y-121336800D03*
D38*
X204098586Y-123016971D03*
%TD*%
D32*
%TO.C,S19*%
X164530650Y-74853447D03*
D33*
X163900081Y-78583713D03*
X158826348Y-80607875D03*
D34*
X159034000Y-74661500D03*
D33*
X153906173Y-78234718D03*
D32*
X153537350Y-74469553D03*
D39*
X155553343Y-80493580D03*
D40*
X167173086Y-78698009D03*
%TD*%
D32*
%TO.C,S6*%
X107142171Y-96779143D03*
D33*
X106970911Y-100558451D03*
X102181677Y-103185858D03*
D34*
X101663100Y-97258500D03*
D33*
X97008961Y-101430009D03*
D32*
X96184029Y-97737857D03*
D41*
X98919139Y-103471294D03*
D42*
X110233445Y-100273016D03*
%TD*%
D32*
%TO.C,S22*%
X183282862Y-70606448D03*
D33*
X182587288Y-74325141D03*
X177479001Y-76260446D03*
D34*
X177790400Y-70318600D03*
D33*
X172600992Y-73801781D03*
D32*
X172297938Y-70030752D03*
D43*
X174208489Y-76089045D03*
D44*
X185857800Y-74496541D03*
%TD*%
D32*
%TO.C,S11*%
X124842862Y-74865652D03*
D33*
X124539808Y-78636681D03*
X119661799Y-81095346D03*
D34*
X119350400Y-75153500D03*
D33*
X114553512Y-79160041D03*
D32*
X113857938Y-75441348D03*
D45*
X116391287Y-81266746D03*
D46*
X127810319Y-78465281D03*
%TD*%
D32*
%TO.C,S23*%
X178399376Y-130795044D03*
D33*
X176824830Y-134235001D03*
X171400088Y-134877013D03*
D34*
X173139700Y-129187000D03*
D33*
X167261782Y-131311284D03*
D32*
X167880024Y-127578956D03*
D47*
X168268190Y-133919496D03*
D48*
X179956728Y-135192519D03*
%TD*%
D32*
%TO.C,S12*%
X123953162Y-57888952D03*
D33*
X123650108Y-61659981D03*
X118772099Y-64118646D03*
D34*
X118460700Y-58176800D03*
D33*
X113663812Y-62183341D03*
D32*
X112968238Y-58464648D03*
D45*
X115501587Y-64290046D03*
D46*
X126920619Y-61488581D03*
%TD*%
D32*
%TO.C,S7*%
X105660571Y-79843843D03*
D33*
X105489311Y-83623151D03*
X100700077Y-86250558D03*
D34*
X100181500Y-80323200D03*
D33*
X95527361Y-84494709D03*
D32*
X94702429Y-80802557D03*
D41*
X97437539Y-86535994D03*
D42*
X108751845Y-83337716D03*
%TD*%
D32*
%TO.C,S1*%
X90997371Y-118769943D03*
D33*
X90826111Y-122549251D03*
X86036877Y-125176658D03*
D34*
X85518300Y-119249300D03*
D33*
X80864161Y-123420809D03*
D32*
X80039229Y-119728657D03*
D41*
X82774339Y-125462094D03*
D42*
X94088645Y-122263816D03*
%TD*%
D32*
%TO.C,S9*%
X126622362Y-108819052D03*
D33*
X126319308Y-112590081D03*
X121441299Y-115048746D03*
D34*
X121129900Y-109106900D03*
D33*
X116333012Y-113113441D03*
D32*
X115637438Y-109394748D03*
D45*
X118170787Y-115220146D03*
D46*
X129589819Y-112418681D03*
%TD*%
D32*
%TO.C,S21*%
X182393162Y-87583148D03*
D33*
X181697588Y-91301841D03*
X176589301Y-93237146D03*
D34*
X176900700Y-87295300D03*
D33*
X171711292Y-90778481D03*
D32*
X171408238Y-87007452D03*
D43*
X173318789Y-93065745D03*
D44*
X184968100Y-91473241D03*
%TD*%
D32*
%TO.C,S24*%
X183954476Y-112625244D03*
D33*
X182379930Y-116065201D03*
X176955188Y-116707213D03*
D34*
X178694800Y-111017200D03*
D33*
X172816882Y-113141484D03*
D32*
X173435124Y-109409156D03*
D47*
X173823290Y-115749696D03*
D48*
X185511828Y-117022719D03*
%TD*%
D32*
%TO.C,S10*%
X125732562Y-91842352D03*
D33*
X125429508Y-95613381D03*
X120551499Y-98072046D03*
D34*
X120240100Y-92130200D03*
D33*
X115443212Y-96136741D03*
D32*
X114747638Y-92418048D03*
D45*
X117280987Y-98243446D03*
D46*
X128700019Y-95441981D03*
%TD*%
D32*
%TO.C,S16*%
X144987400Y-54140700D03*
D33*
X144487400Y-57890700D03*
X139487400Y-60090700D03*
D34*
X139487400Y-54140700D03*
D33*
X134487400Y-57890700D03*
D32*
X133987400Y-54140700D03*
D35*
X136212400Y-60090700D03*
D36*
X147762400Y-57890700D03*
%TD*%
D32*
%TO.C,S25*%
X196509852Y-136532625D03*
D33*
X194816212Y-139915535D03*
X189372369Y-140367836D03*
D34*
X191309500Y-134742000D03*
D33*
X185361027Y-136659854D03*
D32*
X186109148Y-132951375D03*
D37*
X186275796Y-139301600D03*
D38*
X197912786Y-140981771D03*
%TD*%
D32*
%TO.C,S5*%
X108623871Y-113714443D03*
D33*
X108452611Y-117493751D03*
X103663377Y-120121158D03*
D34*
X103144800Y-114193800D03*
D33*
X98490661Y-118365309D03*
D32*
X97665729Y-114673157D03*
D41*
X100400839Y-120406594D03*
D42*
X111715145Y-117208316D03*
%TD*%
D32*
%TO.C,S2*%
X89515771Y-101834643D03*
D33*
X89344511Y-105613951D03*
X84555277Y-108241358D03*
D34*
X84036700Y-102314000D03*
D33*
X79382561Y-106485509D03*
D32*
X78557629Y-102793357D03*
D41*
X81292739Y-108526794D03*
D42*
X92607045Y-105328516D03*
%TD*%
D32*
%TO.C,S13*%
X144987400Y-105140700D03*
D33*
X144487400Y-108890700D03*
X139487400Y-111090700D03*
D34*
X139487400Y-105140700D03*
D33*
X134487400Y-108890700D03*
D32*
X133987400Y-105140700D03*
D35*
X136212400Y-111090700D03*
D36*
X147762400Y-108890700D03*
%TD*%
D32*
%TO.C,S20*%
X165123950Y-57863747D03*
D33*
X164493381Y-61594013D03*
X159419648Y-63618175D03*
D34*
X159627300Y-57671800D03*
D33*
X154499473Y-61245018D03*
D32*
X154130650Y-57479853D03*
D39*
X156146643Y-63503880D03*
D40*
X167766386Y-61708309D03*
%TD*%
D32*
%TO.C,S18*%
X163937350Y-91843047D03*
D33*
X163306781Y-95573313D03*
X158233048Y-97597475D03*
D34*
X158440700Y-91651100D03*
D33*
X153312873Y-95224318D03*
D32*
X152944050Y-91459153D03*
D39*
X154960043Y-97483180D03*
D40*
X166579786Y-95687609D03*
%TD*%
D32*
%TO.C,S17*%
X163344050Y-108832647D03*
D33*
X162713481Y-112562913D03*
X157639748Y-114587075D03*
D34*
X157847400Y-108640700D03*
D33*
X152719573Y-112213918D03*
D32*
X152350750Y-108448753D03*
D39*
X154366743Y-114472780D03*
D40*
X165986486Y-112677209D03*
%TD*%
D32*
%TO.C,S27*%
X214408992Y-142898824D03*
D33*
X212598322Y-146220566D03*
X207142011Y-146482604D03*
D34*
X209274300Y-140927800D03*
D33*
X203262518Y-142636887D03*
D32*
X204139608Y-138956776D03*
D49*
X204084535Y-145308949D03*
D50*
X215655798Y-147394221D03*
%TD*%
D32*
%TO.C,S4*%
X86552471Y-67964043D03*
D33*
X86381211Y-71743351D03*
X81591977Y-74370758D03*
D34*
X81073400Y-68443400D03*
D33*
X76419261Y-72614909D03*
D32*
X75594329Y-68922757D03*
D41*
X78329439Y-74656194D03*
D42*
X89643745Y-71457916D03*
%TD*%
D32*
%TO.C,S8*%
X104178871Y-62908543D03*
D33*
X104007611Y-66687851D03*
X99218377Y-69315258D03*
D34*
X98699800Y-63387900D03*
D33*
X94045661Y-67559409D03*
D32*
X93220729Y-63867257D03*
D41*
X95955839Y-69600694D03*
D42*
X107270145Y-66402416D03*
%TD*%
D32*
%TO.C,S3*%
X88034071Y-84899343D03*
D33*
X87862811Y-88678651D03*
X83073577Y-91306058D03*
D34*
X82555000Y-85378700D03*
D33*
X77900861Y-89550209D03*
D32*
X77075929Y-85858057D03*
D41*
X79811039Y-91591494D03*
D42*
X91125345Y-88393216D03*
%TD*%
D32*
%TO.C,S15*%
X144987400Y-71140700D03*
D33*
X144487400Y-74890700D03*
X139487400Y-77090700D03*
D34*
X139487400Y-71140700D03*
D33*
X134487400Y-74890700D03*
D32*
X133987400Y-71140700D03*
D35*
X136212400Y-77090700D03*
D36*
X147762400Y-74890700D03*
%TD*%
D32*
%TO.C,S28*%
X221217992Y-125160824D03*
D33*
X219407322Y-128482566D03*
X213951011Y-128744604D03*
D34*
X216083300Y-123189800D03*
D33*
X210071518Y-124898887D03*
D32*
X210948608Y-121218776D03*
D49*
X210893535Y-127570949D03*
D50*
X222464798Y-129656221D03*
%TD*%
M02*
